<mxfile host="Electron" modified="2023-09-26T10:22:45.436Z" agent="Mozilla/5.0 (Windows NT 10.0; Win64; x64) AppleWebKit/537.36 (KHTML, like Gecko) draw.io/21.7.5 Chrome/114.0.5735.289 Electron/25.8.1 Safari/537.36" etag="GDp8DQRDze-yDXgq0bV3" version="21.7.5" type="device">
  <diagram id="R2lEEEUBdFMjLlhIrx00" name="Page-1">
    <mxGraphModel dx="184" dy="564" grid="1" gridSize="10" guides="1" tooltips="1" connect="1" arrows="1" fold="1" page="1" pageScale="1" pageWidth="850" pageHeight="1100" background="#FFFFFF" math="0" shadow="0" extFonts="Permanent Marker^https://fonts.googleapis.com/css?family=Permanent+Marker">
      <root>
        <mxCell id="0" />
        <mxCell id="1" parent="0" />
        <mxCell id="NpUAAHb7mBl69o27pu8u-3" value="" style="shape=image;verticalLabelPosition=bottom;labelBackgroundColor=default;verticalAlign=top;aspect=fixed;imageAspect=0;image=data:image/png,iVBORw0KGgoAAAANSUhEUgAABToAAAKfCAYAAABOonceAAAAAXNSR0IArs4c6QAAAARnQU1BAACxjwv8YQUAAAAJcEhZcwAADsMAAA7DAcdvqGQAAP+lSURBVHhe7N0LQBZV3j/w78PNe+UdFFQUc7W0lrQCa2sxet39a64QVnTT1bZtzd0u7qqB1Srs1quVlL5tqd1MtBS18lJRVCuJZVJKpZX6qKA84C0VkOvz/M85c+ZhgAdQ88Ij3087OzPnnDlzZgCBH785Y3MJICIiIiIiIiIiIvJiPnpNRERERERERERE5LUY6CQiIiIiIiIiIiKvx0AnEREREREREREReT0GOomIiIiIiIiIiMjrMdBJREREREREREREXo+BTiIiIiIiIiIiIvJ6DHQSERERERERERGR12Ogk4iIiIiIiIiIiLweA51ERERERERERETk9RjoJCIiIiIiIiIiIq/HQCcRERERERERERF5PQY6iYiIiIiIiIiIyOsx0ElERERERERERERej4FOIiIiIiIiIiIi8noMdBIREREREREREZHXY6CTiIiIiIiIiIiIvB4DnUREREREREREROT1GOgkIiIiIiIiIiIir8dAJxEREREREREREXk9BjqJiIiIiIiIiIjI6zHQSURERERERERERF6PgU4iIiIiIiIiIiLyegx0EhERERERERERkddjoJOIiIiIiIiIiIi8HgOdRERERERERERE5PUY6CQiIiIiIiIiIiKvx0AnEREREREREREReT0GOomIiIiIiIiIiMjrMdBJREREREREREREXo+BTiIiIiIiIiIiIvJ6DHQSERERERERERGR12Ogk4iIiIiIiIiIiLweA51ERERERERERETk9RjoJCIiIiIiIiIiIq/HQCcRERERERERERF5PQY6iYiIiIiIiIiIyOsx0ElERERERERERERej4FOIiIiIiIiIiIi8noMdBIREREREREREZHXY6CTiIiIiIiIiIiIvB4DnUREREREREREROT1GOgkIiIiIiIiIiIir8dAJxEREREREREREXk9BjqJiIiIiIiIiIjI6zHQSURERERERERERF6PgU4iIiIiIiIiIiLyegx0EhERERERERERkddjoJOIiIiIiIiIiIi8HgOdRERERERERERE5PUY6CQiIiIiIiIiIiKvx0AnEREREREREREReT0GOomIiIiIiIiIiMjrMdBJREREREREREREXo+BTiIiIiIiIiIiIvJ6DHQSERERERERERGR12Ogk4iIiIiIiIiIiLweA51ERERERERERETk9RjoJCIiIiIiIiIiIq/HQCcRERERERERERF5PQY6iYiIiIiIiIiIyOsx0ElERERERERERERej4FOIiIiIiIiIiIi8noMdBIREREREREREZHXY6CTiIiIiIiIiIiIvB4DnUREREREREREROT1GOgkIiIiIiIiIiIir8dAJxEREREREREREXk9BjqJiIiIiIiIiIjI6zHQSURERERERERERF6PgU4iIiIiIiIiIiLyegx0EhERERERERERkddjoJOIiIiIiIiIiIi8HgOdRERERERERERE5PUY6CQiIiIiIiIiIiKvx0AnEREREREREREReT0GOomIiIiIiIiIiMjrMdBJREREREREREREXo+BTiIiIiIiIiIiIvJ6DHQSERERERERERGR12Ogk4iIiIiIiIiIiLweA51ERERERERERETk9RjoJCIiIiIiIiIiIq/HQCcRERERERERERF5PQY6iYiIiIiIiIiIyOsx0ElERERERERERERej4FOIiIiIiIiIiIi8noMdBIREREREREREZHXY6CTiIiIiIiIiIiIvB4DnUREREREREREROT1GOgkIiIiIiIiIiIir8dAJxEREREREREREXk9BjqJiIiIiIiIiIjI6zHQSURERERERERERF6PgU4iIiIiIiIiIiLyegx0EhERERERERERkddjoJOIiIiIiIiIiIi8HgOdRERERERERERE5PUY6CQiIiIiIiIiIiKvx0AnEREREREREREReT0GOomIiIiIiIiIiMjrMdBJREREREREREREXo+BTiIiIiIiIiIiIvJ6DHQSERERERERERGR12Ogk4iIiIiIiIiIiLweA51ERERERERERETk9RjoJCIiIiIiIiIiIq/HQCcRERERERERERF5PQY6iYiIiIiIiIiIyOsx0ElERERERERERERej4FOIiIiIiIiIiIi8noMdBIREREREREREZHXY6CTiIiIiIiIiIiIvB4DnUREREREREREROT1GOgkIiIiIiIiIiIir8dAJxEREREREREREXk9BjqJiIiIiIiIiIjI69lcgt4mIiIiIiIiImp2li1bpreITl5cXJzeoqaCgU4iIiIiIiIiatZkoHNflzi06gQ4bbqwHr3bV+itUyPDLzab6FxGYeRKrOVu9T7rvan+WOYqBjqbIAY6iYiIiIiIiKhZk4HOH9vFYfmRKhS289Wlni2NrDRjXW4ns+/rYy0hb7c/fQUDnU0QA51ERERERERE1KzJQOeXLePwxt4KFJbK15nUH5T8/iFZb4YyT37tdFpKxIaZMVhjzXqvqf9u5XIGOpsgBjqJiIiIiIiIqFmTgc5tF8XhpX0V2L+9FCiq/93Nm2e30lunRkVfZKTMxH2v3t+1Jo2BziaIgU4iIiIiIiIiatZqBDq3lQA/l+uauj6f3UFvnZoqp0vFycx4WX1xNNZ7R33+RysZ6GyC6v8TBRERERERERER1VBa7sKJMmeddf7PlZj1wQm19lSv1uX6eMv6RD3lZ7P+0PoFyPm2/nrrumZ9DnJSP8aheuv1es8SvPJWfv31lvX+t+Jw/b1LkF9Pvcfjs/6NV7IaqLesz1Y9NU0MdBIRERERERERnSQZ6CqtqF5n73Hi9S+PYfY3JfjSv1Kt5b4st7Y7UeZSAU+P6/J6ys9SfecA4OIW9dfXf7wPLva1oXO99XLtwAdP3oPDrX3qqa+57iraoYUPutZTr9Y1js/CG//vcYS0qq/ew/os1FPTxEAnEREREREREZFbK3w/vzO+H2tsf5zSGUcerZ6X0wh6iUWvv953DO/4t8K3pe1w7OdL1Fruy3JruxMVMuDp8ryWWYKeys31qdQXZuCnJc9hm1wyvlXlBz7W+0uW44DYrxLX4dqx3Ch7NwPH5PE/6n2x7P7R6O/YpleMstRXkFdo9C8f3a6S5xGL3M9fcRtG9WiBUT3F8txGnNj0Gp55B3j33mAkr1iL1J634aO9sv1GLJHbueK43KVIlu3FMlO0lSorHPjoz7qfPy9Fvux/07/F9m1I1v0nr3CI883Bm6L9zKgWWLLJhS3PiTpLvfs+WNdn8v7qNTVNDHQSEREREREREVnIWTj7h7cDolvhN60B8T83GfSSgS65LjxehR+dPnD+HIA7w2x4fGiFWst9WS7rzfYy2FkiA55neX18/24EDZ+CKVPEcscgnCjIwIkT4Rgr94f74MTmAsg43T7bZarN7zrthq0gB/s3++B3ss2U36HD5jQcFscdLuxjHHdvH7i+yMCxMiPAV+E+Xz4O/HcVYlLzIV8B43oqEieGTcDiOKiy9fd1Rl/44FdtZHsfhOntre/eiy9nbFDHPH7FCtVn4cq/4YVrjbIN196Lt1bmo+RiP2DdYMwSZfmpMfjyv5+h532TkSTaJ2W58J9hWTgyx9iWx62/L6je+3Km19Q0MdBJREREREREROR2ArMKxapVC3x8oy/84MKiZ04YVYKcs1Fl+Ill9bdV2OfyAYr90KN1FdqXVaq13Jflst5sXymKz8UycFgEnO8/jaefFstL6Sit/Bl+YQOxO+cEFvS4DX/6f0EqK7PnpZdhgShziJ02rkNo0as/Wsg2OQMQ1usYOv38MwLM41wD0cf3Z3QS/Usu9/m644+Tk7AiPgg2mw22W97EodxKHBF9Ossq8MYuIzDqchrtje0CtN8JxPQMUef37RWjykuPrgKeiFT9RD4BfHI0F5Xy8Lhe8BXt9gSGA74+cO5yolS2P34Cy3Kvw59TY5AYIc4tjmsx5XP3fTjbCzVNDHQSEREREREREVk882kVKmFDVBexc6IME4ziOqL7+aCbjOK1qcSuIl8U+vmqtdyX5bL+XMvZdRlGqMzMKfhdlz1o27ITsGMLvpaV372PlKVbVLvK8gq1VgIDccnu7/GR2vkG3+++BF0HWI7buQU70QndVL1VJdb2f8zI5sxdjJgP83AxAtFjoK5WViB3v1gV2GGcuTsuHSRKf7KrvW0/GRmdvfvGADrLUy2JEapcRmWPilVOpbEL9EJP98vOK3DkluVG+6wkwJGr2lLzxUAnEREREREREZGRfGhIP4HdOmvv5+zjxoYH7Vr4oJerCj6XlOOtXS78OytAreW+LJf1irXvs6zy+/l4SWZzimWdKwJRvxqGEWF2HF37PA59vgcDo6/ULS1OXIbfD7ehSLZZ+zECht+Gri2sx9nRZ+Qwj5exc7qPkc0ZcidWzIjC9ahEh14xWDWuB15c1wu/mQE8PbI17nt+JXzVEZW4dMoGJCX9BvcNao1l24yMzraxjyLpcSOj02b7A+5bbwnE1tAVXS8Hkm5ujTVbC7AgRp8/IhExo4fhOt2KmiebS4a9iYiIiIiIiIiaqWXLlmHMgVFAXhlQIB+MBh79eyfM/pUTC8cfrpHROf+htnrLYD8E/HCwCLttvthvMzI8ZZCzX6e2CO2oG0ky+mIzNj06Q/UDe7fENW10w7JKLPixwlLmwv78UuRe1BL9ykuxPA+4/tKWaHe4FGtbtMSEDsZxPx85oepqHLdftDnkj1sH+OCH78uQo1rK41uhXwu9U+t85cUVsPv5G/VVLpT7AgfF+dceFP0M9MMlorhclAeI/r/4zol+g4wyc5xrW4oxXSTq5Pm6i+2Lje1L9Dl/PlKBkov80c2IoKrzvbHLnfpZ0xm+/xdvX424OHdqKTURDHQSERERERERUbOmAp3vDwOKq4BG3jMzf3rNQKfpeJkT6T8Yj6u7MznpgsVAZ9PEQCcRERERERERNWsy0LmvSxxadQKcDWX1Cf5V1S8mouaLgc6miYFOIiIiIiIiImrWZKDzx3ZxWH6kCoXt9HPQ9fhnzxOADKXYqiOiMrQi54l0a6yevB4DnU0Tc6mJiIiIiIiIqNn7uQLYf9iJ/T9UiUWuPS9KraBlnSCmh/o6eWa19lnvZfXUJDHQSURERERERETNXrsAwK+V2CgoAXaeqH85TScTDK2B9XrD0OTqqUnio+tERERERERE1KzJR9e3XRSHl/ZVYP+2EuDncl1T1/y/en4ZUWOCO/oawTIZhZErsVaxM/e+fryd9V5RfyxzFR9db4IY6CQiIiIiIiKiZk0GOuOuu07vETVuWWYmA51NEB9dJyIiIiIiIiIiIq/HQCcRERERERERNVu/3fZbvUV0auTnzt/2/E3vUVPAR9eJiIiIiIiEVw68gtzyXL1HzQ1/NW6+/rnvn3h779t8dJ1OiXx0fUyPMejZoifGdR6n5u50qQk8gaKqIkzuNhmB/oFqn84dBjqJiIiIiIiECbsmILF7ot4jouYi9JtQBjrplJmBzqvbXo23wt7SpYYVh1egvV97IwBK5xQDnURERERERIIMdC7ovUDvEVFzcsZeRpRfCEdQFzScx7cZyffvxfiXRjfSrppD9Bso+s16bgLsty9AfJCuEDyVnXmFSL1/CUJf+hsidMnJqXVc/krEPgnME9duPyfjPnsaehnR6wdeV9mdYzuP1SV0rnCOTiIiIiIiIiIiD/YfKETh4cN6rzGbkTzzK73dkDZAi7Z6+yRsTsHEb1ob221aAHrTzVPZGSdO0EKM+1RtToN9apIOjhYideZErNDXHvGvx2BfsVltE50pDHQSEREREREREdXy4cb/YtfRV5G+eTEOHDqkSy02p8DWrZtaYlcVwrFqARJXTUDQcx8h9f4UZBmNkHz/SjjElkPUqfaiLlvVyWxM43hbtwlIzZclor3uUy7JmwuR+urTWDH+UrGtDjHIzEh93OxvdZmbzKI0z2+Q5zGPN7Zlm+rzyPEbY52g+pVtq8dW3VeGLjPaN9aHHLs/oq48oI51rHocaXGLkaT2hAO/RpT/An3dFxhb9XyddG4x0ElEREREREREVMv67G+R/bULnbt+iF179qCiokLXGLK+/BGLc13qRVZp40MROP7vSIpbjPx/3WjJfjSzNzdj4cfxyBdtXXP14875KzG7zQZ1vMv1GOwzZUBUHpeEDbIsdzGyvzyA+EeTEJOaj4Qo4zApa0U6YtW55yNWl1ULRfwqM4vSEDooBtmHjEBkxqwkREW1RtRcY+zyPCiQwUhx7vciMFmUJfQTY7OLa5H1WW0we9VBUf84MEoeswHhH38lxtpIH1EHYPfphdCjolhc68SPx2DercFix3QUoX18YD+idy8kjHGeNwx0EhERERERERHVctWvfoUrr2yBrM9bqGBebRF/jEVaiA02m1gS/wscKgdclcCBUt3CIv8gsgeFIDA/H7gkBOGy7MhBrHgy0jjedh0SVx2EXZbH9UCobFck+vL1BcqdQOVxGRfUCmH/4SqEXiTa5LdF6EBd7Fasg47VAofGAO99Bcfmr5A44wZEHO0KfPT/jHOH3IkVNnEeKa6nce69B4HR1xvjHTQNaeO7icokRP1anlNcn81f7DfSx/Y8ZA/sqeYhdXyTjhVpdyGoxQ1IXH4vJqrsTzGunuHIzjO2LzTirugtOpcY6CQiIiIiIiIiqmXUb3+LffuOI+zSK9GyRQv4+8vgnkWHOKTJbEZXPhbbv6rxqLhb/h7jMfWw3gjP2aUeYceOXUZZj1DEzDAzOuXymJGF6SGoWlMoQgdmw75Dbtthz1GFDev4G8TaVmPhl1sRE9od2PwvTPSfb5w3y/0wefW5xdiw4kNjvNtfRmziF2LDaQm2Co31YbnmwLvSjHauDSrrdd540b/g2JWN8N7GNtGZwEAnEREREREREVEtMlOxrKwMGz93ICAgAFVVVbrGkJXUwshmtAUhbfQERKAXQnEvgp7bg6jRXyNSzl058x2jcfFgjB/9DoKsZV1vw2SnmdEpllteNgKLtXXvBdxjnaOzGBH3xCLtKjk35uNI06XV6s7RieKLxZhsSJwJxA7tCESNQPg93Y3zrnUi6ds9Nc8txjYvZrUx3qvSEfsXD+9ab6yP4hBxP/YaWaqHCgCZ5SmzQWXW66Fi1cQuKkMDje0LjYvPr58XNpcMqRMRERERETVzE3ZNwILeC/QeETUny5YtQ9x11+m9auMe/RNCevbEHb8bg76hofDz89M1QucgwNwtPwbI9xV1vQhwloilJRDgI9ZOUVgJFIjKjl3rlln7cJaLMlHeVRTIujYdgdZiv0TsXxQg1vnieNFHSYFoLOpkmcyylN0ViTJ3vLCN6KN1ncfXjfOL9THZ9mIgSL+qvVKcw0d0Yj23ZI5XnuBYEdDW7FMcq9qJ9g32IcZhT0Hy4QlIuMpoVn2srN+M5JfbI+Hh3paxe49lmZmIi9Pzrdby+sHX4XQ5Ma7zOF1C5woDnURERERERAIDnUTNV32BTvqFLq5C6t1zETr3bzVejiRlPfcA7H9JRXwL6/Pw3qPBQOeB11VG59jOY3UJnSt8dJ2IiIiIiIiIiM68oxchflnNN8CbIv61AvEdvDPISU0XA51ERERERERERHQW1H0DvNsB6+P2Fxgb5+g8XxjoJCIiIiIiIiIiOlMY4zxvGOgkIiIiIiIiIiIir8eXEREREREREQl8GRFR83T8xx/x/pYtGD58uC4hatz777/f4MuInOI/vnX93GNGJxERERERERE1O1UnTuCLceOwpl8/XUJE3o6BTiIiIiIiIiJqdg5mZWHP4sUI6NhRlxCdITa9pnOOj64TEREREREJfHSd6OQc/uor5K5cCR9/f13inQ5kZKBw/Xp0uu46HPnrX/noOp0SPrreNDHQSUREREREJDDQSXRytk6fji433IB2YWG6xDvZX38d3z75JC4ZNAjHExMZ6KRT0lig0yX+G9t5rC6hc4WPrhMRERERERHRSfPx80Pr7t3Rplcvr176/OlP6Hz99fh561Z9ZWdAYQEK9Gb9cjB/6rqTaFetQPSrt7BuagxiYoxl2lqjvGDtNMzfojZPg+xzvhhVTTkvT8O6Qr1z1pz6vVAK12Hay5YRy33Vj+drOef46Pp5w0AnEREREREREZ20C+XB0JZduyLyrbdwzSuv6JJqTqcT5eXlKCgoUEtlZaWuaUgO5s/ZigC9V78A+PsGnEQ7bct8pHxttM55+QFkRi9Cenq6WBYhOjNFBSMD/H3hf9Id1ibG4utfZzwBfr6iX71z1pzivdBy3nVg/MND9F4B1s2Zjx9UPyGInd4bm3QA+LwRXyIyo5POPQY6iYiIiIiIiKjZsfn4oFVQEELHeZ5HMSMjA2VlZWqRjynLwGcNW+bXyKwsWLsU67a/iPEv/9eSVVidsSizLlX7qW/gJ1UnA5dmdqaZPSna6z7lMn9LAda9tQ7bXxovtnOwac8kTBvZHsePHxdLe4x4/jEMtQYjLWOKiTHGUOccMvvRbGPNipTcddPwxk5dZqqdRamyJ81xm9tybZ5PZ5yKMU0TdcZ4LNfn7msvVupjjKzURvoQ41jqcx0uLy5VRxesTUHmsEkYpfbKUdJ+CHpmrlHXfj7ZmNZ5XjDQSURERERERERksWvXLjX/4ocffgi73a6WoqIiXWvI+Wo3Jr0pMyvT8cKtIQi5dRxG9Z+ERQ9facmQNDMWc7AmMxqLZCbm9GFGCEwG7Pxm6ezM8XDMkQFR0R6jMEuWvTkJu786jNixozBg4iI8dE0AfOBERYkZcC1HSVEHdOqqd4WCXrfr/tIxa+RuFBQawVF13vQXEBss2nydiX5PGW3S3VmRhpx3MxGtrikBw3SZW3AsXqjRPgR9+v0AxwGxWbgVmb7RGBocgKHTdd9i/L6OwzLdFD/0Gy/KHkLI2qXYLa5Fjc9vqREk3bYDPeUx6npleLLhPoYccMDWozNUmFPcw5TMmzBtZPfq/MnyTgjpu1Ncu94/T5jReX4w0ElEREREREREJ81maz6ZaoMHD0afPn3UdlVVlVqbhtw2DB/dFY3o6GjcPGczykuq4IIT5cU12ymFBdjZNxjtZSZm+2Co1zgdcGDb6r+r46Oj/4H3tjtwWJb3D0ZH2a7MKe61D0qqXICzHDqBsabCzdicp7eFkM55eFb1F42/v2eDzX8I4qI+wt2q7GakbBJtRo8DphptoietVNmmhgIU2Psi+BKZLdoBwbXfNVVegqIagyjHoMhReG9jDgq+/hS2qMHoVN4VVZkPGn3f9QK+12GnASGdRJ/FyHfYMOxqIyP1skkpKvCK/sMwpL15vTI83HAfe/btQFhwF1Umg7bbt8/FPcOn4t1t8zBLPbJeji4hNuTKACw1Owx0EhERERERERF5YA101lbaYQRSVKbkIkzas8nzo9KFucZj6sE90HfHXuTK7by97rIBI82MTrk8iF/LcsFzLuAVGBpmBvOkAqyb8wSWfl29/84jWbjRHFN/WVaKjiNTjP51xmR5yeWYqM85q18mtrozH0PQI+wn7FWB01zs3aEKG1R6RSRGrdmENfu2Iax7J5RvEePzSTDO95TxMLmi53UN6gF8vEHdBexZNkkFXuXVVllnBWikj5AeffHTXqOPkNH62tJnqWzax24NUeX5e4EeMoh6vtj46Pr5wkAnEREREREREZEH8tH19evXIzAwsE4ma87c4bhZZUrejY+i4jAEXRGCeRj/sgNDon4y5rqc84kR7iofhNioT/CAtazzSIx1mRmdYpm4HHtkeW3dQoAX5RydpRj44CLclPmAnr/yAWQOW4SU0UZwTwYqh0bvxBTVXzJ2hwF79+dg3vCbdXbkRxh22xAUrH0Y/6PP+XfXOIxyBwTLMShuGD75s+w7BZ/oUrc6c3QKpQMROXI1Vq8ehaFXlgPX3IhLX7zHON96F0btzLVkjAJdbpmKYZ8Z438gMxq3X6MrrBrpozwoBLY8lfuK8pIilR16/HilyqY1HusvwL6dYQjprJqcHy75P8/hajq7bK4L5XVpREREREREv8CEXROwoPcCvUdE9cl58kn0vO02XNRfpQxeEJYtW4bhw4frPaj5OD/44AO13apVK5XV2b17d7Rt21aVSS3btIO/Th9zVZWhqARo3bYFfF0VKHP5oYWvTWUhqsfZjco6ZT6WPkQnKCtywr+tDypEXXlAa7T1d6KowgdtW/jCVXEcxaUBxjl0zNU4bzkCRN/+ziJU+OhzyDM4xaqqEvD311luLlSVFaHSz2wjOCtwvNgp+vSHs6gYpfKc4lw20VZGi5zlRXBPCWqOp9Yz9MZ9cKLiuDgeLdGmnT6fGIDT5kJFpQ0BPhVqnHL+Tff467veYjTch2i34z9zceKPf8RA2UYR5zX7KUzHqznX4oFh7Yx5PM8S+YIqOY+rJ68feF18hJ0Y19nzi67o7GGgk4iIiIiISGCgk+jkfPvPf6LHmDEXdKCTmraWRR/j0dQuSP5TdajTUIB1j61F2Jz70dcdoT07Ggx0HnwdThcDneeD+XcDIiIiIiIiIiKiJq+0w0ik1HpjvCEEsc8/iIFnOcjZKKYUnjcMdBIRERERERERkfeo8wZ4UzlK5CP4eo+aHz66TkREREREJJyPR9fl47J04avv8VZvxUfXiThHZ1PFQCcREREREZFwvgKd+7rEoVUnwKnfDdKQ3u0r9Napkb/2qTdGy9/+5Eqs1Quk3fusP1v1xz5fdcEFOpvDy4iIGsNAZ9PEQCcREREREZFwvgKdP7aLw/IjVShs56tL67fsuiozlnZKazp/9qevYEanF2Cgk04VX0bUNDHQSUREREREJJyvQOeXLePwxt4KFJbKVyjI0GT9vvur7aQCm7XXkrtMbJgZhzXWrD8r9d+vWs6MTi8gvxYvtI8TnV0Nfc4wo/P84cuIiIiIiIiIzqN2AYBfK7FRUALsPNHgcqLChdJy1ymv3dtiOWHuy7V1n/Vnpf5CpB7TJyJqghjoJCIiIiIiagpcTqCipMHlRJkMoDlPeV2itsVaLGqt983lzNU78N1rb8F+OsdveQuZnzjqr5frsg14qc2teHd3ffU195tCPRE1Q/xbwHnDQCcREREREZGXMDIFa67thyrx9AfFau2pvqG1zDo8s/U2tPexoXO99TXXNer9bGghlnrr1dqGINjQ3be++prrplBPRM0Qv/TPGwY6iYiIiIiImoQW+DilM448Kp9jBxbM7AzXzHZq2+TOGBRLxrZKPL72AJ785gQyL/ZVa7kvy63tjMxCV/1rlX14kvXfL0P2a8+I5VnkbJDZlzn4Qe9nv79V7BvjtL8v9kV5zoYCdfyRDQv1cQthzzf6O7JhgXHcawtEmehfBgbEYj3//rfH4OZAf7EE4I2NstyIH7iqRP3Gf6lyVT9+CfbXan/zrA2qn/3L4qrbzcqq1e8YfLBH9puFN8zjAuPwwW59vbWv39O6kXpqZvIccOjN+mUheUzqSbSr5hD9iv9H6hibmjrAXGKXiPMtiUXyRqNdQ6x9yONMJ3v8+SfHnizu3qkyj7Pev1ik5pl1ukx9TE73HNRUMNBJRERERETUVAQAl/RthUfRDrGBYr+NUWxyzwEp1rt/LsK3gZfAp8XFuLxFa7WW+7LcbCfnjTTXqszT+hTqD+QfQ/i9UzBlyhRMGh6Io5u+hO9VY9X+71p8ibxCF1zYA7/LZZvfIcjxHY4VZMDh6IOxos2Ue/ugckMGjhbWLKsQZcdUTNBy3tylWPRXHyzOFX1mJeHN15civ0LdBjidoj5qOuS7dV2uDUhaswr5uQ7s/3QVYlLzjfJ/DRX9OJD/Sc0yo9/B2CD3swbjmX+Jfjd9hjeRZJS5VuLvYZZx/ML7R81JFpIfydDbZ9DGZExcr7fdn6fGknZHIALvSEPCtbq6PjX6AFbEL2w+wbyNC2F/JAERsMM+cIO+d2mIDzbq7tRlGwbeiYUbAxH/bCgyLIFg8i4MdBIRERERETUJZRj2hQvw9cWfH22BS0TJjnXHjSpNZWiWO7F1XwU+c/rB5WiF8X0rMT6wTK3lviyX9UamodFermtneZ7O+jfX9cGPrz+Np59+Gs8u+QYXlQGhfTrgte9PoNXo+zE6xAUneqJvnxOirApVNhu6nTiCgLCB2CvavGYbiN4+R3BRrbI+oqydnM7S5ao+39G9+BjhuMhftPnVY3AtuwvhZS6d0Snqcz9DrMrMikQibLioTRDGPpqEFfFBRnbWLYvgKAvCvbXK8lW/iYiU+xGJwDt74T9sAhbH6TKx/OVDz9d/OmvyTk6nE+Xl5di2bZta5LYMhtWwMdn4vBKLkVk5G4nL7kTQzNWWrMDq7E2ZOanaj5mNbFUnamcax1dnGIr2uk+5JG90IPXZRPU5XF/WpZmR6ViSjFiZnSjOt7pGv7X7SMIGMbjImbVCnZbrsdnMDMhkJOu+kjeaY9NjzUvVX4Niqd2Xh8xIea3mNZjb1ddv9iHvV6zqt2Z9dV8ZuszMSm24D3ntQJQMBOfZkf14pNHO/JjYs5EUHSG7QUR0ErLtojQ4CqErm1Eg+ALDQCcREREREVFT8VoZfharsF/ZgKoq/CfdKDZVVhlLlVMHXMRKblZWudRaRQEFWW+2PZPLZ/7DcJ/MwpwyFuFlPwEdgZ1b81Xdx6v+gyWbjfMfzTXaS66unYAdW7BZ9vHTFuxEJwR5KjOaV5+vZyhikI0fcsT2mn/C5jcDK8w+nQX4/OHfYkCWzMzagCRVVok1/R9TwShX7mLEfJCHNlUeylS/1qy4BAzN7YQblxj7G2YAFcUF1eP4hQt5r9mzZ6N///5qkdulpaW6xpCVnm1kHIvPGyOzcjKS4hYjf/pg3cIqCwtXxiJffs49G2sU5aViNswMw8mwP2I+zq4/P8XnbHa6HfGPJKmsZCNrszogbw3+GbKB0flwvR2KLTliHKpfmbkYWKsP4doEcebZOrhqcASP12ORXwfZsKu6RCBajyUiA1GiLj8VSFvvQNaraYjV158fNtsdxDSIc74tsyirhYaJr2gZSBSjzng8CVHXOhA6zjhefR3n2I3rXxaOyaIsIVjcH/M6xIXOXlIoKvV4RPvwlRmifSN9XGuHHaHiPyHPjhUzjPudPzoNE+vN2gxE6EDz+k8TX0Z03jDQSURERERE1GQcR9oJY6vy0Ak8Y2zW0aejHyKdFbAFncArO/zwWmFLtZb7slzWm0HPM6ls7Sw897TM6HwNP4b9FpHX/QF99i/BobXP4+jhMNxijWqY2g3DiDA7joo2hz63o8/IYXB5KtPN3TrcgTmpwOTo1rjvrn8iKesJjNVVQHdMvCcGSREy2DMLX8StQO5+YOd0HyMAFHInVsyIwvWiZZ0y0e/fZlQHi6763z1YX7AYI/2M/cjHY3Drb7obp6Fm64cffsBjjz2msjn37dunyoqKitTaFDEuFmkhxudN3YzGWmQ24cBQyBkpEByKcF22wswwlJnJy2RQTojTgTmPagbpa3/JhYfKM0Rg/Og0BOnP8ZoByGpq/I+kGucUAoPt7mzSyMd1oTifyoaUxNePPF9gqBx9Iew5K3Cnvv6g+BU6iFm/wOtjARmc3JiBRNVXIALzzCxSmZmtmdcv7g9GRxn37NoEpN3RRWxYxqM03of7vos+XNONO2ZcQ/1Cw/DLAp1n4d9fOjkMdBIREREREZ1PtX4hnpAt0wBd+O+nOuJZj6C2bfGr/UfgLP0Z35WXqLXcl+XKWcgouukuY35OudwX2RHv7OqIQX/SZX8ahkN5XXD1fbehp2o9ECPuuwltD5ZhX+T9+rj7McinDDmeyn51G/74GxnI0ESb/bcs1wEdFyb2K8V6XItHXcsxOqgSZX8w69KwfIkLU4cCY58xA0Bi+cfVor2HMtFv139Ul2VN7A5cdg+yzDai/5vaVRpjoGZPBjrz8oyIl3ycvYbgeKSpz5l8LM7J8Pyoswy0ybUMbprZhpayGJ1haCx1A5enS87bqfpUWaH1BGHF+OeNTkNk/AqxIx81NzI21fXEGU3q1wWhA2PcGa1ykVmtDQqOQizSsDA9GzFhoeI+pCI2Pco9zhjdzE3cHxUYlduy7cyvVHENJ9GHed/lI/7m4+7ykXUZFJYBz0R9f7LSE3WgGLDvAELlHJ7kdRjoJCIiIiIiOo+e2FWO/TtKgcPlgIyjvHIYtvEHMewDsS33rYvFFd2BP13dHvf3CMDVByvVWu7L8joayy46yfr1P57AghxjeWOXDAZWYu33Yn+rWL4vQ47alwFJqQLLVRmQs7NUH1eKtQdVJXJ2WcoOiIK8Ut1nNXcb0f9yFWsSfeo+rMe/8Z1Rbx3fgh+NNxepMjm+2mW6nTrngTK8YR5nGaPbL71/5LW2b9/uzuisrXpuyCCkjR6PCPWItJyj046o0dlG1vAjabq1JcvSLAuOx2SYGZ1iqe9N7DLg18AcnXVZ5vkMSUPsuIh6+1CP2xtb1WO2TYR9YOMZjTUyWsVSs++6c3Qa5wASHwdirw8UY4pCbI6+/kfsCJcvC9ItFR2IVfdMXYeHKQEa60N9TIyywDvmIXalMV9v0I7JxmP8147HYn18JDboR/sdsOeE/7JAJx9dP29sLhn2JiIiIiIiauYm7JqABb0X6L1zY9myZRjz/jCguKpOINOT+dN1tiZ5jYu3r0ZcXKPpcV7l23/+Ez3GjMFF/fvrEu8nvxatH6cjR47gk08+Udv+/v4ICwtDcHAw2rVrp8rIi2xMRjISqucnbUxeKpLXRyGhkQzV2p8zVq8feF38k+7EuM7jdAmdKwx0EhERERERCecr0LmvSxxadQKcJ5EB5F9V/Ti7/FVOZiG5yV/tLPt16um8YKDTOzQUtCJvJ7NLFyK01suRPDv5tgx0Nk18dJ2IiIiIiOg8Kj4B/GdrFZJ2odHFqk4Qs9Y+g5xERFJgnTfA1+9U2lJTxEAnERERERHRefRzBbD/sBP7f6gSi1zXv5yuOg/y1dpn/dmtJyKic4OBTiIiIiIiovOoXQDg10psFJQAO080vJymU87+ZL3eMPzSeiJqZvhPwHnDOTqJiIiIiIiE8zVHZ9x11+k9uhAty8zkHJ1egHN00qniHJ1NEzM6iYiIiIiIiIiIyOsxo5OIiIiIiEhgRiedDTKj84bOndV2lxtvVGtvd6FmdA4fPlzvETXu/fffrz+j8+DrcLqY0Xk+MNBJREREREQkMNBJZ4MMdFaNGaO2r3ntNbU+m87Fr/iODz7A5Y8/zkAnNWsNBjr56Pp5w0fXiYiIiIiIiC4A5yqPqcftt19QQU4iunAwo5OIiIiIiEjw3ozOQqTevwShL/0NEbrklOSvROzSHkh7+CpdIG1G8v17Mf6l0QjUJWfF5hTE5t6BtD900QUnqdZxWc91Q8Zv9iOhm6drOb8uxEfXL0TM6KRTxYzOpokZnURERERERE2M49AB5DocqKio0CUNaQ20aKO3T0PrtkCb2seL/Rai/GxrK87TVoz/lBQi9cvLMG98qLG7OQWRs8RaDjdsAuYN+gqp+aqmyZABTgY5iYjOPgY6iYiIiIiImpCcHdtx2DUT3zrS8MwrL+N4UZGuMW1GcrdusMnluc26zCAzG1W5u05me5plKciSjTanuNvEriqUJW6OVROMuvtTkK3L3GQWpbW9zAS9fyUc1m251n3buk1QAUfHKnGcHEOtendfOxfpMj2+xvrYnIa0S29E4KFi0Vjci5FtsDg1Rh4JFB9C4NA+SFtR874QnTOFBSjQm/XLwfyp606iXbUC0a/4f6ybOl8cfRrMcW2Zj5gYax+nPpbzRox92trTGKl5nLr2GGN5Wd8BS9n8LZa2v5RNr+mcY6CTiIiIiIioCflhdx6q8Cs4q7YgY8NHyMvPR1VVla6VQb8FyE7NV/MxbmizwJK9WIjQv7hUucu1AUn2g3Dkf4W0wRt0WZJ6tD3ryx+xONdol2ZmRSqbsfDjeOTLtnM9PI4ZlVSzfdjlCH/vIOxi0/FNOnD7SAS2Hol56lwu5Ke2gP2IqGz7o6gT4101AfYVExGeJevzEftxmgpsrviurzomP/VHZMj4ZCN94NC3CO95sSiUgd2R4v+mIarSMiNbx54I/0Fcu94lOh1OpxPl5eUoKChQS2Vlpa5pSA7mz9mKAL1XvwD4+wacRDtty3ykfC1bi2N8/U/+OLcCrJuzBoflZoC/+L91WOoO5p3iWM4nMXZf/1Mdqbj2r3oj4dYQ8XH0x6Q305GeLpaHhxh1b+02yt6chN1vrUPBNQ9hvGPN6QWTrThJ5HnDQCcREREREVETEhoUhMxMB2y2VujVtYcK+FnZC3wQe21rID8fEQkrEB+mKxCKwJ1TxXE2sUQiUf66F3Y3JrsiddkoFRSN+GMs0kLkvlgS/6uPFfIPIntQCAJFv7gkBOG62O3oAUBlUWrFgxE14wlkbC5ExlobYiMuBrqVIuMWo++g+JWAr9E0PESMt2Ab7D8kIWqQ6D+/NeLfflwFXmNG32icU8aR5OPnDfZxCHa7uNJAI5szYxaQGOGPoHtWIvG3OiO0OETcib0qAEv0S2RkZKCsrEwtcj5GGfiswZINKLMAC9YuxbrtL2L8y/+1ZF5WZ0wWrJ1mtJ/6Bn5SdaL2ZZ1hGDMN61SSs2iv+5TL/C0yGLcO218ab2Qc1iHqp1a3N7IRrWViHFvWYP721UjQ4xgwcRaGZabo85k89COzG18WiywTx+aY49fZkO7rEUudsdXOjCxch2lm5qi5Ldf6ePP6C9aK4+Q4atW7+8pdqcv0/W2sD3HtmT2HoENJOQ7nvYsX7opGdHQ0nt1QKg4+DIdtGK665DiOX3IVhtkcOFxajMuH+lgCweRtGOgkIiIiIiJqQsIHDMC77+5Ez16XoqiiEq1bt4avr472CaFhQNonRhjPMX8kks1YZf6biP1shAqMunIXQz3MXXwIEQlGdqQrKwJp3xQCHeKQpjIm87HY/pURHJTCeiM8Z5eRCbljV91H1+s4ioioJCR+mQZ7WjhCOxYjK2kyMNc434YZuplUJQOToQgdmIiMDFkg2k4dhdQDsk4GHKo13Idx/fa9cisKCeo6ZOZnDJKyjIxVYCfs8lxqm+j07Nq1S71o5sMPP4TdbldLUa1pJHK+0tmA6el44dYQhNw6DqP6T8Kih6+0ZF6aGZM5WJMZjUUym3D6MOPJ5sJ1WOo3y8gwTB8PxxwZCBTtMQqzZJnMMvzqMGLHjsKAiYvw0DWqw1oCMHS6MQbZ3tdxWPS7FZn9zH4fwpBr4jCpv+hzbixC5CHOjhiRcBMy37XmLXroJ8AfP+zpjQRRNqvffCz1TxD1szDq/U3iaizXk74Ivd8yA7vaNQ+pe+IW3Af9fnSorNKCrzPhGz0UIf5DVd/ynIsm+sIh/j0I8N8t6hYhXYz18Lvz0e8po//oTCPL8vudPdUxiybuxiYZXG2kj4CCnegb3Anl4s7u2zlAf7xmwf+fcrw+4uPgQpWMX5dXiS2bCpKVBobAJq//l+Cj6+cNA51ERERERERNiMxkPHToEDIz7Yi8crD6fVk+RmsKHDMXsWuvVHNYBn0cj/FRuiJsJGK3XW9kak7agXDshl3Od+mvszcjXJh8VyiykloY+7YgpI2eUP2m9uLBGD/6HQTJuTFnvqMLLWrP0Sn9+gYkzZyJxBk3IqIYiBg1BHf2NM6X4UxC9h5r+2JEPLYBGGnMvxnZ5jHEB+kqi4b7ENffMxzZebLsqMpqVYt8dL1URk2F/DxkD+x5dt8WT83G4MGD0adPH7VtnUJCGnLbMHykMwRvnrMZ5SUyWOZEeXHNdkphAXb2DUb748dxvH0wVCL2AQe2rf67Oj46+h94b7sRCET/YHSU7cqc4uvAByVV4vPbWY7imn8T0LqiKvNBo4+7XsD3MswTPArjXGa/f8XKvZViVC5UFpXAyEl1oaT9CIzzecKSiemhH2FA1BB0EGOpdA3AsGs74Pjxjgju74MAeT3b5+JudY67MW/7bhRYv1RLi1FUYsmALR+EoSPfQ9aWAmz9zIaoqzuhvGsVsibK46Nx97zvIS5VsCGse3scL7Jjn30Uhg4S9+F4e4x4fhLkw+bmeMqdNvjISHKDfZTAkWdDSJAcRwhuSZmD/yezN8U1hPRvYAqAziEI27nPyD49XXx0/bxhoJOIiIiIiKiJmfHwFLz33k50uPgStV/jd+ZDbRH/tpHJ6Ho7DoFHuyL+rWmIKL5YrHV52mNIeOsxRIRN0NmbchFtDhUj4l/mvgtpt14EdLsdaQkyVewoAm9N08enIe2t22sGC2vP0SkdDTeyKqfpB91/PdXdd0LCFKTdEYrA25Yj4WqjGgeucGdhuhJ+DYRPQ9ptXVWVu11jfVw1FrH2r2rMwWmtd3yzF7H3DDZ2iH4ha6CzttIOI5CisgkXYdIemeXoQWGu8Zh6cA/03bEXuXI7b6+7bMBIM/NSLg9CfFUoJx0n2zIPs3xkpqU4/qlRRll5CS6fpPt8qh8yvz5olFupNjKzcRrelfue+pGcVTo4KsZUKbf0yOT1yOxV99hTcEuwUeVZKQZGjsLqr9Ygb3sYgjuWI2fuLPjoLNJZI3UzyWUEJnuEvYP1X8iCcnzx7F+xUs7XaxmP1HAfQFAPYG+e3NqMlJufwxeqOB97Rf9dxX8hyMBXMkBb+JXYkmWC/PiE9RB75I0Y6CQiIiIiImpiht/4W6yevxLxfxiNnsHB8PWx/upWDBToTMaCQ3pfZjNay8W+XIpFvZn1mK8zHg+Y+2KRc27KNgeOGnWHCozyArFWfVvUnqNT0VmV5vGyjdn3Ad1e9qmr3e3NY6x9mu0a6+PoRYiP3oeJ1uxSsz5/JSbujUJ8B7Mx0S8jH11fv349AgMDVZaxVc7c4bhZZzR+FBWHISpwNg/jX3ZgSNRPxtyRcz4xnmIuH4TYqE/wgLWs80iMdWdeimXicuyR5bV1CwFeNOfofLfmnJS9bsSlL95jHL/ehVE7c9Xclg//j+5zKjBu9CCEhInjzDkytdLiyxA7cYCxc42Hfowaz9T1fKQzOuViBhE1D28vL70iEqPWrMZ7I4dikGg75IZLMe9u4/jPXKPwU661fTkGPTgLPv80rvUJv/GI7aCrLBruA+gSHIYd+2TZEDz0lD+eUPftTfR4bCS6iP9G3tsXL/5ZlP35UwxTZcKBXNhCutQIqJL3sLnkn8mIiIiauGXLluktorNPzslFRM3PhF0TsKD3Ar13bsjvb3HXXaf36KRd3BnwK6kOkpradARaV1YHXpuAZZmZ/L7iBeTX4vDhw/Ue1HycH3zwgdpu1aqVyurs3r072raVb8wytGzTDv76bxCuqjIUiU/J1m1bwNdVgTKXH1r42kSFC+pxdqOyTpmPpQ/RCcqKnPBv64MK+Zh5QGu09XeiqMIHbVv4wlVRBpef6N8db3WhqqwSthb+Rhab0wmnzYWKciBAtDeaOVFxXHydyPPYRP+VNgT4VLgfKw+QY/JxGudtV6sfS9uWbdrCp6IIJeUB4jL84SwqhtO8HsU4j/vp+pZt0NZyHkNLMQxxDmcFjsvn8EWbdvri5fQcNnHfyuUcpc4i/Zi+bq8aiGOqfN19ynGrdmikj5bHkfF/G3HZH6PR1X0+ed/ktcj6umU5C19Dq0l/QliNsdclX1BV39f26wdeF3fEiXGdx+kSOlcY6CQiIq8gf/jc1yUOrTqJH2LcP9zVr3f7Cr11auS3RfXXevndUa7EWv3x3r3P+gu9/vjn7/AXUqJmioFOOhsY6PQOtQOddKEIQOsfXsJDO3+Pf/3emCajQVvmI+HA7XjmpnbVQdt6NBjoPPg6nC4GOs8HBjqJiMgryB8+f2wXh+VHqlDYrvrNs/VZElkp41ZuOo7lVt++j4+1lJqj/ekr+AspUTPFQCedDQx0egcGOi9gHrNL63EKbZnR2TQx0ElERF5B/vD5Zcs4vLG3AoWl8vGShgOS3z8k6+VihjBPbu10uqr3xIaZ8VdjzfoLuv77Vcv5CylRM8VAJ50NDHR6BwY66VQx0Nk0GRMZEBEReYF2AYBfK7FRUALsPNHgcqLMJRbnKa9Ly8W6woVSsZwQ22pfrq37rL+g64mIiM60PXvKcOhQpd4jogue/Ms6nRfM6CQiIq8g/8q+7aI4vLSvAvu3lQA/N/w4yeezPbyW8SRUWTM6LWtT7XLWX3j1jo9WMvOGqJk6XxmdzCK7sMmsrylT+qJtW1/885/dMXr06f2MQmcXvxbpVDGjs2liRicREV2Q3NmZlnX+z5WY9cEJtfZUL9dquxx11jLbz1P5ma8vwI+py7Cv3nrPa1X/7TJsXl9Qf725n/VvvJKl97P+hYVZpzI+63ojXung/wuON9b73xqD65/Kqrdern9J/6daT0REdKaVi+8vOTkluOeenVi37mddSkREZxozOomIyCucakbn6icvcWfsbct3YavjOH6q8sFepw09fFzo6+vEoMB26B9kq5HZV1nVwLdFs2F9zkj9IdjWfoa2v4/BcaO0WmPHO1Zg/+Eb0G1AR11Qizp+I5b1vAGhGWUY3Me6bdbLhvWoU78JX/W8Djjt4w19ugTgMvHxeNdReVrHu52h+rIv+NZ1ouaKGZ10Nsisr/btb0Z09Ha1f8MNF2Hs2E5qW7rxxovQq1cLvUfni/xa5Pd/OhUNfc4wo/P8YUYnERF5oRb4OKUzjjwqJ+wEFszsDNfMdmrbJDM0T5TLuTed+HrfMbzj3wrflrbDsZ8vUWu5L8ut7dTanL/R01pm/XkqN9cnU//jcmxb8pxaftpUqMoPZBj721KX44DYl7G43bpMtpHHH930iqiXZa9gX6HR3zFZpvp6BXmirFQF8Wqed8tzLTCqp7EkpzmQv2IO3hStZka1wKvPVW+nbnLBkXabbnsbPsoVx2/6N0b9+TYkW46X/W41+/zzM9iiTinOJ9v2MMuXIr/CgY/+LI4Rxxt9/htb1f0xys2yLaK/z/8zGrZ/ZKr7k7+i5hhOVGzEErUvlh56XJbrq7E+Ex8fsSYiIjrTZEanlc1mU0tRkRNz5jh0KRER/VIMdBIRkXcKAC7p2wqPoh1iA8V+G6PYJINXMnBVeLwKPzp94Pw5AHeG2fD40Aq1lvuyXNbLdmZ7GfAskUHPs7Q+XHAM4fdOwZQpUzBpeFecKMjAiRPhGCv2pwz3wYnNh+DEHvgPlG1+h6DC73BMtDlS2Mdoc28fOL/IwHFRdthS5hJlx5ziwl2uGue7/SmXKBJLVhK+/O9n6HnfZCSJZklZLiyZVb39Uv8lWPrwYGxQbQfjhaeXIP9iP2DdYMwSZfmpMep4x94lWD8nBotzRbsXY9UPEi6nON+wx43zuDYgad0qHNhrw6/Ex6Tbnf9nlOFJHP7SCcfKv+GFNouRL9pumPEkMlfmo8clopeLfFAi+n6r1hgcX36GpeJoVeZagWlhDd/fM7EmIvI+BVg3dT5y9N6pkcfGICam5jJf/SXrVJ3GOArXYdrLtY/Iwfyp60RvZ9tpnmfLfExbazlK7MfIa/B4LYZ7792p1i1b+uBvf+sq9jup5bbbOqJ9e/H9loguLPJJITovGOgkIiIvVIZhX7gAX1/8+dEWuESU7FhX80FvFbQUy+pvq7DPJb7dFfuhR+sqtC+rVGu5L8tlvWxntq8UVWdzibq+D358/Wk8/fTTeG7pFlRW/gy/sIHYnXMCC3rchj/9P/koW0+E9Rb7OVVw2mwIFW0CzDaugejj+zM6eSozLr3G+T5b/qSRNRKRKO6XD5y7nCgVbUqPn8Cb26q3l+3KwydIRKTZ9r08tJHJJ3G94CvOsScwXB3ftzgPHyIc7XzFeQN64dfyhKJdZe5nGK2yUyJFLza0v1gV49fdOonrCEHXOKCNGGCbo6uAgT2xR/TZ4R8uvPdAd5ihxUrRd50xDJ+AxXG6zOaDv3xU8/rOxkJE5H0CEODrL/8GeBpCEDs3Henp6Zg1cgAmvWlsP3SNrj4lpzEO/wD4+tU+IgD+vqIvvXf2nM55CrDuq95IuDVE7+dg/j/XAfIagmOR0HsT1hXqKosOHfxw5ZWt8cQTfBkRUbNQM4mbziEGOomIyDu9VgY5lX/Yr2xAVRX+k24U1xbdzwfdXE6gTSV2Ffmi0M9XreW+LJf159J6/2G4T2ZhThmL8PKfUBbYCdixBV/Lyu/eR8rSn1S7Y3lqZbC22bkFO9EJ3TyVyW2rgrfw4l3+OkNS5m5KvdDTPZWQZTs0FDHuzEm5JOB6WS5+SDsqVjmVckdQ7bLx43di+7td+EoVFuCLyb/F5VnyOJm9Wa2iUh7oQpn+Ya9/3xhg6y5kiu3XHrWhxZTPjQrJ0xjyOuHGJcb+hhniQ33i7Of3EBGdT/Lfu/LycuzYscO9VKp/S61yMN/MvqyVQZjzsiUzU9VZMzZ1tqXMQNRtpq3NRUnRcRw/fhyV4t9qZ5mxvfF585hpOnBXM/PTyGj0PI7P9RjMrMfqMZl9yUzKaZgmyuZ/r5ooBWunGe2mvgHju6FF7SxKNR7r2MT2tnWqzxrnkseJOnXtMuNS11f3tRcr9XWpLFZLG499bFmDzJ5D0KHEmCs85+Un4D9xEgbInfISdLimJzLfrZvV+emn/fHJJ/0xdWrt79bG9zi6gOQ54NCb9ctC8pjUk2hXzSH6dctLRawtFqnWnxdNsm5mlt5pQjYmI3bJqVyxVuO4WvdN1JnTQNj0NTuWxOoyfX9O97zktRjoJCIi71Hj94DjSDthbFUeOoFnjM062rXwQS9XFXwuKcdbu1z4d1aAWst9WS7rlXP0O0bZ2ll47mmZ0fkafgz7LW5qNwwjwuw4uvZ5HPp8DwZGX6pbWtRoY0efkcPg8lSmm7tddjP+ZmZDPpWNmOV27EdXdL0cSLq5NdZstWzb78DfZpiZkzZc9b97sF53U0OHOzAnFZgc3Rr3Pb8SvqqwOybeE4OkCHnsLHwRtwK5+1VFHX6xc7HYdg8mD2qNp+YlYcMz1+kaQfRdZwwFizHSz9iPfDwGt/6mu25MRHThysjIwK9//Wv3sm7dOpSVlelaGRBcit0TFxlZmH5LdbBPKkBIvJGRmZ4+C6P2FKCgcCsy+83SZQ9hiGiV89Vud+bmC+7MRIvCdVjqZx4zHo458vHuAAydrvt+cxJ8HYfrGce78LlBtpuFfplbxfk99+X/Yz+MF2UPDVJnFHKwJjMai2S76cPqPvV5zUO1xhqCPv1+gOOA2JTX6BuNod2HIkGdJx2LJvoadQH++KHfeFH2EALenY9+T8n6RYjOXGMEfbftQE95XeKadn8lSvwb7iOkYCf6BneCCnNumY8nxLVNvLp62pPyjiHoaxf3Xe+bgoICcMklfET9wpeF5Ecy9PYZtDEZEy0/mDnWpyF8RjjS1l/oATwHUtNDMe+OQB3clU8OVXPYYUynJP9APj1ClGRhYXy4/iN/OO58NQu4NgGTdywUNecYH10/bxjoJCIir/HErnLs31EKHBa/XojfKSZsls8Zu/DfT06o/RqLRb9ObRF9vBj9/I6h3SU/q7XaF+Vu5g8jjQU8f2H9TXfJbE5juS+yI9YfLMO+yPt12f0Y5NcRV993G3qq1gMx4r6b0LZ2G58y5Hgq+9Vt+OP1XdSRysHOuElnQ7rSlmOJzJB0VeLSKUbZq7+3bA8tQ9d/6LZiyZrYHRj8GFxL74B6h7u5faAM+29ZbrRbmYa3xPrRwZUo+4Muc6VhuTjn1KGBGL1U1smDq7dzdnbCjWLbaPsYOvxYgY5x4tjHrhXj9TCGy+5Blt53uZbjpra1s5pqOcsfPyKis62wsBADBgzAtm3b1FJVVYWKigoUFxfrFuLboMOGYVe3V5mXl01KQWywrkAIuux5FtHR0WL5O94R39wCgkdhnOvvuuyvWFkIDLltGD66S+5H4+Y5m/WxFgcc2LbaPOYfeG+7A4fRFVWZDxpld72A78Wvkp7HMQpDr5BZoeLfa5sPAjz2JfQPQSdxXLH5z3phAXb2DUZ7UXa8fTDCdLFbaTGKdBaloRyDIkfhvY05KPj6U9iiBqNTpyrxvcO4rrvnfS9PrwwI6STGswu5djG2QXJs7THi+Ukq6Iv+wzCkvSgrc8JmCwC6NtRHMfLzbAgJ0tmcX60DxLX9z73z8P3qaUZGaHkX8VHINa6RvJrT6VTZ1ebXotyWP4/UYMkolFmDjiWzkbjsTgTNXI3UMck6uFadhejONhwzG9mqTtTONI53ZyDK9rpPuSRvdCD12USsiA8S20a9DOZFTY9C+MoMd3aju59H0owCmck4Rp5PjsPSp5kRqQKHuqx2BmjtLEjZ1nqc3LYer8fuWCLPqc9hqXf3tWOhLtP3prE+Ni5EWliU+ElSlOeFYl6tJ4fsOxJxZ4hxvLo3eXZkz4iCDHni2igk5djVmCOigdnnOquTP1OeNwx0EhGR99hcBOwqlcmcxvL8YfFD0EEMkz/PmWXmYhHaERjery3u7NkCV57wVWu5L8vraOyvr7+wfv2Pcu5NY3ljl/HbXY64JqOsFGsPVWLt96U6m7ICy78vUxknNdocVJV1y/JK8YbdGgiUfenziT7fEO3Wi/GZY1gufpj0tC0XNTbR3wJ9fve2ON59XtWncax1LG+Icy7PM84t68xxqG2bZUxyPKJIHftjhWxYdwwHy9Q5zPZrD6lm9TvLHz8ionPFGug0/wBkCuoBfLwhV23vWTYJKZvUJlD4Dh7deKPKRpQZiubj1JdPMjIU05/qh8yvC1DaYQRSVNbiIkzas8n4d94quAcGjDSzMOXyIH69ZR5m+STofkapZp7H4YJTTgBt8tSXrqoRBxDt+u7YC9Vb3t66j657UHpFJEat2YQ1+7YhrHsnbJ47Cz4663TWSN1IUvcuBD3C3sH6L2RBOb541gj6ylFUWeKnOQ32YVzzXvW9DRjyV31N8l6LazTmNc3HXvRAkGpB3m727Nno37+/WuR2aan1kxvISs92ZxSm3RGIwDsmIyluMfKnq7/01pKFhStj1QsZXc/GGkV5qZiNDfprfDLsj+hgojmVT+5iZKfbEf9IEmJS85FwrajamIFEFcyLQNTAO7FQBfgs/TwSjhWqD2DFwMmiLAGhS2aL0xvjdD1ix0QZlJVZoWaZyoa0uDZBXY9bcCjCl9lhF5vyOIyWwccozFPjli+tBOzq6yJb1OXD9XY87K/eqfvPR+xKI6NyRY4MVsr22chQQduG+4A9G+GhxjgCr41QAc9qDthz9AsyXRuACDOw7IEYP3bI0VNzwEAnERF5jefu6YD/TO+M/3uy8cUT+Zh6zCC/6sfViYiImqjt27erRQY6a+tyy1QM++wBNY/kA5nRuN18cVDwUETvmmJkTybtRhj2wlG4Dg//j5GhGD0VGDc6BDlzh+NmlWF5Nz6KijMyG606j8RYdxaoWCYux55rbsSlL95j7K93YdTOXLjqG4eVp750VQ3lgxAb9QkekHNjzvmk7t+d6szRKZQOROTI1Vi9ehSGXlmOITdcinl3G+f5zDUKP+Va25dj0IOz4PNPY/7NJ/zGWzJhqzXch7j3wWHYsc8oKy025jOV2aBwVaJYxsAK92FHWAgsz1eQl/rhhx/w2GOPqT847Nu3T5UVFRWptSliXCzSdEZhnazI2mS24cBQI1gnA4e6bMXjkTqjMRKJOpiIuFCEyrUHWemJgD4m8nEgMV2cV/SDMH2E6DvG2EKMLrPvWIFENcWQWCISsWKHXQVlYZaZ2Zr1ikDUjERkbHQgYyUQe724CvH1kyEzL8XxQfFmaBU6MCmDkEmIkoFZccXxbyeoLMsYFSC1aLAPOW4g1MPXqUH2m4Z4VS/ul3sOeg/k/dbZnXThs7lk6JyIiKiJW7ZsGX5sF4flR6pQ2M6YGbIh/+xRIr7LVf+aJL/dyR+i3OS3v4bqqdm6ePtqxMU19NMyEV2oJuyagAW9F+i9c0N+fxs+fLjeA0pKSrB582Z35pi/vz969uyJLl26oE2bNqpMvi28ddsW8JXftlxVKCuqhF9bfziLKuDjLneqmVyqyl3wa+GrA4dOVBwvBtq0g7/+m5+rqsz9SHjLNm3hU1EEudvS0sY4hxP+7fyNTBmn6NvmQoU6r6dxFKMULdGmrY9oUwIfT33puvKA1mjr70RRcSkCWrdFC9mZ+J7sEmMtl/X6MDEgtPWpqPX4ujlO47pKRZt2+kTysWObS7R3+luOE2NyX0MF1K2oPY4q34b7aHkcGf+3EZf9MRpdVSvBcg0FH7yK74Y+gKi21Zl/77//fr3fVw4cqMS8eQ48+WS90Rw6R+TXovXjJAOcMpNzxYoV6N69Oz7++GOMHz8eXbu6P/IWDqSOWYjQt6OQMcaO8Wot9xMQIR/PfgSY93YoFqq6eASaZc8CE18NRVqNjEr5qLulnayPzkCsfTzSrhdr1ZeoU231eZ8NxWyzH/k4fXoUXOYxdwSqR+YXhqYZGaEeZM2MhX2cGTSsh+oXSHociHIlAJZj5GPzGdEujLdXn8csM7ZF2yvCkVZcczxR6Q33UXfclnsjt20ZaiwR7nJxj80y8z7Ie2Lex9qZq79Q7c8Zq9cPvC7+FXNiXOdxuoTOFfPbDRERUZP3cwWw/7AT+3+oEotc179Yg5hSnSBmPfV1/v5Xa5/1zayeiOgca926Na6//np3BuSNN96I0NBQS5BTKne/Kf24CgbKfRlctJYXo1iWlZegSO6rRbaxZCKKxRo4LC02gpzGdnUb4xylKDb3i2Xf5nmtbcxxqB50m3r60nXy0XoZIDQ2i3SbIhSZ9aY6c3QajL71OUUb8zxyTlPVvsZx1mtQd6LuOBrro7QjRgzNQ4o1u9Q8tnAdUvZdhxEdjOuhC4PMrDYzOmurnl8zCGmjxyNCZhZCztFpR9TobOMFi+acmaJ2/Og0BFnLguMxGWZGp1jqy6yUj17HB2Haq+Zj46ZAdZ7Z66Oq+3k2253RaaqRvSkWYz5R8+3kNnHk5JpBztpzdEpyzsvHE/Vj86K76HD3/JgZSEK2vWb7iOnycXJL/x7SnBvrIzA0vE5ZtQgkZEG/xHI2Qp+VwU9xj1P1fReD3GAGNq0Zr+dKrV896NxhRicREXkF+RfTbRfF4aV9Fdi/XfwCUdTw3+rmP8C/5dHpYUYnUfPVFDI6yQvUk11qzey0Ykand6idnXfkyBF88sknaltmVoeFhSE4OBjt2rVTZXQuOJA6MwNR080M1tOTNTMZmG48Pn8mMaOzaWKgk4iIvEKNQOe2EuDnWr9c1DL/r5Y3qp+C4I6+6q/K6g0JciXWcrd6Xz/izvoLtv745+8w0EnUTDHQSWcDA53eoaGgFZ1HMrtUP4J/Wn7p8Q1goLNpYqCTiIi8gvpB4rrr9B7R2bMsM5O/6BA1Uwx00tnQcKCzAvPmFTDQ2QQw0EmnqsFA58HX4XQx0Hk+8Lk+IiIiIiIiIiKiM4UphecNA51ERERERERERETk9fjoOhEReQU+uk7nCh9dJ2q+ztej6/w358LW0MeYj643HfxapFPV4KPrnKPzvGFGJxERNTuO/EJjQ6wdxtYp2ozk+1ee5rH12JyC2FV6XKb8lYh9brPeOYs8nfskZD03Aan5ekfIeq4bkuVwT7M/IiIiIiKiX4KBTiIial42p2DiN63lBpJnfmWUnbI2QIvTe6t7vdqKPtvKcVm0FudoI8rPNk/nbkz+SmQMmo/4ML0v7mvkLLGWtyUqCZML0pClKoiIiKh+Nr2mpuD48eNcuJz00iB+aZ83DHQSEZFX25G7G1t/+gmlZWW6xEJmRHbrBptaZPZhIVJffRorxl+Kac8tQOKqCQiSGZPWdjqD0iHqjOPEorM33WX3pyBbtTKyGN3t1LGbkWzui0VlOFrLZJvNKe7zqHPXyg519zltpS6pVjuLssbx5rbs3zxftxQVcHSsShF1Yl/Ub3Vfm6WvnYv0PTDaqzE20MfqFekIHdoWKFaNkTyyDRanxsgd4OgBRET7YzazOomIiIioOeIkkecNA51EROS1Ptz4X/S68lG0CvoY8Y88iAOHDukarfVIzHO5IKejzk9tAfuRUMQ/moSY1Hz8+99/R1LcYuT/KwpZK9IRm6vbDVpgBCfbtlDtZNmGwenIyN+MhR/HI1/2N9eci6cQoX8xjnO5NiDJfhAOme2JJGyQZbmLkf3lZjhWLUC22VebBUjt9yAW278ygoffpAO3j0Sg6k/IX4nZbTYYff79KqzQxaaIf71XnUUphV2O8PcOwi42zb4g+jfGJM4340fYZTCz7Y+iToxh1eV47y8RenzxSFthBFxXfNdX3av81B+RIYocDfYxEsd+uAqhHVWUE1nPiXNmTUNUpeUnui69gIIDeoeIiIiIiOjsY6CTiIi81sHDRdix6yZUVX6HnJxNKDx4EFVVVbpW6FaKjFtssNlsCIpfCfgWA+VOoPI4UFgOuCqBAz/B/sMq3Bmi2939DrIPGZmI4cGtgfx80c4GHDuI7EEhCJT7l4QgXLUIReDOqeo4my0Siea31bgeCJXtikT/vm1gL/BB7LVGXxEJKxDf9SJEjd6KjM2FyFhrQ2zExcZx0pGDQJ9A47yde0LnSFY7UKCzKLXiwYia8USNvgK7bkeyGpMNkY+LNvqp9PAQsfHNLmTPuBERsv+L4pD2ZJSqixl9o3FtYsjy8fMG+yj4AXb0RKjO5syYBSRG+CPonpVI/K3OCO3aE+Hf5Z3ZeUyJiKgeDqSOSTb+/T0dG5PFv/fW47OQPCbVO/4NF2OPXXIaI611XNbMWKTm6R11P4zvgckbjf3TOgcRNV98dP28YaCTiIi81q033YQpU75E1sZ2ePT+RxAQEKB+KTFlJU0G5ppZibqwjlCEDozBYp3RKZe0O0KNqipLRDGkN8Jzdhm/9O3YZTy6nv8mYj8bYRyXu7g6KCn2rULDgLRPZM6l+FV0/kgk/7cYgRGxyH71caTZYhGlMyOVHuLcO3Ya23vtdTI66zqKiKgkJH6ZBntaOEI72pF6Vyai1LXkY7H1RZDyesLEdTz+kfHLbPGHSI55zbimqlL5/1phw32gj7hrdpVFCkQhQbWT2aAxSMpKQoQslvdoYO/qTFUiIjop8t/T8vJy7N+/373U+CPeWZOI2c0mmOdAanoo5t0hv0vJILH+o54i9p/NNn4ukE9mPJsKx7UJmLxj4ekHkhvE51uJLkj80j5vGOgkIiKvJQObR44cwXff7UOvbiFoIfblL4imiFFDcGdPIyMjw5mE7D2FQPdewD2XInlzL4TiXgQ9919E3BODNJ3RqbI3PrQEHk0VgzF+9DsIknNWznzHKAsbidht1xvHTdqBcOzWwb+aAsfMRezaK9V8l0Efx2O8TKLs+BvE+ryL8IfjEGg9XdfbMNkWbcyN+X/f1MnorDNHp/TrG5A0cyYSZaZmcSiibt+KSHUt98N+OWDfp9tJxYORkOWLSDX35khg6gQPwchG+kBHhA78xnicHUeN7FOVDSrufal+XP3IXqB3iLFNRESn5JtvvlHf38wlKysLFRUVulbKcmfd22bWDL9lzdTl7jojkGeU6axNS8aimakYk7oBsSsnVmc1KtZjzbYy2zNZLLIsFqkbUxFr6duxJNbdXmVDWtXOjMwTx5qZo+a2XOvjVf9iPI4l4jh5vlr17r52LKwxBtVXQ31sXIi0sCjj+1+eHaHPWv8gKv+QF4uoYLEZHCW2jD/sRUSjGQWC6RcpLECB3qxfDuZPXXcS7aoViH6lnJenYV1D06BvmY+YmPniDA3QYyxYOw3ztxhFv9jp9CnGOm1tfXdB9Oe+zgKsm1p9TdZzNHo/qNlhoJOIiLzafWPuxKFDldiTv08FOeUvNW6/nqrK5JKQMMXI1Ox6G9LkflRHxL8l6v4VBXSIU2XutqIo8LblSLja6CYiYTniux1F4K1pRpu0NKS9dTsCiy82+lBljyHhrccQgWvEWtTJA7vdjrSEa4BDbRH/tm73dhwCj4q64h9gX56EqCv1vKJXT0PabV1F+SFxPt122XLjeIs6c3RKR8ONrMpp8oH6YjHO5cbxrpVIeExcR4T1esTJB03T9eJa5fnNcwtGu8b6KEbEPeJXv29q/lRpvWdZn9kweUxHY4eIiE5afn4+2rRpgw8//FAtffr0wZ49e1BcXP1XMceS2dVzP2O2JTjpQOg44993NXd0jh2OvAykDdRzP7sSVNZ9VrrOWBRlaSqrUQpF/LOxSHu1ZuA06lndX+5iYIf+c96ybBUcdGWF485noeZ43jAjERkbs7BwZawxn7UrX7Sp9Tj9tQmW8wnBoQhfZgQSHevTgNEy+BhlmV8bsKtryxZ14nrfjof91TsRnmX0H7vSyLJckROq55nOFmOQ7RvuA/ZshIfqcQRHIEIGNRsjxuq+fqJ65WD+nK0I0Hv1C4C/b8BJtNO2zEfK10brAD9fBPirTY9yvtqNUSN3Y1O9wcYCrJuzBofFVsitL+Chmj9qnqbq6z6lPq95CC/c6vkP4wVrU7DGnO59yxo4/vgQhojNnJdj8MCCH+Cvb96Qh8fD8W6DYV1qZhjoJCIir3Z3bBxe/ddi3B9/F3oGB8PHx/Kt7aj46cjMNjwgtg+JXxKLDxn7R8V2gSw/Wl1mLjIQeajAWEvmvJiyTNYXiHWBDFDqPlSZ6F+9fEccpOpktVjL/mu0k3XyLezR4pfUexFhnkOOVY5POmC2FedRx1vUnqNTEW1ke7OtOc58ebxYZLH1eqz3RZZZz222a6yPDnGI2vt4zexSs35zCmZfOg4RZp9ERHTKBg8erBY/Pz8VsKuslJMoG+w7gNjrjUBdxPQ0xLsDdYEIzDOzNeXc0UJwPCYjskZ2Y8S42OonGawZobptdSamOMd6naEZcmf1dCpxOuNRiFHBSTlNSwxQaEf2sjsRpM4VhDuXZesgY30iEKUCpA5krNTXJPrN0FmkQfHVE7gYgUkH7DlJiLpWlgQi/m0jcGuOwa3BPoz7F3oywU0rGZSVgWO9S83Hl1/Kxaa+BuXXYg0qezJGLTIzsWDtUqzb/iLGv/xfSwZidfamzERU7ae+gZ9UnRG4M/owMxNFe92nXOZvKcC6t9Zh+0vja2ZK1jq3UrgOS3cNQ0zcMOz8ygz+Wfp7WZRtWYP521cjQYzp6+WTMOcLmS1pnrt6u+64qtXOoqy+7hzkqj4t1yoXef1yvPL8khjnNFn2xRxMWp5bt60Y85oF27F6ujyPvH4fXDeoGKWiPOCGdCyaOMDoRygtvhzX+Yjz1xojNV8MdBIREZ1zxryWabEX6X0vJDNPE1fWzS6VopKQNsaLr42IqAkwA52+vr66pJqa+3m9EXKTj4q7A5Pyke30KBWMsc4dHTHdyG6UGZjquOB4/SRDPhbnZNTIuoyYvkH8nw6SbkzGRMzTxyap+gZ1CUV43GKd0SkXaxDWs4joJCSmL4R9WbgKPmbNnAjoLNK682sHInSgDIwae+oFQh6CGw33Ydy/+gOwoeK/NGTIepkNq/blth3ZA0NrBlTPCL6xpCk7csSGr78ux5YtFdi7t6jOfLkye3LSm+lIT09XmYkht47DqP6TsOjhKxHg668zNs3szRysyYzGItE2ffow4yMvA5N+s9Tx6enj4Zgjg3yiPUZhlix7cxJ2f3UYsWNHYcDERTUyJWufWyr4OhO2qMHo2GEwhu0ygn8yCLlbHCvbzfITZb3iMKm/6H9uLIL9feEfEII+/X6AQ/69vnArMn2jMdTf07iqDXn4BcRavrarr3sIAlSf4qrFWo5ZnbdfJrb2uh2T9mwSd8EYp2/0UIQE+MNXNK7TtnAI4iYOwKin5HkOw2ELQWc1nfwQXHHFcfVu0Wql6NzDZoy/KeGX9nnDQCcREdE5d9TIlvT2jEeP2aWCNUOUiIhOi/noek5ODjp27KiyE02Bd8xD7MogI2NxZSzGqwxHQc4pmaOzNx+xI1zOL2mdrzICmHxHoGUezyCkjR5vvETOLQLjU3WI9NoohMcb57Glw3gU3qiphzh2dJrO6JRLrUfXPb29XJwj6fFEJM6IUuOIiA7HnTrbNANJyLbXbG8EYo36SExGfBddYdFYH4Gh4XXKqgUi/hF9fEgaYp+NN4KbeXYgTL+skJqNuXN9kJ7uhw8+8MF//hOgXhRmNeS2YfjormhER0fj5jmbUV5SBRecKC/28AKxwgLs7BuM9seP43j7YKi/FR9wYNvqv6vjo6P/gfe2O9Qj5egfjI6yXZlTfB77oKTKBTjLUWx5d2TtcwMF2PrZNnw/byxGjBiLudu2IfPrAhx22DDs6vY4Lvq7bFIKYjtXihG6UFlUItZSOQZFjsJ7G3NQ8PWnKlDaaX8949JKi4tQYrkV1ddtfbml+JLpbpy30mWDj7MjroraiU1b5DhtiLq6kzhztRpt/UtRKQbnqhLnyduHHWEhML7US1Fa8xRKl+Aw7NhnDcU2AXwZ0XnDQCcREREREVET0aFDB9jt9hovI+rXrx9atmypW0jysW2dNfm2DMSZj3FbyxOQIMvc2ZtyMR71dmd4ikXNmVlr7szAO9J0vxHGHNBymS7702VqLViOk8ckXKuPNY/R53OrPUenos8xXbcUbczjE8Q5ZXuzb4N1TOIYD2NotI9rxyN2R0aNoG2NKQDcx1eXZaUbQWJqXv7xjxL8z/8cw+9/X4QHHzyoS6uVdhiBFJX1uMidrVhHYa7xmHpwD/TdsRe5cjtvr7tswEgzc1IuD+LXslxoLE5W59xb1uDFvta+ZqHvZ1vh3wP4eIM6K/Ysm4SUTWqzhtIrIjFqzSas2bcNYd07obyBcZ0SlzWUWY5OVw/DzrdS8KktCoM71gwa12xrYb1v9cjd+xP69uBLMMnAQCcREREREVETIQOaI0aMwNixY9Vyww03oHfv3uoFRXSmBCI+2o6JJ/sW9Y3JmB1WO/OVmoM//7kdFi/ugDfeuAT/+Ed3lSVslTN3OG5WWY9346OoOAxBV4RgHsa/7MCQqJ8wTc45OecT4ynm8kGIjfoED1jLOo/EWJeZOSmWicuxR5bX1i0EeLHmHJ21zx3w1WqMirxMZUUay2UY2vdFrA+eimGfPaDmv3wgMxq3XyPGGPaumiPTHbotHYjIkauxevUoDL2yvNFx1X3TuXndHkO9buUdB2OYbTv63jsCneqJa5q6hoTh3QRxnrwuou/cGhmltR3OsyEkqJEOzzU+un7e2FzyT1VERERN3LJlyxB33XV6j+jsWZaZibi4OL1HRM3JhF0TsKD3Ar13bqjvb/w354LW0Mf4wIEKzJtXgCefbGQyUzrr5Mdp+PDhes9QUVGBN944AV9fH0RHH1UZ161atdK1QMs27eCv08dcVWUoKgFat20BX1cFylx+aOFrExUu47Fuo7JOmY+lD9EJyoqc8G/rgwpRVx7QGm39nSiq8EHbFr5wVRxHlW9b+FQUwelf89yVNnHequM1Hm+X4/MVdS4/UScDb6p/fU5bFSqdPvBxFqljjGtxouK4fOlPzWszjzNDiS3bGGOofnw9oMZ1+4s+K3zaqrXRt9l+G16N+RLXrb0XfY2ToK1Pheg3oG5bnzZo529DVZk4ybcvY+6JsfjjFfps4j6a7YEcvPJKKzz457Aaj9OfC++//369X9uvH3hdfISdGNd5nC6hc4WBTiIi8gqefvgkOhvkD61rw9cirGUY7up0F3q26KlriOhCx0AnnQ0MdHoH/qx5tsm3vz+B3RNfxzPD2qlg6klreRwfP7IUXf51HwbqIlPOywkojH8Gw9qeUo9nBAOdTRMfXSciIiKq5bWDryExLxHDtg3DxiLzdcZEREREdHqG4KH0dKSM7HhqQU6ptCNGPv+Q6KGuIQ+nYGSHcx/kpKaLGZ1EROQV+Fd2OlfkX+d/vuFn/Mn+J7Uf1yEO/9vjf9U2EV3YpuROwVthb+m9c4MZnRc+ZnR6B/6sSaeKGZ1NEwOdRETkFfjDJ50r8ofWkbEj0WqTMQdX7xa9cXenu9X2mSJfZsAfwRr3S+9T7eMb2zfJcmqeDlYcxAu9XtB75wYDnRc+Bjq9A3/WpFPFQGfTxEAnERF5Bf7wSeeK/KF1wcAF+PDoh2r/70F/Z0YnEZ01/P524WsoGMJAZ9PBr0U6VQx0Nk2co5OIiJqdgsICY0Os9dYpysH8qetO89j6FGDd1BjExBjLtLVm72KMhXqzAQVrp2H+Fr1zMsxrL1yHaS/nqKJqZ+P6PNgy33Kdp6DWcTkvxxjX7vFaTo8Z5BzSdggmB01W20RERGceM8iJiM4kBjqJiMgryQcSysvLUVBQ4F6qqqp0bQO2zEfK1wFiIwfz52yF3Dp1AfD3DTjNYz0rWJuCzOhFSE9PF8siRGeuESM0ytccMNo0JMDfF/4nPaACrJuzBoflpjjI16/2gWf++jwK8IfvyQ9aE2P/qjcSbg0xdsXH84n31WUAwbFI6L0J604iMNyYtf3W4vMBn+PLy75EF/8uupSIiIguZO3atePC5aQXapoY6CQiIq/13XffoayszL1s3rwZFRUVulaQGX46QzImZhrWFRZg3VvrsP2l8Xh+/lKs2/4ixssMQGs7nREoMyTN7MoYnd3oLpv6Bn5SrYxsQnc7dWwO5pv7YjGyLC1lss2W+e7zqHOL/gN6X4pte/bi+PHjYmmPEc9PwhBx3JoF27F6uhj7Z9VZjNXZm9X9zvpEVZ3ctWxZg/nbVyOhVtamp+tzq519qcetSsxt67nV/ZZ9iuNkpmqtendfuSt12XwV2K0xfk99iLFn9hyCDiXlorG4/n/6Y9LEAfJIoLwEHa7picx39b39BX53ye8Q2S5S7xERERERkTdgoJOIiLxSYWEhOnbsiA8//FAtffr0QV5eHkpKSnQLwX8oElSGZDoWTfSF40AIYseOwoCJi/DYw+Mwqv8kLHp4CHLezUT0m7pd76UqiCgzJGU7WTarXya2FuZgTWY0Fsn+pg/TD5oVICTeOC49fRZG7ZGPgwfAH6MwS5a9OQm7v8pBwdql2G325bcU63rdjkl7NqnAXsHXmfCNHoquV05E+tAsHeAbgb+9vQulGIK4iQMw6qkXENu1OvvRzN6U/fo/ZZz/j32/V3UndS294jCpvxjj3FjovEjB0/VZXPMQXjCzKKXgPuj3o0NlhZrXEFLnfstz7xZ14tziXIffnY9+arzVGavf7+ypjlk0cTc2yeBtI30EFOxE3+BOUGHOl58Q1z8RVznFjlbeMQR97fqxfCKiZkNOf6L/YHQ65B+ZzD/AeWRMr9LYdCPG1DC/cCy1GH3mnMKUKo2c3zptTY0/4lnO0ej9ICKipoqBTiIi8mqDBw9Wi5+fn3qcvbKyUtcIXauQNTEa0dHRuHve97D5lKOkygU4y1FUVAUXnCgv3oMC+zbMvUu3+79t2F1g/NIT1r29yrCsdNngc7QAO/sGo73MuGwfjDDVIgRd9jyrjouO/jvegc143Lt/MDrKdmVO2GwBOOywYdjVRl+XTUpBbOeOuCpqJzZtKcDWz2yIuroTykuLcfyKSSrAJ5fxjgcwf0spKp2Aq6oIJR5eHSj7DekqM0CPo1OIzGoUv7ydzLU4K8WVi3tVVKIChor4xa/u9VmI8RWpLEqtfBCGjnwPWdZrqHO/ZUObce4iO/bZR2HoIGvGKjAgagg6iHOWO8W45M1rsI8SOPLENQcZ2Zyb3gfenfo/GPvi93g3Qf9SW95FfFRyjcfyiYiajQAE+Pqf/pQjHqcxsSjcisx+o9Avc2v9wUb31DAhiJ37kPo3/hdz9zkED9X441xDGjp/jmXamoLqqVDU0wRPYJ05bcsZnAqlcXw3MBHRmcRAJxEReTUz0Onr66tLquXMnQWf6UbgcNZIXVhHCHqEDcAknQUpl5Q/6F+lXJbAXtce6LtjL3Lldt5e49Huwnfw6MYbjePenAT9ALVi/bUlqAfw8QZ1JPYsm4SUTeXodPUw7HwrBZ/aojC4Y7nxQp0vilUwUgUuewyod85NR66RvSn73ZunNpG/V5ad5LV4Euzh+hpUioGRo7D6qzXI2x6GYHkN9d1vdW45tnew/gtZUI4vnv0rVh4Rm86q6mCr0HAf1msegkn6GheprFfzl9p87EUPBKltIqILVU7NKVEs6k6pYmRjGmX6j0JyChXdpnaWZvXxxvQhquzdF9E38i8Y2vdTbNVl1dOi1JwaZv6WXKQ9OAeb5DnMsZnb1ulJamdM1smitPa5CXMeTBPfoyzXLZb5W+S1WcapXk6nz1/juo3rlE9CuKetsUyFUnCgDxLkkxlGN2d0KhRqhvIccOjN+mUheUzqSbSr5hD96i2kjrHBZjOW2CWn0kstDYzVsSTWfQ61zMzSNZ6IfvTPpOfcxuTTugdZM2OR6h5zzY9H9bXrNqd5Djo/GOgkIiKvZj66npOTg0suuUT9UGIacsOlmHe3kR34mWsUfsoVv8x1CwFelL80dUUI5olfdjZjUFwUPtJZkHJ5LstDULBqEGKjPsED8hemOZ8Yj3YHD0X0rinGcUm7EYa9Hn9Y7HLLVAz77AH1i9YDmdG4/Rr5iPVgDLNtR997R6CTON2Qh2fB/5/Vv5D9ce9YTPw10DUkDO8miF/iug1FmBi3rHtzpxFS7XLLWNimG+2NsvKTuxaIaw97t3qOTancw/VZiV9Sa/8yXHpFJEatWY33Rg7FIHkNnu63mxjbg7Pgo6/xCb/xiO2gqywa7kNcc3AYduyTZaUo1kHhcpX1WixKhMJ92BEWAr4+iIi8Xc+ebdW80+ZaPrVgqjMlijvz0MOUKiobc5YuM/4olPPVbvcfxWpMS4IcbNozyZjGJP0FxAbrsrWjMPSKYgyM7IsXVfBPziHdT0/TEo3Mdw+7p4Z56BqdXdqrNwaoKV3k+dZh1A2ep4pxC47FCw9b8zCrp5uRfRovyas9PYw47x/7IfNrdRZsen8UbjTPL//zNf/4N0tlowbcWj1tTYFlKpSQqwahw/HKGn+k5FQodHqykPxIht4+gzYmY+J6YzNrZhDSRuerfxNcrnzErpxoCdidisbHmpQlz2EsGxBZb7DPsWQiFp6vQOfpyEtFRtg8xMt/48R2rC0SiUaNkIWF8eHYIK87Kxx3vpoFXJuAyTsWihryCuITloiIqMl7++23XceOHXMvhYWFrlWrVrleffVVtXzwwQeurVu3uhwOR3W78ip9tMtVVVXlclaWuo6VVrqccr+81FVpbLjLTFXlx1ylolKuZT/lVU5XZalRpjid4n+VrtJjug9VVuWqEkv5sXKxlnXiWNmv7L9GO1137AtXyk0vuDbrcxyTx+kmijpOlKtrkOevrneK8xtj81B2ktdidCvG4h6jp+szjjHHoe6ftcw8f42xGsz7bT13jWuUx1j6dLdrrI/yfa5Vc9JcP6n+jMVa/9OyFNeq/Xo8p7nIzzUionOl9vc3ufzv/5a6/P2drv/3/4rV+sknD7sOHTrkrv9izl9dq/YZ/34a/67vca2c9Lxrk/h+U5r1jOumm24ylkkrXXvEv/PZc/T+TRNdb+0Qx+xf5Zpktpn9uevYnpWuv87ZJPord+1bOcl9/DPrxfnWz3HvG8sc1+c7VrgmpWwW3/NEvfl95IvnXX9N2yP60GMpzXOtmjTJlbbjc9cc9f3uJ9eKSdZ+bnJNWv6T+5o8Lu4+N7mel9ei13tlnTnm8s2u5x8U3xfkONWYzHthrL8S3/NqH79HHC/v4cpcy7ksdcb+XnF8iusL9/7pLw19XyksLHc98USu3qPzqfbHSf4cUlZW5vr+++/VIrflz1s1ZCXJ+LhaYlLzXfmpMcb+jPdci+OSXBtUow2upLjFrnyx5a6Pi3HF6LINM4zjgRjXYvWpINrrPuWSlJUv+jK3q/uqJs4rjstPTRJ9inayPnexK8bsY4Yehfs8Rln1WEW9h/ayPilLbWr63Na2aszmeI3x172eahtm1CqTfZnXY25b7ilg3EPrtW0xx232L9rHzBCLpb314+Kpj/cs48gX9zTfvDZZIMeh74H7muWmPI/4GFs19LX9WuFrrlcKX9F7dC4xo5OIiLxSy5YtERUVhdjYWLVERESgV69eaN26tW4hyHkvddZfcbGeY7K8BEVyv7QcJUWirrjUXeZuq4qK1NropgjGoUVGm6IiFKn5LXUfqqwYxWIplZmG5tyXsl/VibWdrJOP3iVgx8QYDNTnsGYoqqX65GJfnr+6vkic36j2UHaS11JaLOrlWNxj9HR9FrXn6FT0+as7rz6vvt/Wc7vbm8dY+nS3a6yP0o4YMTQPKZbsUnd94Tqk7LsOIzq4T0hE5JXGjy8W38+ceOqpXWo9ZoyjxhzUdadEUZuep1QR/85fPsnIokx/ysh+LO0wAilyP32R++V4hlJ0HJniPn73V//Furd21pgSZdHEndh0oAf6vrce6rTlX+C5SSvrZj6Wd8LgKBs+fXcTdvYPRufSBqZXOUUyeuFWOlA9Up/y1mqMihworqCm+mZusU7/4hmnQiFg9uzZ6N+/v1rkdmlpzc+wrPRsLM41Mh7T7ghE4B2TkRS3GPnTB+sWVllYuDIW+TJT8NlYoygvFbOxQWdNTob9EfPx6SQjozB3MbLT7Yh/JAkxqflIuFZV1iLOq7KvswGZ6fl2POyvpiFWjys/bDaSNzoQOs7Yd7k2ICnHDrjHGoGsOu1Vx/WIwjzVj2ibCtjzIjA+NQZJWWmIR33XY4iYLtqosWrBoQhfZocYDRzr08T4o0TZeH28CxtmZIv+ZUPz2kLxnpltmRuLNJltKazICVVjyk/NRoYYu6PBPqJwLCccoXocgddGiDt4EsRYsUOOlJo6BjqJiIjOuSF4SP6CN7JjnV/IqDHlKLniQTx/q4dfjoNj8fykgSqQS0TkzR54oB2OHvXFwIGXq/Vjj/WoMRe1pylRFE9TqhSuw8P/o6c0mQqMGx2CnLnDcbPcj74bH0XFWV7ck4N5w2822t71EYYNq0CmbRiuukT/kUos7eUc04v3IvYpHzwhpzuJeQL+f4xFiHtqGN2V+Pe609VRsK1dDVvUEHQR+w1Or1Jnjk6hTp+eyDmj+2K7bRJirmjsu6o5bU2OZSqUenAqlGbvhx9+EF97j2Hbtm3Yt2+fKpN/WLaKGBeLtJCTmcNSyLMje2CoEVSTAT5dtuLxSD0fZCQSddAPcaEIleuTkZeFLB20Dw+VvTtgz1mBO/W4guJXIFt0GpiXXH0eo7nmqb2HR9TN8QcDGXqOUNm2hvqup14RiJqRiIyNDmSsBGKvl0FbO5LV8TZEPq6bCera5BhmRImjhOB4pE1XW4gZHVUjWNlgH2JEdnF3T/r+muTHLMfucZoqaloY6CQiIjrnjMzGuhmSdFI8ZpcKluxUIiJv9p//FOHii6uwbdt2tX766X1wOp26Vv5z1wEjnteZkc+PQMfSrhiZMhFXlHfCiBSz/EFMTHkQv5ZzX+oMyvT0ibhc/Ps55GFzX//RretIzJl0hejZ+EOcUZeCEf1HIiXFmEvaVN5xBFKevwUdB0109zFxUAnKO4s+xPZD1+ix6LaybM5IYy7M6kxSY3nIDNBKdeboFNx9XiGuZSS6il6NteAeM7Bnz08YEHWVuA+qQp+/ehxwH9dFlIlzi/OUXxmLYXnWt8hb+hYKvs7FsLhBNZ9uoGZJBjrz8oxIovXrUJHBNpU5mI/FORme53CUwTm5tgbKLGUxM8wMSLkkGEG8ekUgauCdmOieK9OB1EciMXu9NfwWiNCBMe5MU7mkXZ+B2PQoYz93MWJ0S4OH9ndYw4YGlXEZFoqsmROBZ412G2boStMpX4+4ougkJKYvhH2ZzLKUL1rKQJQ6VtzTON3IJO/h4+Z9ru+FTo30oYKcDQRgrefYmIFEMzhtBnrlNjVpDHQSERERERE1IX5+fsjNLUH37t3VOigoSE3ZUq32lChyX06f4mFKlRpTmhgvblPTl+gy9Ycj9x+KLFOMyGlTTojy2lOZyLayzDrViDxUn8eYGsY4j1nm/uNUjbHo40zuMVi4+xTjUuMw17pOtJdvf3/gP30xVgdTRYXlXuhxuI/T90eep85UKJa+ORUKWWzfvt2d0Vlb1kwja9Bmky8IGo8IFUS7E0Ez7YganY1IWfdImm4dgfGj0xBkLQuOx2SYGZBiqe9N7MGhQHyQeqQ8Yrp8AVGQ5bz5dQKTNTJNxZKcF4XYHH2eR+wId2c1yrFm1W2vH11PjKguC9oxWZ0nIjrcnf2ZgSSV/RkYGi7axiIVDV9PzTeda9dGIenxRCSqTM3A6vtmmwj7QPlovG6nRCAhC7o+Engk3kPgsbE+ZGDXfJzdE/kovj4+Atigs0ZloFMGeqnps7lkmJ2IiKiJW7ZsGYYPH673iM6e999/H3Fxdf78T0R0VvD72y8T0LotWvi6UKGDuKekZRu09amo+5RAQGu09XeesacEGvq+cuBABebNK8CTT1onLqTzQX4tWj9OR44cwSeffKK2/f39ERYWhuDgYLRr106VkRfLS0Xy+igkeMhcrU/WzGRges0M1dqfM1avH3gdTvHfuM7jdAmdKwx0EhGRV2joBwmiM4mfa0R0LjHQeeFjoNM78Pt/8yKzS+3jar0cqT4bkxFrH18nc5aBzqaJj64TEREREREREVGzUecN8A25NsHjvKXUNDHQSURERERERERERF6PgU4iIiIiIiIiIiLyepyjk4iIvALnTaJzhZ9rRHQuyX9z6MLHOTqbPn7/p1PFOTqbJgY6iYjIK5zJHz4deQ4EBgcCYu0Q61OfcScLyWPsGP92/Gkc65ljSSyC4lfoPSkJG1w13+zojeR1LQxNQ8K1uuAkmRPEh75qQ+TjsiQGi3ONuZSs9yomNR9pdwCpY4Jwp4oVGO1CXz2FCeZr4S86RER0rjDQ2XTw+z+dKgY6myYGOomIyCvU/kFCfvuqqKjAwYMHdQnQtWtX+Pr66r16uN+aaP8FwcqzE+isERCs5+2O3ua0Ap15qUheH4WE6zMQ+2oo0qZHqDJzO2tmMjDdGgQWH4+ZQIJs5+ap7OTwFx0iIjpXGOhsOuT3f6JTxUBnEyQDnURERE3d22+/rbcMTqfT9cUXX7i+/fZb97J+/XpXeXm5biHkLnbFiG918tsdEONanJvvWhxn7E+dEWOUz9hQs53cF/JTdb1c4ha78q1lcTGuGF22YYZu4z52gyvJ3BdLUpbszVIm22Qluc+jzi362iL6Ntpqok1MqjyD9RzyGkRBneuqVVbnGnQbeV73cUliVDVtEPdEtTNZx2lu1+lD3FNxnDy3HG/tc8r9pBn6GH3PGuujzjgkeX1qLNUfQ4/Xbp5D8NjPSaj9uUZERHS2FBaWu5544jS+WRFRk/Za4WuuVwpf0Xt0LvFlRERE5JXy8/PRpk0bfPjhh2rp06cP9uzZg+LiYt1CisI8l0tlf+anAva8QMQ/kqQed/739MlIiluMfJkh+GoaYnN1u7DZSN5oHC3bybINA9OQkZeFhStjkS/7ezbWaAAHQscZx7lcG5CUYxclknzsXJTlLkZ2ehYcS2Yj2+wLs5EaPB6LczKQJXtYnwaMjkIXsZ0YYYPNppcIYLLM5sxLFUds0OeYDPsjqeIcta/L6Cc8S49FZ0BONMebG4s0dZwww+grPzUbGfo6TRHTaz3qHRyKGH1NWemJSIqOgEOM3RiLuJYZ2ercyIG6fzJLdmF8uL52cc5X5RWK6xLjVe3VfRRjbbAPcT054QitkdjiQOoj4mM0TmZn2mFfZt5ffV15dqwwr2t0GiYuMT4KoWHGvSEiIiIiouaBgU4iIvJqgwcPVoufn58KdFVWVuoaIRjIGGMEDmvOf2nlgD1nBe4MqW6XbTcCZeGhlsfG8+3IHhhqPKoeHIpwVRiIwLxkHZyMRKIqE+JCEao3JfsOIPZ6oy8jmBiIqNEy0OhAxsrquiQdqMxPjUFM6njj0WwZxHs8svocy+ywe7iuwDsmi86NMtsYI/gnA6jGeKMQKwOEYjMmzDqyRqjjjCBvxuNJiLpWnCfYjmQ1FnPuTEkHJsU5s2dEGeMOjjceORdkgNSqwT7UOK33L0u0nQg8awZhI5Bgzl1qfhyuTTCCu0JgqPGRkeS2+bEkIiIiIqILHwOdRETk1cxAp6e5ObNmygCZmTmoC+sIROhA+QIbo51cPM6LGRSKcDNjUwb01DoVselGtqLM3oyRZR7IzMK09UbATc5ZKTNGA6+PRfazE5GGWESpAF61wDvmIXblRKTKbESZVamzFY0lAfB4XTIAqMtk5qRvKLAyQ483Q5ynZvD15MiArBj7qxnIVsFbB1LHZCBKnScfi2tPSSQDj48bmaoqQDkmFYVq26qRPtQ4jaBsdVtLpqm85zKQq7aN4DPEPY3VWZwOe7Y7QG3dJiIiIiKiCx9fRkRERF6h9gti9u/fjyNHjmDHjh1qPzQ0FPv27cPVV1+Njh07qjL5Qh9bhJFnmTQjCdlh45EmX3ATcifCs/IR+mwQ7hy4Aa5xdlVm5nzKzMrx9uqX6JhvAI9ar9/2HReDGMRi3ttRyDDf9h2XhCSxilJl+kVF7hfohFa/FVw+Lq9eYiSDeEGwP+JS56jz0h557CMQ54iHfaYl81Ee/4gdQbWuax4mVmetysDo9AjVp1Gm31ieV/2CI08vCTKvs8bj63Ic4t5Avd3cOM7sM0kGWaPnifu4EKFv6yxL6z1v7D7W04d7HDJbVvel6HsnA5vG8eab6Y17qe6vvnbJ4/WcBL6MiKj54MtH6HScye8RfBkR0YWJLyM6fxjoJCIir1A7+FRaWoqPPvrI/dZ1GegMCQlRb16Xc3c2ffKRbJmtaH17OCl5+q3rv+iN83zrOhE1Tn697+sSh1adAKdNF9ajd/sKvXVq5K9bcqoO9co0uRJruVu9z3pvqj+WuYqBTiJqFAOd5w8DnURE5BUurOCTDHJGqhcUeXxMnk47G9P0S45noJOo+ZBf7z+2i8PyI1UobFd3ChSrZddVmbGuU1rThWV/+goGOomoUQx0nj8MdBIRkVdg8InOFX6uETUf8uv9y5ZxeGNvBQpL5esLZHjSs+/+amswkFm73FrvLhMbZsZgjTXrvab+u5XLGegkokYx0Hn+8GVERERERETUbLULAPxaiY2CEmDniXqXExUulJa76qxL6yl315vbYjlh7su1dZ/1XlNPRERNGwOdRERERERELidQUVLvcqJMBrqcHtZi8VhurEt0mxLZTq71vrmc0/otbyHzU0f99Zb92vUHPnkZm7bUrN+UlIxNJ3m85/r9ePdOX7z0+ekef+7riYioaWOgk4iIiIiIqBFGph/EYqzNzD/7oUo8/UEJdh+q8FhvHld7XbPdOar3s6GFWOqtt6xr13fwA9qJxV2f9S888G8fdKvVrr7jPdf7oHsAECSW0zv+3NcTEVHTxkAnERERERERWuH7+Z3x/Vhj++OUzjjyqHym3WBm9JnLx9sq8cTag3jymxPIvNgXT4j1E2sPIEOUV2cAuvRibtdaq2zBM1ef//4zyH7tWbEsgD1flDs+Qo7afwY5GwpwQj55ffhTUSbbLUO+Or4A9mX6uGUf4Yjqbyt+0Mdlv5+j+q+Ux7rM8+XjgwVPiIJEjAr8N76W++MDcHOgP24evwT75Xg2/tvYDxTl41NFmTxuA96Q+2a7cpeaA9P10b+MdoH/En3p/mv1t//tMWI7Dk+Idm9sdOLrWbpe7D/xdr4eV837cabvr1wTEVHTxpcRERGRV5AvjBg+fLjeIzp73n//fb6MiKiZkN9btl0Uh5f2VWD/NhccswLQ9UQpbO/5o2KML5zbi9DimROq7VtTL6rxgppV3x7HmhZt0LWyBQLb2OAodqHArwz/r6wYf7i8nbudfJON+2U2Z3X9HUo+PITfPxCNrmK/4FAZVq+bg9YDp+COKwrwwYsZyAu34WB2R9wl2vh99B+sxTj4HX0Vxy8ajb9Ed0VB+n/w1rERaHN8MVr8egruugLYuvRpfNrpIVxZ+Sr2th8H/07yfL64oeBpBA4FNrgeg++cWFxz7O9wPR6BrBk2TL9oD+4bH4Lb2smRZSHZNgs+mUtQtbwlpnfYANf0UKTGBSHr9lwMWBqC92/Zj3fu3i3aReLw8lL0y70D99fqb1r7h3HT6ljsXRaPi4//F/+86AZ0yHIh4Vqg4kQlVuyvauT+nJm1LftdvoyIiBrFlxGdP8zoJCIiIiIiwgnMKhSrVi3w8Y2+8IMLi3SQUyrRGX5ynbO/HJ85RQtHK4zvW4XxgaVqLfdluaw328ssQPf8j2d1PQi/CduJ155+Gk+LJfXLAlx0vCd69zyB177vgEF/uh2/cQIXhw3E/u9P4LsKwL+NExeVAb3DOog2J7A3rA8CynbhohM90VcddwKt+vaEf1mBkdHpNM9XgXUlxn3J/b4U3x5aCTwRCZvNhsgngI8P7cGJ3M8QK/ZttkgkwoaL2+SjdS4Q0zNE9NsRv13qQtIwlwogXhXcSZSFoGsc0PpiJ/w89FchGw7sCYcY04rcSNyfGoPECNm/DQFTMhu4L2d2TURETRsDnURERERERMIzn1ahEjZEdRE7J8owwShWKqtcYjHWVWa8ywU4XUa5XKuonSDrq9ufq6UCByPvx5QpUzDl3nC0OHwIXdvvwXcbZF0lVrz2H6w9LgYnGm8R7fVQEdQR2Lk1X/WxeetOoOOlluOAD7fvwcWdg9zt3ecL6oUYse8S2/36iq0ZGyAfFlRLYig+f/i3GJAl9zcgSbZzdkffQcCKn+zi+H14/PfiPr98QPVbUVkpylwokztiqdtfBNQtF23k2OW1HrlluVGXJXrfn4tD5rjO8kJERE0bA51ERERERERS+gns1sGsn7NlVLAWlxHu69PRD5HOCtiCTuCVHX54rbClWst9WS7rJRmIO3e+w+dz/1dlcz79+k70vn4guo7+HQJynsehtc+jqHUk4trrphau6/6APvuXqDZH9/fBiOs61jzO53f4fd9K3dqiQy9cgUTcPuhpbIt9FEmPGxmYNtsfcN/6rph4TwySVMblLHwRtwK5+ytx6ZQNSEr6De4bFIoFFy3GqonyIfu6/Or0V6FrTAVYEONj1EckImb0MFyna4iIqHnjHJ1EROQVOEcnnSuco5Oo+VBzdLaLw0v75RydJcDP5Xj00U6Y/SsnFt53uEZG5/y/ttVbhi37gC/2HcHBi1riSNsWaF9Uhk7HSnFN9/a4ortudE7549aBfrhEbbuwP78Uaw9aysoqsaDEF/cEVOKNXZUY2Lsl+pWXYnmeH34/wB/dfEWbKie++L4MOda+5HE/Vljay0LJbOPCDzlV6Frr3LnivlzTxpjdsrzKhpJjJ8Sxln7VuaoQIs7dWtUZ4zC2616L6s+vSo0FsIxZKC+uUNd0Lly8fTXn6CSiRnGOzvOHgU4iIvIKZzLQWVBYgK5dugJiXSDWnvNJGpKD+VPzcMtTvzuNY+uxZT6m7bsF//59fT0WYN3UB/Df37zYYJuCQnE9Xc7k+E6nz0baWu57zsvTkPeHf+N38jFR63GN3o+zh4FOouZDfm8Zc2AUkFcm/rkr1aWezX+oZqDTdKikChk/ViHqUl90bK0jb1byty0Z76sP672qnoFOIjoZDHSeP3x0nYiImpct85HydYDYyMH8OVsht05dAPx9A07z2HoE+MPXv4EeC7cis98o9MvcigJdVFvB2hSsOSC3huChubEIUaW/zOn12VBby30vXIdNvRMQK3+3E9vTYp7AOvO+XvMQxjvWiNZERGfZ5iJgVykgn1RvaKmHDG7GXRngOcgpNRREk1jfsKZeT0RETQoDnURE5NX+9reWqKqqcq9rUMGzGMSoZRrWFRZg3VvrsP2l8Xh+/lKs2/4ixr+cU7Od3BcK1k7Tx4ll6joVXHSXTX0DP6lWMiNRt3Efm4P55r5Y5m9RrarLZJst893nUefW/Rtk5qZ5/Hx3oC/n3RfRN/IvGNr3U2yVbwUWqscory0HaxZsx+rpcnsT5jyYhlzrefS29bqMsVnILMq11jBqPX3q443xyfHKen2EuB/zt+i2Hu5Fwdrq+57zbiZ6XtMBJeWi/EAfJKTPwiijG6C0GJcP9cHSGuMhIjrznrunA/4zvTP+78mGF49ktl9DGqsnIiKiM4qBTiIi8lrFxTasWOGL3NxitS4oKK4Z7PQfioT0dKSLZdFEXzgOhCB27CgMmLgIjz08DqP6T8Kih4eogFv0m7pd76UqIBfg76vaybJZ/TKxVQYSM6OxSPY3fZhO8ChASLxxXLoM0u0pECUB8McozJJlb07C7q9kcHEpdpt9+S3Ful63Y9KeTSqIWfB1Jnyjh1ZnP6rMzVm6z4cwRBXmYNPaURh6RTEGRvbFi+/KI2UQsp8+TzQy3w1A3MQBGPXUC4gN1hmnvXpjgBqTaP3VOoy6IaD6GtIXofdb1YFU5ZqH8MKt1jzMIXX7DPAHRhrjWzRxNzZtEff0j/2Q+bU6Cza9Pwo3XmNmvNa9FyG3mvc9BAX2vgjpWK7OFHLVIHQ4XlkjJlAaGAKb47DeIyI6O4pPAP/ZWoWkXWhw8YjZgERERE0KA51EROS10tNtKC0FXnzRT60//BCoqLC8mbVrFbImRiM6Ohp3z/seNp9ylFS5AGc5ioqq4IIT5cV7UGDfhrl36Xb/tw27C4wswrDu7XH8+HFUumzwOVqAnX2D0V7sH28fjDDVIgRd9jyrjouO/jveEb/Rqseu+wejo2xX5oTNFoDDDhuGXW30ddmkFMR27oironZi05YCbP3MhqirO8EI9wnBozDO9Xfd51+xUmZKbtmE1aL3Kb+Pwe+nvQus3YScQjGekUNxmTzPJSOQ8rcrUOkEXFVFKkNS6TwEUfhEBWk3rRmFyMBc7Nw+F3ervu/GvO27UaAzMZXSYhS5D5ZK6/YpDAjpqK6l3CnuS4C4p4OGou9nW1EgxzkyEgOt09zVuhflJeZ9z0euvH+633LxAbSeWekcgrCd+1SglojobPlZfNvYf9iJ/T9UiUWuPS+nq84rEWrts97L6omIqEljoJOIiLzWiBHlaNnShQcfPKTWN99cVOMXkpy5s+AzXWYvpmPWSF1YRwh6hA3AJJ3RKZeUP+isRpcl9Na1B/ru2ItcuZ2313h0vfAdPLrxRuO4NydhgCzTrL8WBfUAPt6gjsSeZZOQsqkcna4ehp1vpeBTWxQG66xGpbwEl0/SY3lKZkp+h3Vv7awxvkUTd2LTATGe99ZjkzrmCzw3aSUOqg4syjthcJQNn767CTv7B6NzZ3GMzKbU/aSnp+CW03n3Qe1f+koHqkfqU95ajVGRA1H7dR6ef0UMQg/sRb7e80je57Ae9cz1SUR0ZrQLAPxaiY2CEmDnifqX02Sz1UrrrLXPei+rJyKiJo1vXSciIq/g6a3rL7/sh2nTWuLmm4/iww8vxmOPHcCDD/qgRYsWqr7lD68ZGZDCiBGjsDN4OJKv+RaJ4+ah5xOvoPfbf8S8nv/E2vgDePSeudimWgK/e2IFbi1MxDvBSRjbH/jhlUTkjZ6Nq7Mfxb3zRKtf9ccAWxQenTUEX/99LObKA381EreI34WuSY7EFwl5GJU8DO2PfIzElcH43we74/2H7sHc7bLdg3j92Si0cx5Dhjh2773v40+XlqB822tIzBuFpCs2Ytqf5+MHNZJb8L+vB+PVp3wwZVYULtLx0IDjGfj7v52YOjYP9041ru+Wp97HA87/w+8e+wH3/WcsClKMMXQVbf9x71xg4mv432FdcOhjfQ3K7/DPFfdhoN7z9Ob3gO2vYYS1z7ty8YwcZ3R7HEmvvkfqXr/RE68/81u0K/0Br6l7EIx3at2LpD92xccJ8r4n4yn/N7H3/yXjJvXGdck8TrSXu9+9isT80Ui66RJVe67wretEzYf83hJ33XV6j6hxyzIz+dZ1ImoU37p+/jDQSUREXsFToFPOx9mrVzt88cUOXHNNGDZt2oX27du7A51o2Qbt/I2HF5xOp/imV4GiSj+0beELV0UZXH4t4CvKjlf4qDIzZ8NZcRwVPm3h7yxCcanspi18KopQ6dcWLXxFK/GtUz1+XVQJv7aiD3mgS/4oI8ZUVAXftj6oKCpBeUBrtPV3oqjYidbudlUok3XYhldjvsR1a+9FX5kCKcba1qd6fMZYnKgoc8EvAOJc8hhN9ivLKm1oYV6fGHMx5PXaUFVWCVuAZQyiP1GoHksPaK2vwTgKFceLqzMwzTFYn1NX99DSpzhngG4j+zLvUcGHCXjBdwr+d9hFYpwt0UbdAyf867sX4r5XFKzFi59fhnH/YwZWzeOMa81Z+BpaTfoTwmo8Tn/2MdBJ1Hww0EmnioFOIjoZDHSeP3x0nYiIvJavr3wRUQm6deum1oGBgdVBTqm0WM0lKZfiYj3/ZHkJiuR+aTlKikSdjNLpMndbVWQE8IxujDkqZZlqU1SEIhWM032osmIUi6VU/FdsBiVlv6oTaztZJ99GnoAdE2Oq57M058esMRbRn9w3+zOZZdbrk/2ofTnWWmMQ9Wbw0n0NZv+qVDPHYFW7T0sb8x7JN7k/8J++GDvSnGvUPH8D90Jsl3YYgev2pbjf2F59nLBlPpb2jMXltcdDRHSGfPrpMb1FdGrk586XXxbpPSIiakqY0UlERF7BU0an92qJNu38YdNZlt7OyBJ11cwOPUlmtmyd2+Apu/QcYUYnUU0nTjjx9tuH9d7Zd65+PRk3bpe4rr3M6KRTIjM6x4zpgaAgf/zrX798Funjx6uwc2cZ5szpqUuI6ELAjM7zhxmdRERE51wpii1Zlt7OyBI99SCnZGbL1uEpu5SIzovk5P2w28tUANIMQprb1qCkp3qTuW9drOorJ2rK5IuKGlpORrt2vnjooUC9R0REvxQzOomIyCtcWBmd1JQxo5OopiefzMOIEe0xeHAbXXJhkI8fHzjwwWlkdBbCkd8FgUF695RtRvL9ezH+pdE46fBW/krELu2BtIev0gWCp7KzYXMKYnPvQNof3G+OOzm1jst6rhsyfrMfCd3O0bjPEpnR2bnz/6B1ax9cfXVbXUpEVBMzOs8fZnQSEREREVG9TjYzzdvceONFequu/QcKUXjY8+P6jlWPY+ERvXNa2gAtTjFA1lq0b1Mr0Oyp7GxoK87RtrXeOVmFSP3yMswbH2rsbk5B5CyxlpcdNgHzBn2F1HxV45Xk5w6DnERETRMDnURE5DXatWvHhctZX4ioeftw43+x6+irSN+8GAcOHdKlps1Y+Jd3kXjTBBWok1mKtm5yMfZVlqXat5TJDE6z7LnNskDYjYX3G2XJuqhOXzIj8v4JYj8FWUYTxd1u2kpdYiGPWeV+w5sxnvtXwmHdFm2M88jF6NuxSp5L7Iv6ravkOWWdOX5h5yJ9XXosjfTh2JyGtEtvROChYtkYySPbYHFqjDwSKD6EwKF9kLbCvBdERERnDgOdRERERERE2vrsb5H9tQudu36IXXv2oKKiQtdIURifGoOkrPcQ33olZrfZoOcWfQz2mSvhaD0S8/Rco/mpLWA/IgOAC5Cdmq/KNrRZYAQPl3+D0LmiXe5iZH+5WQUh6/TVtg1WDH5M7Cchwjh5zXZ/vwordLFbVBLSzCxKKexyhL93EHax6fgmHbh9JNDvQX0eMZ4ZP8Iux9P2R1Enxrjqcrz3lwhskPW58e5g5Irv+qrryk/9ERmiyNFgHxOAQ98ivOfF6tis58Q5s6YhqtIyY1rHngj/4aARgCUiIjqDGOgkIiIiIqJ6yWBWc3LVr36FK69sgazPW3i49qOADNiVFgD7DmLFk5H6xTPXIXHVQdi7lSLjFuNFNEHxKwFfwF7gg9hrWwP5+YhIWIH4MNFNXCyiLskHiipFmzbAEQ99iWYxvbuJ4w6oMyuiHfoEqr7QuSd0jmS1o6KtyqLUigcjasYTyNhciIy1NsRGXIzArtuRrM5jQ+Tjoo1+Kj08RGx8swvZM25EhOz/ojikPRml6mJG34hAWSaGKx8/b7CPgkOwi8GHBhrZnBmzgMQIfwTdsxKJv9UZocUhCMVedY1ERERnEgOdRERERERULxnMak5G/fa32LfvOMIuvRItW7SAv7+/rqmlRyhiZphZmHJ5DEiaDMhMTZXpaDQLDQPSPjFCeo75I5H8X7HhqgIs8UhPfaksTpeMLFqIdtix09jea6+b0VnHUUREJSHxyzTY08IR2tGO1LsyEaXOkY/F1veuVYkBhfVG+OMf6WDkh0iOec3Iuqwqlf+vFTbchyCv2b5XbkUhQV9TvsqENbNTd8KOUPEfERHRmcVAJxERERERkSYDu2VlZdj4uQMBAQGoqqrSNYbAXuFI/O0EpFbdhslOMwtTLLe8jNBRQ3BnT2M/w5mE7D2FCBwzF7Frr1TzWQZ9HI/xRpJkTV3r9uXxsW7ZzhZtzI35f9/UzeisPUen9OsbkDRzJhJlpmZxKKJu34pIdZ77Yb8csO/T7aTiwUjI8kWkmntzJDB1goc3wzfShxDYMxzZeXIcR43sU5UNKjNhdXZqfh6yB/Y8+bfOExERnSSbS/55jYiIqIlbtmwZ4uKsaSOnz5HnQGDw/2fvTgCqqvI/gH8fmyZq7oCBimKOljaZZmhNDcZ/bDETotI2zTaHbMqsNDDHgmmxMivbzGkVbRTXXCaMajSxTEvJpVxQQHkP9wRkfe9/zrnnPi7wQDA1lO9n5nbvPefcc899ynu+H79zr/h6JdZ2sa77F600JN6agVH/GX5Kv6TZZ0cjaLjOz4mZhZyT7l9cV7a4rmC9a7U2EbbweL0jnOg8J/0a/V4n+RpnJyH6g1AkTzRyhuRrOjM0GXFXyD3Rp60/1NXLzKmRGRXamk7l3zWic8HkyXtxww0t0KfPGXjC9xmmft6vvFLvlRv5+AMI6dgRw667FV1DQ+Hj46NrhPPbAk28gN8cYh0EmFXOYqBQlDfRBaWloqwAkM8zCmhupJjINg5RHiDaOESFf2vRXuzvPwq09dCXjzw+33M7p1MshUaZSY7NPMbtfCCoiRiPKJdtWwcAfmowxlT0YnEdPqKsVKxlV+r69EAKcsR/LH3KY2U72b7GPsqQ9NJ/EfHg9eXv4eaxot6+fAZSI8ZheCPL2M8Sc1ev5mcEEZ3QR/s/Eu+QToxsO1KX0JkiP52IiIjOOvL3dMXFxdi3b597qZx149HaRMSukhtpSBybqorqBTGuoAXRyDGn+A1NRuzsk3tMg312LGZm6x0PovRDMczzBD2nJil6UM9eo1pI+yAD43TgMu05eY+88omd9tkv6weC5GBW+stIwnBMD0tFUg2vFRE1vHt0Sh+88h6efSQO3bt2rRjklOR9MHMcxtTz/TpbUS4ycKnq9P5+836ZYnFY2shIn1rLKrE2A5We+jIDlp7aOcQYrEFOqfI9OhXRRo1Htz0ojlPnkccbgUdVZnZlvQZZZu3TbHfCPppjeORexFqzS836nAWIzYzA8FZmYyIiolOHGZ1ERHRWqJxlJz++1q1bB3//8gyjw4cPo1+/fuX3U5PZfSF36HuYRWFW1nRgbBDumAuMfzYKLzwjaszMPrOd3J8Y7jG7EmZZTJToLRrTRVnGc/pBDJI6FuVZg0JCmgtxV1TKJIxMhS0lQp1HjXEsMLJnMn4bmYzhlixMI/M0A4m3vowNc+ejd9oaIFz3Y2ZiVrnGccgIkW3kdjJCPzDHZ+wPz05EdMYoJA8zc2zsSLp1JkL/EwdUupacsJeN663mNXKrlEVp9BkLvCqvx9wuf+0lGWxNDp2J6Fc3YP7c3ljjikCq9TWSr+OtMsgaj3hxjPE6yr5q6CMrFC+7x5GGtLXhCM0oz+hMey4aGfo1dmd6BlceOzM6iSpriBmddAp4zC4VrNmpZyFmdDZM8r2CyJPq3g+Y0fnHYaCTiIjOCpWDTzKDUwY2v/jiC7U/evRoJCcniy/jN6BFixaqzDrt2h3YghnokwFEY2p0hocA2KiMaMRiugoIGgGyccgYq6dS6+Dk9P9EiHOYU8TNqdahmGlLRYQrDuE6ADg97OVKfcmgnxFcDBXnk3XjdsS6x1CRDJIa/cm27mnYa/V1XCXGXOka5dirBvH0+MQ1xHoMdI5CqKdrqeE1MqaDeyazKVMjXcYYKr9WZmDUEvCVfVZ5vUNeRqgMzsK8jtDyKfke+nC/Ju5rqzhWj4FOGYTW12gexUAnUUUMdBKVY6CzYZLvFXvbxeC8NoDzBM9n69yyxNiQkRZr2xPsy9CMvEevWS4jNXK3fJ/19a3+2LcLGeishzh1nYiIzmp9+vRRi5xaKP8BUirviWYKBlJvNR7sYJ3CXJEdGenzcUdIebsNGcaU8d6h5QEz5GRgQ89QIxgWHIreqjAQgdmJ6jibJYsTMRWfJJuxA4i+yugrfKIMtAUiYugGpK61I3VBeV1FdqSJekX3l7FjPuLDjXHK+2zO35FR8zVmZ2D+M+bDLcT45mbAeO6vlSyT/VdzLUr1r1F1wiMTEJ+SBvuqZGBohOwdWBVt9O/OQAWiwoxXquprJDZiohEh124192HP2FDxz6xW5LV7el2IiIiIyuUfB97ZVIaEXahxadLIy1ga28q3a7HfrIk3mp7nhaZNxCLWzfS6fJ/19a2e6if+yRAR0VnNDHR6e3vrknJpz8kp08a9KNc8qwurCERoTzmt22gnF2tGoFtQKHqnZ0CF97IzsEGtkxAtswnlcVmzUOXpt1poGJC8yggMykzCxLXirFdFY8OrsUiGEcwLj+yNO8YmGf2rdrHo/2qqe18KDYtSU7jNccosxhqvMTgUUXIauNleZpnqKre1qYiXAdwar6WWr5HVFRFIeCYVM3fMN4KP8t6omG4cn5agG5Xz9BpVcYI+AkN71xiALT+HEWAOVUFUM9BLRNWRP3NERA3dkRJg3yEn9v1SJha59ry0ae6lF2/L9on3W/h7oaVY1LppNWvW16t6qp/4J0NERGc1OXVdLunp6WjdurXK9jOp4KHOQkxFghEECw4Fhgchca0Mbt2hHsQTPjIaybqdXDwG2RCOUfLBPbLN2GSjKDgC0ek6Y3JsBnpXkxkYOGw6ohcEqXbygUOj5JRveSzmo/dYPWX6ijjjwUB6DOrBRJbp1FLgsHFiGOXjjJ5t93iNMuAXHx6tHrYzDmZGp1huNQKp88X1u8teDUWOnPbt8Vpq+RrJIGmVBxqFI+LZeMQ/k4AIeb1XRKC3ed4UIMEMGmseX6PKTtCH+rOVWa7VkK+fcXwQkodON7JGZdDazNQlIo/kzxwRUUPXzA/wOU9sOAqAncerXQpLXGJB3dfFLhxX22ItttW+XFv3WV+v6ql+srn4K1oiIjoLVL5vYmFhIVauXIkDBw6o/dDQUISEhCAgIKDCA4rqr/J7b1bJsqSTlvZcIjCx9q+pfXYiUq+KM4KeGu/RSVTRuX6PzkGDBuk9ohNbsWIFPyMaIPlesbV5DN7dW4J9WwuAI8W6pqpvp7QU/5W/INI3c6zluszl8lhr8nxUOdaf+Xr7ygW8R2c9xIxOIiI6KzVu3Bg33ngjRowYoZarr74anTt3PouCnP2xIWkUg5ynWPjIULxcJbu0GtlJiN0RUSHISURERPR7VJe1uW53sViKqpS71zJjsFhsV1rL7EFP5ae1/ue5WL/KUX29ZV2xPhfbk+Yiu9r6Ex3vqT4HS+/xxdOf5VRT7/m4M1FP9RMDnURERGdcOOJctbjPJdVd8HD9lPlaqEtbogaME8CIiGrveJETx4vFotcrt5Tiw++O4KWMYrV8uPaIKqvc7niRy9j2tD7T9Y1saOznVX19tcfb0NbbhoBq66tZ11jvhU6NgDZNLOOpvP5d/Z98PdVPDHQSEREREVG1eI9OIqJyjz/UHK5pLfC43BnRCq4ZrfC+qjGoDE2Z8aeyNIGvdh3GQm9//HakhVoW+virMrPebO++/6Ontcwi9FRurutUn4u9i6di62y5zMN+We5IxXa1PxXb1+WiUMbwDn+ty0QbdbzluMWpOKr6+xkZcj9JLKk/q/6d4lCXOo95vrWY3aERhnRshMSHbhPr57FJlCV1vE3si/KH5sD+/fOqXi1yXxyXM1+2lWVjsES+sC7Znx0r5TGWdsez5iBR9y/73ug+r2V9Sl+/8jXVTwx0EhERERER1ZoDjly9eVLSMWP8ctFLHWycgaioKMsyQ/RSy35yxXjlWvUhjzOdxDj+KGLsE5adxEjN46yv33v6FbCUzdhoaUt0QjagiS8eigTe7+1t7FuobD+dAZh1uASOZo0QUNoIzwwoUYvclmVZh0qNduYijitQmYKnee3YDGeb6/DUU0+JZRj+IsoObt2IoEFyfwQuyl2Fg07g6JE2uE20GXHZb7D96sSx9Z/D2W2EOm5Et904vN6Bg9+koLU67ilc1ygFe391qXtXllnOZ1/wGubEzEKOy4V5d8gQlA8uLPJCVyzEDfGi/ZI7cenAZ9TsAZdrDRKWL0RuZho2PrYQCWmybBwunycOE/U5C/6BN65Yo9quueIezFmQA3v6Qnyv+3e5nsHt+rwnfB1OwZrqJwY6iYiIiIiIasmxbBqW7tc7J8UPvt5+4r914OeLHrGfICUlRS+Poq/436NvRiNEN/HMgeWvLcUhuSn6AJZjjjuYdxLj+KOIsXv71nWk4tp/6Iy4W0LgcPhizKf6tXusr1H32W6j7NMx2P3Zcjj6PYpR9qWWQDCRZ6+8U4wjYt3pmhaIPg8ozS3AfUaVIrP9ZAagXC/fXIrD/o0Q0MSGlkWlapHbsmz5llKjnV5Ky0RfZ2IJjUS4azlefPFFsbyDZYf2o01eR3TucBzvp7dCrwduR4S4jvPDemJv+nH8XCJ+BFsAbUqBLmGtRJvj2B3WBX6lu9GmqCPC1HHH0ejCjmjkVO82cFnO5390AXBxR+wRbfa17+2uB6LQ/nxx7JYibMz6BkNtNths/REP8VoVZiFb1Ac0k313QHv9vB//owuBSf3VTIP+k4CvjmbhirvGIWHuHQhSxw/FS/ss13qaF6qfGOgkIiIiIqJqNaR7dDqdThQXF2PHjh1qkdsVrz8dS9/fhs8nTsDyXLH3nplhaewjdzkmmJmDZpnMnDTLzGxCZGLBeKNMZRMKVfqSGYbjJ4h9nYXpLMaxY8f0ko9CrMNrDycjS2VmTlDnnfGN5fzyXBuXYsa2zxGnMzd7xE7BwNXT9LhMDizXY5GLmQE54T2xyDJxbPoyOQ7dp1BlrFaVMyPla2JmjprblmxK8/ocy+T1in1Zb3kd3X1lLdBl+vU4UR/i2ld37ItWBcU4lL0Yb9wZicjISLy6plC0PAS7bSAuayFeyxaXYaDNjkOF+bh4gJclEExUneNIPg74tPNFC7G3+2uxU42IC73RMq8I9gIXcn281SK3ZZms+0McKIJ/lJGF+dSglvA56I2AlnuwRT3LsRQLPnwHK47JzTLjZ01r3xrYuSlHbf+4aSfQ+kLLccDKbXvQom0bY8eie9coYNMurBbbq3duMAq1oiL5Xwe+G/dXXKyyN9cgQRaFdkYfzMeODLmTgR1z5Vr39ayR0amW+HCk77ocsWo/B7NiFqG1/BGnBs0m/nLwxgJERFTvzZ2r/4VDdAbExOjUASLC5Ml7ccMNLdCnj78uOXfIz5ZBgwbpPSPQOX36dDz99NNq/1//+hfuu+8+nHfeeWofaIxjX47D/JDXMLrtXDy24EK8/o8/i/If8fqY7bj+iQHw73ABgkSJfeE/8J/ABFy/Jw6vN3oar98ciJ+mPYJfb7wbjoc+Rsgnr+Nm22I8MrsNEgdnI+7zSn3d5cDotVci5ZFLUPL9dFwft1gOQOl239t4/voj+DAuG0MSg7EoKg1XpoxBwPxHkNzxdYy5TDRyluBY2X589fh8dJg2Gt3XvYUns2/Gq/034LHZbZF4n58+vje88zvgAvl8PMdi/GNOIBLCv0PUpyH4+PWb4Xg9Ev8O/hivRznwZuQ36P1OEOZUHuu/rkOAHJjU2B9NvUqQV1Bs7Pv9ig9v/Bb95o9Eq//G4Q2fp/B4Hxs6BLdX1T+9/ggybkjEZRvj8IrX05g2pC2+f20QvvtLirgOOxaN+Qxt7/LCJD0e28JH8FmbRNzQ6RjCaugjc/5jWNRhCkb8KQsr496Ad9w03BTwE96ITMVl8/+C9eraB6IlDuPLuEUIThyBbke/RHxyeyTc213168mKFSv4GdEAyfeKrc1i8O6+EuzbWgDc3ByuATagrAzjHjqEV3Q7acYjTfWW4b3vD2Nb+5Zw5RjvI7ag4/jTvsN44PKWav+MO/o1Dn+7Sd1LE+iIyIej4e+zFeteW469sqjDINwVthWLD1wFn+BWCM3+CDkt7kHXXkdx+OOPsPE30aZ5b9xx9zXIr3DcdXhwUGt8/dkqNBkwBJmyTOjZ+UesbDoA8WL7ofgEvJMAzNl0NX7uNRWB6z9FI18f9Nl0Oy69c75oMRSDYxagx90lGN/mRbQMl0cZZd7XZ2J8jPh51n0BQ3Bfymz0c7yI+++crEqABHxxaCz2ZOvd0+z8bZ9X+37w0f6PxGvsxMi2I3UJnSkMdBIRERERUbUaUqBTZnFeeuml2Lp1K5o3b46PPvoIw4YNQ5s25VlKh1PisSg4ASOcHyBqonpEhjYYiZ/fjOyxo/D2r0bJTYnz0S8tHjkxLyGiWTEa+zeFV8l6vPXEXkRNiUBzx5eIXxCMhH5rqvaVaMOsvTcj4doWwNYPEb8vBtNultFIOe2zCHkF6eWBTrG+OXEg2jXZgfcGPQkVEr3wfrz9whX42QziyT6yhyDhhguw451B+Oqy5+H7H3n8dcB/H8eod39RfePG5zE/PE2cLwovDWyO9H/HY68afy6+jFuI4OEuTKg81vkjUX1osDG2f3A9VvV+GyGfvQHvCS9hUOuNmH5jHJar+h6InZmA3j+I1zXkJR2YXIGOr9yDroV+aNLUF8510zFOj8ehX/8HLtlaQx/F2CrGvS86AQPPl334AcV5KCg+YlxDYjjSPAU6ZVD2iUxcl3hteeC2EgY6Gyb5XnHr/iFAdhHgkCmDzbBlZmMEbctDyykVMzpnPKoDnTLUYrNh414gJy8Pa7zk7SOA/s4SBDVtikvaG/VuMjJT07PfTlV9m0a4O8hL37bChV/SC7EKvrilp4/KUEVRKd4v8MbdfqX4eFcpenZujG7FhZiX5YPrL/JFe5mIWubEd1uKkF75uF9duL6HD45tkX1qm17G/Yu6IOc/w9F4VSJavtEJqyfehot6eqMgpxDLDshgaGP085eDc6G4zIaC345jnnjvuK9leRmOl+DjDFv5+UT5Pnl8Y7OdUWZcjwen4fVloLN+4tR1IiIiIiIiCxnozM42UoKqzQsJ7oAeg6dY7pv5MLzenAKvicb+lMFGs6AOwJdrstT2nrljMG2d3HKhTCc8Kh76ulSWW89tmbruzpa0kC2LCy5GrO5jSrfV2FR5WrlUXICLx0yB7+QJRkB043RM8YozzvvCENVEcZbBPIurVG7psVQ31moVomf/Ifj8h6XI3haG4NZZWDQ2DdeoYz/BGGuE1CXPE4IOYYuw6jtZUIzvXn0ECw6LTct45FTXmvswXvdM9Ue4HtP+byq+U8U5yBT9B4j/hSAVP8jXJ/cHsSXLhOxMbA/rcIL7nlKDtT4P2FUIyGnd4uewx6370fKZ43rfsph0EPOSC4BB3ZrinlbeapHbsqxCkFOqKcgmnar6A0X4ON24r+b77qBgCeaZZb+WiJ+FQhXklNLFNc+TP0u2UizbotuoIKdU6TjINpUCjdcPdN9Ds+Vf4pHw6DD4qOOMIKckz2GO52NxDnU+MQZr2ccZcjyW85nHu9sZZR6DnNLpfn2p3mCgk4iIiIiIqtUQJ4Bt27YNe/eqyZhVBISEYXHcBCx3DsYI1xPqvo9qiZ2HgKsvxPS7jP1vXEOwPcuBdjeNx8BvRqt7SY5eHYnb++mOrNpW7WuPrqoLx7LH8DfdxxOukRgSHICQsMXl98jUCvMvQnRsD2On3zW48O27jfOucmHIzqwKbas40Vgr36NTKLykP4Ys/RxLBg9Ar+IQDIjciafU8YnYHQZk7tMNlWL0engKvCYb99+c5DMK0a10lduJ+gDaBYdhx145jr549AVfTFL38vwUHZ4ejHbif4Pv6Yq3HxJlD32NgapM2J8FW0g7S0CVqNzUu1vhnYlt8dY/a16q06W1j1oanGzzHprGEtvdDJISnR6cuk5ERERERNVqSFPXjxw5gnXrVMolvLy8EBwcjPbt26NZs2aqTGnsj2a+NpQV5cHp2wy+ZuqIqwxFpTY00gXyfp82l7xXJdCkaSN4y2wg2SbPCd+mXigRFcV+TdDU14m8/ELRbdW+/Mx7XVa+76XSGP6qn/L+xInQSJ1IkPfoNPu1VepP8JNtvZzGeJr5GhkwYsxOmwsllrbGdHs57VtPI8/LByqPVV6L3q12rPIcekzq3MYLIk8JlOWhxKspfJ15ENXl7eWmuteot7tPeaxsJ9vX2EfjY0h9ay0uujcSAerPTPbmUn9uamgeytJnfojzxjyAsApjr4hT1xsm+V7xa7MYzDtchtxmNT9EaHLH6h9OROcWTl2vnxjoJCIiIiKiajWkQCedS/zQ5Jd38ejO6/Gv66u746bFxhmI2387Xrm2GWp6aDMDnQ2TfK/4vnEMPs4sQW6hDJBXP495xv+pR4lXJSMv1R+msh1tFe7ZKQ6w7LO+/tWf/8tSBjrrIfP3cERERERERETniGIUXPIwXr+llnfc7Pcopt3UusYgJzVszfwAH/ngdEcBsPN49Ut1LDEyTyoE0aRK+6yv3/VUfzCjk4iIiIiIqvXPf2bjxhtbMqOTSGBGZ8Mk3yu2No/Bu3tLsG9rAXCk+tsbzHhEP3W9joJbexvBNBmhkSszodC9rzMKWV9v6o99u5AZnfUQA51ERERERFQtTl0nKsdAZ8Mk3ytirrxS7xEZ5q5ezUBnPcSp60RERERERERERHTWY6CTiIiIiIiIiIiIznqcuk5ERERERNU616eucxoy1QX/zjRMnLpOnnDqev3EjE4iIiIiIiIionrCvvA+JK7XO5Wtn4bohbl6R8tZgOip1R1w6tQ4rhqkTb0PSTl6R0ib2t7ox9O1EP1ODHQSEREREREREdUXTRuJRW9X1tRfLE30jtZENPY/A1n3NY2rOjkLkNprBoaH6f3109B/iljLfiISMM6RjDRVQXRqMNBJRERERERERFQHO7J2Y9P27SgsKtIlFcnsR1v79rBNnYbEBxfAjvVifR+iRVni+lwkPSjqZL1YjKxGUa/3YxcZfVjLbKqPimRmpKqbsECXlKucRSkDjDYz69Pclmuz//bTkAYxLnGcHKMck/sa2lv6StXHmOM5QR9p81MQOqApkK8aI3GwP2YlRckd4Oh+hEf64mVmddIpxEAnEREREREREVEtfbH2f+j058dxXtCXGD72Yew/eFDXmNZj5pfDkeNywTXEH/GNZPqiP7AkHONEWVxEE0S8KepkfdYswLEf9oXvA2lG2bheRuDSWuYafwCx1oBgzgK87L/GqHviMszXxabwfy0pz6KUul2EqIwDKjiZ9v2LSBgSAXu3h43jxbLm2V+RkdMEyGiE6CwXkkftx8y/h2ONrM8ajuT5RpA03vtGo32fFKTmiDHW2EcTZPxyGUJbqygn0qYOFv+ZgIhSy6Ni2nVS1090qjDQSUREREREVGt22LP15klJQ+KtSVUys2q0NhHRs+t0hJs9Wx5nR9Kttgp92GdHI3Gt3qnX5NgTT2Jqq3mcce02m1yikaT+7Cxl6s/iZM9BDdWBQ3nYsetalJVuRnr6OuQeOICysjJdK+QcwIZeIQjMyQEu/SsSdDFiOiJUlh0NAFbeYPwdDLkD823eyHB4IbS1qBP1oZ2NjMcMxyLEh+u/qwMmYb41IHj4ANAlULVH247QOZLl9jt0FqUWcA2isQipOeuR+lwCIi49isCAbUhUPxs29H9GtFEz4nsjtLno8+dsbHj2GoTL/pvHIPmfEbISCdf2Ns7psqn2NfZxcA8yIK5ZZ3OmToG4Hl8E3b0A8X+V2Z9CQEf03pwtfgqJTg0GOomIiIiIiASn04ni4mLs27dPLaWlpbqmnH12LGb+rkDnGbQ2EbGr9LYwf/jMhhPMWzsTGWPjEI4MZPTUWW+uZAwPNuru0GVret6BmWsDMfzVUKSeZDCZGp5brr0WTz31PdLWNsPjD46Fn5+fCvS5hXVG7/RdRvBu2w5sUIWC+DunrP8XYn1nGH8v04wwaGgYkJGpNpGxw8jPDA2LQoKZ0SmX+P6qXOkQCuzYaWxnZlTJ6Kwi/3xEDLUhef4P2BDTAaFHc5F052pEqL5zMMv98HAxRhmYlNfwzErjPSP/CyRGfQiVT1pyVP5XO0Ef6IJQ+TOoyiIQp68jJ0leV4L4+RR27MKGnp0RqNoQ/X4MdBIREREREWlLly7F4cOH1bJgwQIV+CyXhpnD5yM+3MgMTHtOZ1qZmYLZSYjWmU3l2YNp7mwn23NmmDEDM3VGoZlVWaUvmcV5a7TYrybTUNQb7eWi21jKomdvQtKr8Zg/PEifIwFrRKP+7jFoVfoxshsT9XgS15rj93A9VTJTq2ZGyuuyXqPcLr9WsajxyCzXaPXaVawv7ytVl5lZqTX3IcbxKhBxhSjOzsCGZ/ob7fR47RkbkBCpQiwIj0zAhgxRGhyB0AUNKBBMv4sMbMr3iM2b96JT+xA0EvsygOeW3wejhi5CkLxv5XPuG26Wi7gRve++wPh7ucyJhJ/3ALc+Dlxr3Ovy5c1GfmbgrWPFX9Lyv+vRM7arciXgNoyzRRr3xnzrpyoZnVXu0Yl8BIr3LiROBm6+BoEIRcTtm9Bf9f0gMi4W70x7dVNJXENcmjf6q3tvDgbG34d2uqrcCfpAa4T2/AkZahxHjUxQucip64U6O/VwJtA5xNgmOgUY6CQiIiIiIhJ++eUXDB06FF988QUyMjKwfft2HDt2TNdK4RilMpGSMRxJeBlmpuA4ZIyVQbQITHdnLIkv/NkyA/RlbEjKUWVrxBEqWDh3A0JfFe2yZmFDSpoKkFbtC5jfc5zYl1mJVdmDR+n28r54G9S50lI2YFaWUZY8rBeGj01AlDh3nAz4SVfElY9B89QPEA9E6vGFp6psLXk9yavs6nrc9wwcm4HYClmQgRj+n4rjlRlpKpCINKQ+k4CIK+wIHamPd61BQnqGESyd29u4d2GweC3SZxn3NhQvzcuzZQ6ZHo9o33tBqmh/gj6ukBlkoeJ/QnYG5j9rvLY5Q5MrjdcqEKE9zesnOrH7b70DBw+WYk/OXvX3SwYiy6Vi5vxbjL/H027RZf0Q99ntRubi0d7u7EbXMxNE+XAEHrzUXZb82VzEXS7aWcpU+Sjxt/ryCUi+LQDIP4jwOF03dx6S4/rJnt2q3KNTah2DZNnPLeeLnXwE3jJP970AcU/PQ1x4AIZ/NkH/DB8Fek1wnzvuzwcReJtoI8clhMfNw/D2J+ojH+F3RyPjp4oPG7L2k/aNDeNubW3sEJ0CDHQSERERERFZ9OnTB126dFHbnqavKzKAZmYK2vojfm4GMoKBVJ2pGTTcmEiasQOIvsqYlBk+UU+djolGhFybPPUliqPCVKjOo8DgjIr3xRPCR0YjOcQoK88erUi1GZukp5J67kdmf6psSOnZCBWwCAztrXbllFr3PQPD4zF/h9mTZ4FXRQMyOLk2FfGqr0AEZptZpOJadTvElAcmMTTCCAZdEYfkYTKHzDIe5cR9bOgZ6u7DNdEIuZjXUB01dZiBTqqlu6Jj8MG/ZuHB4XeiY3AwvLys4ZUIjIqahyD5d7Tjnej9mAxwHgUc5kOLLNmN+/frckuZw6F2K5TJ5WC+KBLt5Vrab2m/Xx1QrvI9OqV8cR6zH+mgaKP6lsfLc4py631A5bnMc8vuZXvzNGb/J+qjVQwiMp+pmF1q9rN+Gl6+cCTCzfEQnQIMdBIREREREVlYA53VCg5FlM4UNJY44LlYQGZqiv01zxrNZPBMZkJK1T4AyENf1qzIquQUcSPTssJ98YKHq2wtVZae6nkatmgzfWgy+qtAbDX91KDKPQN1ELFawRGIRjJmpmwwArdyen9KhHFs1qyqD1ARr4UKjMpt2fa5H1RxBbXoo7fO8pSvuTndXU5Z7x0aqAKe8TKTVkhLiVdlkgxKh1oD0EQn7SgCb0l2/5zIbMgGS2aexi+oml0qRSQg+dbmeofo1GCgk4iIiIiIyEJOXV+1ahWCg4NV1qCVCpLJe3RiOMbBzMIUy61JCI3sjTt0RmUqjHs/Bg6bjugFQaosaEE0RlXITNSCq/ZVeYK1vNemu/65DEQM3aDvixeLjJ5GJmL5fSuDkDx0FMJl0NB9j85ygcPG6adAB3rspyby2Ar3DKwwFbzqPTqNcwDxz+jMVhn4TNfXOjYDvWE+qETTgViVCReSjOiRfXSFxYn6UNPWjbIKr/+OccY0/itGYZY+vj/W6Kn9dmSk92agk04dd6ajzoZsyDxll0rW7FSiU8Tmkr9eICIiIiIi8mDy5L244YYW6NPHX5ecO+bOnYuYmPI0Rnk/zuTkZLXdtGlTXHTRRQgJCVHbdJZZm4hExJXfn/REspOQuCoCccOM7M7qVP47Qw2D+nO/8kq9R2SYu3p1te8HH+3/CE7xv5FtR+oSOlOY0UlERERERCQ0a9YMI0aMUMstt9yC7t27M8h5trpiFEJfrZxdWh07ksZmIOIEQU4iIqr/GOgkIiIiIiKic0zVJ8BXry5tiYioPuPUdSIiIiIiqlZDmrpOdCL8O9MwyT/3QYMG6T0iw4oVK5B2eRou9b8UMa1i0Nirsa7h1PU/EjM6iYiIiIiIiIiI6miqfSoeyHgAT2Y9qUvoj8ZAJxERERERERERUR31OK8HCp2FeMP+BhYeXojdRbvVcqD0gG5BZxoDnURERERERERERHUU5Bukt4AP93+Ijw58pBZ7iR3XtbhO19CZxHt0EhERERFRtc71e3TyvntUF/KefLxHZ8PD9wryRL4fjO48GgdLD6Kpd1P8ePGPCGscpmvpj8KMTiIiIiIiIiKiesKxbAJmbNQ7VTiwfHwUoqKMZcIyh1Gc6xA1J1Zz3x6Y/eYux4T30lWRm6ey02HjjPLrrIP09yZgea7eEdLfizKu/RSOWwU5vZrivdD3GOSsJxjoJCIiIiIiIiKqBTkptri4GA6Hw72UlZXp2lPDz9cbvn56pxLHsmlYHfkJUlJSxPIJIlcvRboMfr62FId0m5rU1HdVln7FQd4+lQ70VHY6+PnCu/aDNuQux7rOcYgO1vsbZ2DSCjVkIDgacZ3XVQiCnqxZXWZhz6V7MKz1MF1CfzQGOomIiIiIiIiIamnz5s0oKipyL+vXr0dJSYmuNcjMSZV1+d4MzBi/HA6ki/UETBBlMzZ6ysoU9Xp/yldGH9ayKNUHENL5Qmzdk4ljx46JpSVufH0M+m5cihnbPkecbGPJfizP3vTQt8xqNPtW2Y0exmTt1zhKkZmRqt2UVF1SrnIWpTqPeby5LcZonicqaoYYnRyrGLc8v6jfbL52UZa+shbo8RrtZeCypj7+t3g1OvZrhYJi2Vhc/2RfjIntIXeA4gK06tcRqxf//qzO4W2Go5VPK71H9QEDnURERERERLXmgON3ZQHJYEfFoEFtqeBCNdMtqwQX6gUZONFBiTqpeFzFqbbWYIx5zZZgkDtgczLnJTqx3NxctG7dGl988YVaunTpguzsbBQUFOgWUjqWro7EJzLr8mpfLPf2g/yf76/dMEqUPdrPDwMmyoxMsXw6Bt72Q+Lv+Rz4vmCU3dt1i+rFWpZyrx3TljlQ/OdYpAxI0z8DN+If/9mFwn4xGNN9CKa8GY0QS/ajmb3pqe/0xasR+alR9knnOeJnTIzQuwfGqLIp6LZ6ExzWftVRQu5yzPGZYoxpRFcYvZXr+9gb5VmUUnAXdPvVrrJCHT+uhnfkAPh1ut04XixTBu9W76l+vrtF3SdIebMLvn+/G6bI+k8j3cHILTs7Ik6ONXY31on3A0eNfQxASUZXhLRWUU7x/jhJXH8sLnOqXaW4dQi6ZtRuuj+dXRjoJCIiIiIiqiU5bXTpfr1zUvzgq4IedZWOdXuGYMiedR4DeH4+3nJ2Zz0jAye+db/WjUthv/dR9BWbMrg7+v1fLFNtD8HeTQdZUoyAigzi7I6VU3k/wZg9c7A8NwTREztj3Unc04+otvr06aMWHx8fNZ29tLRU1wi5DuzsGoyWMuvykgEYoovRPQRtRFl+YQDKVj+MyMhIRN75BrbAC4fsNoQEyCzNY2gTYmQeHrJvxeLxoo1sN34JttkPAYX5os8x7iDfKPtozPiuFE6IMeQVwAjtVVS1bwccGVvx5p1G33e9tRW7HQdEeRguaCHbiWuxecGv0EO/++2wdWhtZJQGhEDnSLoV5ufpLEqtuBcGDF6CtI0ObPrGhojL2yCgbTZeldcklieW2GBT7102hF3QEsd2ZWLH4AG4SPbf4kZM+4d8JwB6RPRFK1FW7LTBS7wfhNTUR95eZCIE7XQ257oVEK/j3zDi7S1YHKd/CVLcTrTIqtV0fzq7MNBJREREREQkOJ1Ode+9HTt2qEVuywBGuXQsfX8bPp9oZBK6p2+amYXWqaDVZhtKmVigsxLNTMUqfcnpp+Pl9E1zSuYc7IwQ9RE7VTaT4j7fBHy8UxY4sPw9Y2qsnHbqnjrrPo81G7JyxmPVLEg5Juv45Hb5OMWirkdmqJrTca315X19q8vM6bQ19yHG8ZkXruyVj0JR7ne1zOCyhFJy92LHkieMwE/sXGQUG0GcgZe3VNN4L4uwwb6/GAUt+6Kjunch0elhBjq9vb11iUVwB3TdkYksuZ25B7+qQoN6R9k4HVO84oxg5QtGGDSog2iarTaRk2nkSQZ16IEhZkanXMZcavwsfpdvBBpl4FK0qe72lfYss5/KfYegQ5iZvWks025up+pdniKlVuLakJljbGdnVsnorKoQPfsPwec/LEX2tjAEt87CorFpuEad9xOM6a6bSfLk8rVbsgrr5H7xd5g6ZoGRdeksswRxHTX3gSB0EO+zxij7Yoy+RvleMuQF45co4pUQLTqIlnSuYaCTiIiIiIhIe/fdd3HppZeqRW4XFhbqGqkvYtQX5TcQ7WuZvpkyCvbXlsPhO0BNrTS+UHvDvt8IUBrZhimY4iOzDUU3W3ego5y2+ukY7P4hveJUULMvP1/80m2U2Jdfyh3YtFoG81qj9eUDsfMzY+p7+dTTOAxU4/OD3x5vVfbGLYfKp86mfILOn81Aeu4mrHZnQ5pf9k0hiH6zYllI5x7Y7VBnwroVQ3BNPwdChstj5TIFQ/bIaZ+W6bidxHXsGWOc8wVfzFkmM8QWw+tqo72aCiv+V2Mf/Q7BbgtBW/Wy98Ull8gMLrmt7c/C1sHGNXwSuVpN5ZVfal2lMrhRjDLR1iYLitsgpOvO33mbAaLqmVPX09PT0aJFC9hsNl0jFPdCdMRXGC2D+a99BUuNod81uPDtu42A/SoXhuzMguumEbBNNH4B8OlOI7jfTpS5zIxOsTw8dw/6PjYFvpPLf1lwb+YIxF4agJCwxcb9Ly8dgLC3R1Xpp2LfxegVE4GVOqNTLlPTrD9oJku/ugRtB2ME4ozzz9pRJaPT0200Ci/pjyFLP8eSwQPQqzgEAyJ34il13kTsDgMy9+mGknjtYl/wwiR1fZPge69l2rzbCfpAOzHuHdirxlGIfB0Ulu8lrjL5SxRB/tIkLES0pHONzVXxV5RERERERERukyfvxQ03tECfPv665Nwxd+5cDBo0SO9BZXHKAOfWrVvRvHlzfPTRRxg2bBjatGmjWwCHU+KxKDgBI5wfIGriEl0qDUbi5zcje+wovK3Tt25KnI9+afHIiXkJEc2K0di/KbxK1uOtJ/YiakoEmju+RPyCYCT0W1O1r0QbZu29GQnXthBfyFMQ99Db2Kprge4Y/c4jsE1bjg5TRuDCYj/8+sGTyLr5ceDlRQiRZdkrxTFvVTjm7zOnotOCQXjyc7nfDfe/8zyuq+Fbvt+xVDz5fBnG3JaF0RuuwrKRF8G5eTpunLjcaNA9FjMTg7EoLhs3Jw5Ei80fIN4ejZcGNkdxY3809dqHRY8tRIdX7kHXwl/woWg3JPE6BNTUR64Y99IOmDLyQnf2lvs1l1lbot9m3mU4ll8Iv20f4smsIbgr6xVkD03AwJYV2x5ZGY8FQQkQwz5lVqxYgZiYGL1HDYX1vUL+8mPNmjU4fPiw2m/fvj2CgoLQrl07NGnSRJXJXw78++n9uO2NIQi0L8I//uXC44k3ILipF0rUNPDG8G/ma2SeOZ1w2lyi3AlfXSbDNK7SPOQXWtrJ8rIi5BV4VSiDs0T9PDT2bwZfWxmKTtCPu8zZBE0bebuDsM6SIrh8fOHMk4FA0V6P1cvsV/xA+vk6kWeey+hM/L9UlZmM97lK09fN69Vj9WvSFI285Zld8vKBsjyUeDWFr1OOVTYXP+fqBHJcx5AP+X5SIq69WB0r28n2NfXROC8Vb397EUb+LUD1I5nHynrHfz/A5gGjEdG0fOx1xfeD+sn9s0FERERERERQgU75cBGp2ryQ4A7ooTMLjeVheL05BV76ASNTBhvN5JTRL9eoCazYM3cMpqn5mC6UWYMAHvq6VJbrc6cvfhtdrdNXX+iKr3/0Q4ew7Xo6ahYyd6imipq5Kad/dtfZlWqZhpsCCnDxGLOPblj9oztHy6Pi1n0QYfsaS3/YiR4hbVGYuwiPr73GOP7TMRUyudRI5ZTWL7/T03XnYcxrm1WN0xpHqEUf7im/HjjmP6Ky2qSszO0ICwlAgDht6vfyWhz44SsgpL2qRk4m0MH6UBSiU6Bx48aIiIhAdHS0WsLDw9GpUydLkFPqi5iBX+IumXF415sIu2cwAmRmoftel+VZhsfy83V5eVleng74WdvJchU9rFgmA4eqZb7YrkU/7rLiAuTpMrnkFxajQAU5dXs9Vne/sr31XPI40Zc1yClVuUenos+v2xYX5OnzirGI9rJYlrm7kvchdY/L2DeuvbzdifoobHUjrtw7rUJ2qbs+dzmm7b0SN7bSjemcwkAnERERERGRxbZt27B37169V1FASBgWx03AcudgjHDpe0XKJXYeAq6+ENPvMva/cQ3B9iwH2t00HgO/Ga2meY5eHYnb++mOrORU0Ep9GaE8KR3rlg3BgF7Gl3619BqAru8ugCtmIL56SE7vnIavdGs3NXV2pRFoUctUfJe9HI/9Te+PB0YOtU4I9fCk8uI26BNhw+dLbYjo1w4IHoDIXU8ZxyfsRhgyYddNFXEd4wd+bUzXfWg1IodfrCssTtTHCR4QEnJLHCJX69czeyRi/1yspuV2fVeWjcbXA8djcFvZ0oG9O8MQoraJzrRCtB48Tf+SIQWxvcwAJ50xxQXoOeb1ik+ANwVH4/UxPT0EZOlcwKnrRERERERUrYY0df3IkSNYt06lXMLLywvBwcFqWmqzZs1UmaKmVNpQVpQHp6+evim5ylBUakMjc7ql0ym+bMmplkCTpo1gzLDU00rN6at+TdC08lRQSfflp6Zqymmq3ig7ZmZaSXIaqCgrcsFHTT2V00fFOYvFt3Y/c+qpMU3TmNopOVHibq/3K/TpJ8ZZfqzJ6APqeguKZRvzWpyiBzlbtAze7um41nO6xDHW8ZhTYUvhU2Mf4hy/voc3j4/AvZeISsE63dQYpz5eT4M1Xg89LVdN7RXnzU3BB+lXYPTAZhWu5/fiVNWGqfJ7BZHE94P6iYFOIiIiIiKqVkMKdFI90fgYvhw7B+3+dT966qK6cWD508sQ9tqD6HqKU7YY2GiY+F5BnvD9oH7i1HUiIiIiIiKqPwpbY/DrlZ8KXxchiH79YfTkvFQiogaHGZ1ERERERFQtZnQSlWMGV8Mk3yv4506V8e9F/cSMTiIiIiIiIiIiIjrrMdBJREREREREREREZz0GOomIiIiIiIiIiOisx3t0EhERERFRtc71e3Ty/mpUF/w70zDxz5084d+L+okZnURERERERERE9YR9djQS1+qdSmSd7dYk2PU+spMQ/Vya3qnn1iYierZ75LWW9lw0krL1DtKQaLl+9XrYbGox+y4vM46reDyd6xjoJCIiIiIiIiKqBTkptri4GPv27XMvZWVluvYMmXsHZlYTCD3nZCchNWw6hgcb29G2/og3apSMHb2xRvyZyD+X5GGBoiQNM4frsrTeuOODNIRPHIcMsaaGgYFOIiIiIiIiIqJa+umnn3D48GH3kpaWhpKSEl1rcGcVPpeoMxBlJmI0okVZ4lo7km41shDLMxFFvd6PXWD0YS2zZnEmpK0BwhNFrYUKApp96gxGmUEpzq/KxfFp7jEZR6Y9V6m9RZUsSNGXeZx7W67d55TjEdcljpPnk9dUObNS2TFTj1OP/wR9pH2QjNCrZABTvKbZoZjuWoMEtSfZkZEej/7Wc2RnYMOzEQiX1VdEICE9Q7QKRwRernKNdG5ioJOIiIiIiIiIqBZycnLg7++PL774Qi1dunTBnj17kJ+fr1tIaZi5IBo5MqswEuUZiHN7Y5woi7sCiHjVyEJ0Zc0CdmTAPvtlcZhRNq7nfNXcWuYam4FY97TvcMSlAS+796UITJftxJKTBGTooN78dBkcdGFNzzvwMqaL+jVIeCYVadlJYn+N0bdrHDLGWqbDC+ETk40sSlNwKKJU0FAMKSUeCZHhsAeP0seL/p/dYJwzHYjOktmVGeWZlVnRSNYZleZ4cpI2IHWtuMYa+xDXkd4boXocgVeEwwh5mjKQMTeh/ByVrsEqNKz8NaFzGwOdREREREREtWaH/Xd9Wa54f7laOeE9+IzssBPd+86erUIUdT9/tczXoi59yrFWykSzEmM0+6n2vnwnfD2ITr8+ffqoxcfHRwXpSktLdY0gswp7hhpBOZlVqAqFmFCEqg1Rs0pnO4bcARnWzNgBd0AvNCxKrTN2zEd8uM52DI/H/B0Zqly5YhSiF8SW/4yIY1N1lmjQcCNQKkUNjdDBwShEq8xIMQb5/BwxxvnP9Df6ltPB52bA0ntVwRGIRjJSs9OQ+kwCIq4QVxGc4c447f+MbgcdmLRmVgYPR/JEtWUZj6HGPmQgU45XlXkSjjhXnD5HqDiqeoGhvbEh49S881H9xkAnERERERFRLdlnx2JmfcsKyk5Fcs8E9F6QWn2wcW0iYlfJjXDE/Wd4payok1P+WtSlz0AM/48OTFSRhsSxqcZmdg335QsejulhqZyGSn8oM9Dp7e2tSyxk0E1nP6qAnyq0kD+PKrvSBVeaEQa1ZhzKAKckA54JZkanXHSw0CB+ll6NRnK4EShNey4W0Fmia541WtRIZmg+a2Z0yqW6n0tTICKGAskfpGKDCtjKX1qkIkIdm4NZlR8+Ll8DmTmqdqr7ZcgJ+lBBzhoCsPK9wf0LEB1ctp53bSridcDZnrEBvUNPxTsf1XcMdBIREREREVmkpZWJxakytGQAoJx8yIXMsDIyDavc304F5CqVyS/4Zpk7CzEDM3Xmlflk5Sp9rU0UX+Blxpc1+9HI3DTalZenfXAHekfGIaKnzLYyyireG08c92o85g8PEufTAQd5X7zK99uzjr9yxqSsq1BmfS3MIIblWsVi3IfQfB2MazTK5Ngrt5Vjfhnxc+9AkDhPzfflAwKvCnVPhSX6I5hT19PT09G6dWv197hcOEYNTUaQ/Ps9NlmXWVwRgd7i51H9/U+Buo8kho0Thxk/Dy+nGxmdgZYyuVTJ2g4ejnE6qBke2Rt3hBjtUsVPywmzF+WxMDM6xVIpEOnpSeWBV0UDz8QDKitTBj436PtjxiKjZ3mg1mBMrzfq+wNjPf0y5ER9BCK0p57O7on8pYf5OodkYJwKBIvXPkn3KXbX6OCwNWOWznHig5uIiIiIiMijf/4z27VuXZ7eO7f85z//0VvlDh50ud5445hr+vQC1/btB10lJSW6xpCTFOVKSBMbWbNcUc+uMQpda1wJMbNcOVk5rhxdYraT66gko3TNs1GuWVmiLeRaFJh9eOorLcEFs8xjO5PsL0H8V3AfYykzjxF1xjjMsYpyuZYlz0KN1RifPMhynTUob6P7PNF5VV2Oa1aMXHtoK8tUP2YbK7POVHn/zPD0d4bOfdY/9+PHj7uWLFni+uCDD9Ty9ddfu3bu3OnKy7O+T1r+flp+1ugkiNcvQb+Hnjzx51HlvfP34/tB/cSMTiIiIiIiIm3q1FIsXw4sXerEG2/YUFxcrGsq8XR/Ow/3yJNZRMZ98VD+cI+YaERYM4uquVdeVFilO9NVyMAyMz9TES/+Z2QvxQPqISOe741XQZX77cmnF893Z4TJ8Z/U/ezc9yDUZOaanFIvx2mOyVS5rduJ7ssnnWBKK9Fp0rhxY9x4440YMWKEWq6++mp07txZPaConCWjM+QO9PaYzUi1It7DInZY7kV6EtKeexmhIz28D9I5iYFOIiIiIiIiLT6+DDfccByDBxdi7NjfKk1dt/Bwfzt4uEeevO9e8iojYCink5tT1Suow73ywifqNmm9Rb+bkPTqBszKMo/TTzLOrs298Srfb09OEY2q0FfysFMRmglXU+pjXzWe0lw7tQli1iYYSvTHCRyW7P5Zkk9Zp5NX5QnwdfR7j6ezCwOdRERERERE2ogRPvjgg2b497/98cgjle+7B/XkXnVfSlS9v12oh3vkBQ6bjugFxr34ghZEY5SngMcJ7pXnZr2HZjgw7qqfkYyK2aHyHnobXs3AqMr3xgsOBdQ9OnVDoeL99oDwkdFI1uOXS4WgbJV7dFpeixNkWsl7B87HLM/XXoEMXMp7dGbUfF8+yXzwiN4lIiKSbC756wUiIiIiIiIPJk/eixtuaIE+fazTMs8Nc+fORUxMxcf8yqnq//73b+pJyoMG5aFNmzY477zzdC2dDJnJKp8wXacM0ewkJK6KQFw1x9hnJyL1qrgznqXl6e8Mnfv4506e8O9F/cSMTiIiIiIiIs3Pzw8PPdQG99/fEiEhIQxy/k4yyBk0vDfG1XUafE335ctOQuyOCE5FJSKiKhjoJCIiIiIiotPCuE9h9fccrUm199Wr7gFLRETU4HHqOhERERERVauhTV0nqgn/zjRM8s990KBBeo/IsGLFCr4f1EPM6CQiIiIiIiIiIqKzHgOdREREREREREREdNbj1HUiIiIiIqrWuT51ndNRqS44VbVh4nsFecL3g/qJGZ1ERERERERERER01mOgk4iIiIiIiIionnAsm4AZG/WOJxtnICoqyr3U2NaT3OWY8F663jmzTnht1Uh/bwKW54oN97WX709Y5lBtiCQGOomIiIiIiIiIakHe/a+4uBgOh8O9lJWV6dpTw8/XG75+eqcyGaSc7IspKSlIUcsU+E6egTqFLUXn3j7VneD0qvHaqiOueV3nOEQHO7D8M33tn0Zi9WJx1f0exSj70rpdP53TGOgkIiIiIiIiIqqlzZs3o6ioyL2sX78eJSUlutYgMxdV5uF7MzBj/HI4kC7WEzBBZWA6sHx8eUamkZEo6vX+lK+MPqxlUaoP0e+Pq9HthVhcdOwYjqnlIsSmPIq+onb5e0b/sr/098r7j9LZm+6yKalqXypvpzMkLdxZlCaZTWlmgprbFbJLZcC14jjcr4O1/zX6GH1NJ+ojffFqdOzXCgXFIYh+XV97xh7YOoUAhfm4eIAX5jCrkzQGOomIiIiIiGpNfHGvFAyoGxns0F/u66JKIOBk1TR+S1BFLVUDHxXkir705pklg0Qn8RpUmq5bcQqt5dpVm5M8B53zcnNz0bp1a3zxxRdq6dKlC7Kzs1FQUKBbSOlYujoSn8jMw6t9sdzbD/J/vr92wyhR9mg/PwyYqDMyPx0Db/sh8fdxDnxfMMru7bpF9WItS7nXjmnLHDi014aQgHwUqnoZRLwef4v8G97YKM6wxxuRn6bgjVv8EDJcH5cyBUP2yJ/75ZjjM8UoG9EV6gzWspRRsL9W8b2p72NvIDpY70idOqOH7Etspv+wHEOu7gtHp9v18SmYMni3OI91HIew9P1uFTMwhcW2a4z23VZjk3iPqbkPPzgyuiKkdbE4shgFefnYI6974g5E9Gun+isMDIFNvIZEEgOdREREREREgtPprDAltbS0VNeUcyybhqX79c5J8YOvCnrUQeWpqi/4YpIlYFcXNY9fjK37GCM4IxcZmHioumBfOma8tqlu13HKiNfP27fO505fbMeox/oa2+9FYfT7v7in0MqA0u7YT8R1f4Ixe+ZgeW4Ioid2xjpmiVE1+vTpoxYfHx81nb3C+0WuAzu7BqOlzDy8ZACG6GJ0D0EbUZZfGICy1Q8jMjISkXe+gS3wwiG7DGAaWZptQnqo5ofsW7F4vGgj241fgm32QwjqAGRmq2qE3PKG+ln9JLaH/rschuAWx5BXEIB2e141jot8Aotgg99+O2wdWhtZoAEhUGcQZVs/f0K3exJLttlhDRcW5uehQMYXTW37IgJfYVNuOtYtHYL+lxQipG02XlXHR+KJJTbYfGVDPY7de7Fz8AAjA7PFjZj2D+Pnb8iAnmocpS4bvET7GvsosCMLIWhnGYdx3RPgen668f7UNgRhO/f+Qb94ofqGgU4iIiIiIiItNTXVPR11xYoVKvBZLh1L39+GzycamY5VpnzKgGSVbMjKmYJSJhboaatmRmGVvjbOwITxMltrBv5Xeapqr1ikDA8RX+pF3+6psLUZzwnGrzhRbJ6nxY2YELsb6yr0LRZxHTIwuHzb2xglr8l6nsoBWFlXqUz2Zb1uj9N4Ldef7vE1BL7VYzKm/Z6gDzGOOV5X4uJ8mQeXDr+rjeCQSQaZBl7eUlx3S1wWYYN9fzEKWvZFx9W89x95ZgY6vb29dYlFcAd03ZGJLLmduQe/qkKDS/5n43RM8YrTv7gwwqDWAGZOppHRGdShB4aYGZ1yGXMp2vWLwI6Jxi8gigvyxN/ZHVjzpdFecsm3rNxFeHytkTUpM0bV33QxJmTmyC0gO9PI6BRlPQabGZ1yeRiXqgbVKG6DPuLn4+vF67CzezDaFjqwaGwarlHHfoIx3XU7QY1Dvg5LVmGdLCj+DlPHLMABWeeUP4emE/SBIHQQ75nGyOV7wQysV9edhcxt+hce4nq2h3VAiGpDDR0DnURERERERMKuXbsQExOjpqNmZGSoJS8vT9dKfRETKwMPbyDa18OUT98BiNMBg09ivWHfb80UTMEUH5kpKLrZugMd5bTVT8dg9w/pKhhYpS8/X/zSbZTYfxR/9rIBZcZUVaUwH8datRNf6i1TYTvVZjwnGL/u3q24ACVOG7z8HFWmwfrdMhJDZPbnY33V/fPkFFN1ns5zLNPBheBovKGzKE0hnXtgt0OeLR3rVgzBNR6m8cJy/SGeXkMshtfVxni6rd4kxl5zH31VNltb/Rr2xSWXHEOxU+0o8ouxq1RGVYpRJsptsqC4DUK67vydtyqgc5U5dT09PR0tWrSAzSZ+Tk3FvRAd8RVGy8D7a1/BUmPodw0ufPtuI5NylQtDdmbBddMI2CYagfpPdxpB+HaizGVmdIrl4bl7UNz6Rkz7tDPm6KB+VNRoZI9IQaw1Qhk8AJG7njKOS9iNMGTC3nYwRiDOOGbWDiP4KctcZkanWGLnYY/qwFDlHp3i56PN5RGwLfsctoi+kO9CAyJ34il1fCJ2hwGZ+3RTSbwOsS94YZIa5yT43hstjqnsBH3Is4TtwF41jr54VGa0q/7iYHshFpfI4v1ZsIW0E6MjEu/fLpljTURERERE5MHkyXtxww0t0KePvy45d8ydOxeDBg3Se8COHTtw6aWXYtWqVWjTpg0WLFiA22+/HW3bttUtgMMp8VgUnIARzg8QNXGJLpUGI/Hzm5E9dhTe1ulbNyXOR7+0eOTEvISIZsVo7N8UXiXr8dYTexE1JQLNHV8ifkEwEvqtqdpXog2z9t6MhGtblJ/TkumUvjEdPS/xw4dx2bg5cSBabK7deIZk1zD++f3xnehviOivpS7d+u947It+CddlT8eNE5cbhd1jMTMxGItU24uxPm403tpqVEndH3obif8XoPeq8juWiiefL8OY27IwesNVWDbyIuT893GMevcXo8GNz2N+eBri9fXLMVR8DbOw5InF6PDKPeha+It6DYYkXgfU0Ifjizgs7zAFI/5UHgqxvq6/iHNkD03AQHHh1vIjK+OxICgBYoiKzPKVwXBqWKzvFYWFhVizZg0OHz6s9tu3b4+goCC0a9cOTZo0UWUyiP/vp/fjtjeGINC+CP/4lwuPJ96A4KZeKMkrgPibDP9mvkbmmdMJp80lyp3w1WUyTOMqzUN+oaWdLC8rQp6cS+7XBE0bebsDqM4SOR3eD02a+sKZJ38pIrcbwVs2cIn+xapMlIvO4GucQPy/FHn5heJnSpdJrjIUqfEZjJ+3StPX9bmhx+LXpCkaGSeSlyLKi+HyMcchNPZHM30COc4Sr6bwdcprK++/1KfmPhrnpeLtby/CyL+J95VK/cl+0md+iPPGPICwCgM9/fh+UD+Zf52JiIiIiIhIkNNR5QNGauRhyqfXm1PgpbMKpww2msnpqF+uURNYsWfuGExTczhd8nt8ueqmj+qclIArIrA9znKvzI0zMGnyOve+alXL8bjVaspqOtI+D0OI08M0WLcQdAjrgTE6o1Mu026ueQJpces+iLB9jaU/7ESPkLYo9DCNV9HXX91rWGH26wn6COnQFdszjT48CRDnSP3emAL/w1eifXujPCcT6GB9GAs1eI0bN0ZERASio6PVEh4ejk6dOlmCnFJfxAz8EnfJLMW73kTYPYMRgELku4OIYtu8RUR+vi4vL5OZ5OouC9Z2stwM5BUXIM9SbrQ1HtRj/FjIbV0vyvJ1eWG+WZangpySu0yVlwc5pSr36JT0uc2xGNPn5fFizKJ9fqF1HILMQNf9y1PK9vrU7v5P1Edhqxtx5d5pRnZppf7k++GcjtG4+AwHOan+YqCTiIiIiIjIQk5HlVmdgYGBFaejCgEhYVgcNwHLnVWnfAZcfSGm32Xsf+Magu1ZDrS7aTwGfjNaTRcdvToSt/fTHVmdYPqomqrqnq4pFvVgojGoMCHcQx+exlPT+NU5t07HKPM8UXPQ8dNY9ArwMA0WAQiBaPveevSKicDKO3U/YpmaZgk4eLhHp3mfv8+X2oynJnuYxmudRl+r1/AEfRQHhcCWXf1TmeUU4a7vynOMxtcDx2OwSuJ1YO/OMISUJ/QS1VIhWg+e5g7+x/aqGECkOiouQM8xr1d8Aryp36OYdlPr8sAqNXicuk5ERERERNVqSFPXZRbVf//7X7V93nnnqazOCy64AE2bNlVlipo2aUNZUR6cvpWmfJba0MicUul0ii9bJcgrgGUKqZwW6oSvOX1VTgH1dXqePir68vOSx+vwiGW6pugdJcdktlNj+LunwsomtRiP07f68Vumzhpcql1BsadpsCXwkmWiz2MlXh6m0eodyzVaGdNd5exX2b+HabwVrt96fjnOUvi4p+iar4Fl7J76EOPY8c6bOH7vvegp2whyDOYUWvHqucfgnh6cm4IP0q/A6IHN3EEUTlVtmCq/VxBJfD+onxjoJCIiIiKiajWkQCed2xrnfYnHk9oh8QEz1FkTB5Y/vQxhrz2IrpYpsQxsNEx8ryBP+H5QP5X/so6IiIiIiIjoHFXYajCmVXoCfPVCEP36w+hpCXISEVH9x4xOIiIialBkVgbR6XCuZnUwo5OoHDO4Gib5XsE/d6qMfy/qJwY6iYiIqEGR/yjd2y4G57UBnBWfMVJF55Yleqtu5D+v1ANM5L+y5Eqs1fNM3PusP9fqj327kIHOsxADnVRXDHQ2TAxokSf8e1E/MdBJREREDYr8R+mvzWIw73AZcpt561LP5vQvNWNZbrXZ9/ayllBDsC9lPgOdZyEGOqmuGOhsmBjQIk/496J+YqCTiIiIGhT5j9LvG8fg48wS5BbK25VXH5Tc8qh6/q5YZJvar51OS4nYMDMCK6xZf07Vb1k4j4HOsxADnVRXDHQ2TAxokSf8e1E/MdBJREREDYr8R+nW5jF4d28J9m0rBPKqfzbj+pfP01t1o/51JSNhJu6f8/u7liUz0HkWku8HRHXFwEbDw4AWecK/F/UTA51ERETUoFQIdG4tAI5U/0Tdb19upbfqpszpUnEwMx5WXZyM9edOvX3lAgY6iYjOUWc6oGWfHY2ZocmIu0IXVCLrg4bPN3ZiZiHnP8MRaOzVkR327EAEButdq7WJsIXH6x3hROfJFn0Fi7707pmThsRbMzCqrq9BdhKiPwhF8sRwtZv2XDQyRiZjuHotRJ+2/lBX/+wauEZmVGhrYqCzfqo+hYGIiIiogSssduF4kbPKOudIKab897hae6pX62J9vGV93GN5LrYnzUV2tfU1HZ+OTUlf4lC19RXXx4tzsPQeXzz9WU419Z6Pq1ov+nlhNnLE/r7PbsVfXkirVF/z8TmfxeCqF9ZWW1/z8XYsE+feV239iY6X+2mY2epWLNtTXb3ndU31RETUMMhcseLiYuzbt8+9lJWV6dozYG0ighZEI0eMQ44lZ2gyYmfbdWXd2GfHYma23vEgKilHncM8T9BzabqmsjQkjk3V22eHtA8yME4FLu1IutWG/s8Y5ZJ99svYoK49B7PSX0YShmN6WCqSanitqP5goJOIiIioGjKAVVhSvt6wx4mPvv8NL/9UgO99S9Va7stya7vjRS4V8PS4Lq5cbkNbbxsCqq2vtK5Q74XzxbFtq62vvPZCp0ZAmyZelcot61qcf99//oEXdnqJMbtw0Yj5cCUMqFB/ouMDxPnRxFZtvcdyvd439xF97mra1eL88nUIgQ2dfKur91B+gnoiImo4fvrpJxw+fNi9pKWloaRE/APAQmZd2mw22J5LROKtSbCrzMNoRIuyxLVGcE3ViyVaBSplFqGxH7vA6MNaZlN9iJKUDZj1ann2YuCwZEy/SmysTUS06N9mSxRHVT1OZWiaZbrNzOHzER8erQJ4ac+ZdcZ+ZYHDpmNWeqo4qurYZWAwfu4dKhDqvm6xJK7VB5tkFmWFYKnsyzyf3l4n2ujj3WOp7trcfWVgph6TOqc8T019iPqXEQGVn5mdgdBXXVjzrNwxZOwAoq+Sr3AgIoaKfXF84FWhSP6gukAv1ScMdBIREVEDdh62zGiLLSOM7S+ntcXhx8vvy2kEtcSi1z/u/Q2LfM/Dz4XN8NuRFmot92W5td3xEhnwdBnrX+dh6+ypatm+LlcFQ/enGvtbZ8/DftHGKc61W5dt/z63ynEZvxr9HV33b2xNkmX/xt5co38ZYiuV7cWijvv+eQzp2EgtSeuM8pz5t+myMVgiL8zlgl2WTV1bXi+2j5fYsfJB49ghHZ/HRtlf1hwk6v5k2abitVj3iPgGlnwnrnloDpa/MxS2J1erfjZOFW06GG1ni3Or/h5qhMSHzPPL410olYN2pSJJ92uM02hb8fi1mK3bDOl4G1ZmrcUPY8rPnWOtV+OveP1DRBu7KDu+rrwsMdku2skXQbzmn+pxme1kf/r87tfDPX75eljq1XiM11eel4iIGoacnBz4+/vjiy++UEuXLl2wZ88e5Ofn6xZSGmaaWZeRMKZAS3N7Y5wok1PSI141MiVdWbOAHRkqWIg0o2xcT2NaurXMNTaj2szNwGAj7Dm/5zjRNg6hHo6zB48y9sWy5tkNyMgOx6ikKCSkJWM4ZOBvja4fh4yxOjhajcpjDxw2DglyavtElF+3Kwehr8rApEXw8ErTvwMRKq5VBhKRnYpkRCMiKALT9Thzkowgo2S9NiPbUlyHGLUKYs7doIKVcjwbUuQZa+4jPDsDCAs1CoPDEe5p6n5lwaHonS7+nPQu1V8MdBIREVGDJu/C2b13MyDyPPylCSD+72ZkaIpFrHOPleFXpxecR/xwR5gNzwwoUWu5L8tlvdleBjsLZMBTLAcdv6H3PU/hqaeewphBAShwpOL48d4YIfafGuSF4+sPwoU98O0p21yHoNzNOFaUjr3rvXCdbCPKWq9PFv2k4nBuF+O4e7rA+V2qaGcE2Erd50vDZ7dswqws4x/7Bbc8j02ibONjC8UXGfkP/nG4fJ44QPzDv0ML8c/A5l7quI56277gH3jDX3xRkV8env0nVi/IQUHYnVilvizkYFbMP3Ho+/54RHwxUvfqWnInIvSxOQtuwzPinOrLTVoC5ohzpxfZ8Cd/oP0db4nj1yAB8ngnVFzw5854Vp0H+GxDmhhHECYsMb+URGGOKDv+/TeYI45ao84/HxPC+mOM5dy+065Gvjm1LOtq/Ef0XTDwGdWHOt/yhcjNTMN/bvmncf1ifO0f+1CMS2xjPnyun6/KolQ7J9Kr9Gcd/zO4vcp4yv+ciYioYenTp49afHx81OdOaWmprhGyM7ChZ6iRdXlFhPjk0GJCYYTXRM0qnfkYcof4RDKyCEN1wC00THzWCRk7ZMalzkwMj8f8HRmqvCI70tYa4bcoHbzzdFxgcIY7E9I6TVsR453/TH+jvbw35dwMVD2TLJPjrzp2N3ndMrNT9ROEO+bKgKquq0Z4ZALiU9JgX5UMDI1Q9wtN1dmZ7vuQCuXXZmZbimMn6ntqxkQjwhqsPEEf9owN6B1q9FF78to9vS5U3zDQSURERA3YcUzJFavzGuHLa7whvqrgk1eOG1WCvCejDF7K9ec/l2GvS/zTKd8HHZqUoWVRqVrLfVku6832paLYXCKu6oJfP3oRL774IqbO2Si+CB2BT1hP7E4/jvc73IYHbmgjztQRYZ3FfnoZnOIf5aGHDqJRp+5oJNuk90BYp9/Q5sgR+JnHuXqii/cRtNG3BHOZ59uXhRLxleOOEOPLxxKko+XGLGQjCgHNZF8d0F7fM98MzcnjzG3/owuBnh2xR5yj1ZMuLBl9AUpzMxH7N/MLi2jTpgQ7ikRj8aVuw5Yid2aD/9FFQC/j2Pe7/VV8qRPn3ieaibpL27cR5w5BgDi3v7hcdb5enXBYtHV2FF/mxJfE0rJSJL1yc/mXElk26D7MiolHf/WFyQt/X2k9dyYOi/6XDA8yxia+H5XkO1Ca9Q2GqvbyIQI2tCyUr4m+fu/b8ZlrIu5Sr1sUOrYqFGUdcYlsd75Djbdif/st4y/EN1XGU/7nTEREDYsZ6PT29tYlFtbsPxn8U4UWaxMRi+kqQCp/OSiFhsEdFJSBSkkGPI1fVOplYjjCI3vjDkvGpbzPZv9XUytkGlY9LhRJt6YiQu3LX1zqhiYx3ij50B2zvcx61FVua1MRL4O3HsbuJq9b/jLS3Y/5cJ8ayEDwM6mYKa5ZBh/TnosFdMaodTq5Sb5OyauMq5XT5KtMjxdO1EdgaG9syLC+YhWVn8OO1AViX12DGeil+o6BTiIiImrQXvm6DKWwIaKd2DlehPuM4ioiu3mhvcsJ+JdiV543cn281Vruy3JZ78kq34G4X2VmjkDv4u0oCmwD7NiIH2Xl5hWYNme7avebNeOhSyBa7N6ClWrnJ2zZ3QIBPSzH7dyInWiD9qre4qLO6IMoI6NTfcGYh2E3yLL5cmaZkIEdc1VLw+YMHBWrfTuNL1Tdu0YBm3Zhtdj+8HEbGj31LXa+G4p9d+ssR/3FqHXH3saGhfVYLPsS8eiNCy9SVShRWS4uVLiVZZkL6WJ11IyybnoR49bGqC9HMqNTyW6Da2aXf1EpO+6wnPsCXNir4oMS5g3zxnfj/oqL1Zc7mUEqhFquf/PHCLcNxcsOWQEUyaDpAReMmeye+gtQNcb4BQ/jISKihsmcup6eno7WrVtD/qKuXDhGyYf3yF+MjU3WZRZXRKC3+sWaqE8BEtLFh9SwceIw+Ys0G15ONz4H5ZRws0wu6l6eV8QZDwbSZerBRJWeOF71OCBi6Ab9i7pYZPQ0gqoy4Kfu0YnhGAczo1Ms+r6e880xyuXVUOTIaecexm5XAUB5j06UX7daKk1dr3KPTikcEc/GI/6ZBERcIfZkIFf+wlYcnyo+ySsHJOW9QqMXGOeX1z7Kw5PpT9SHDMjqfxh5JF8/4xqDkDx0uhGstWbpUr1mE/9Qs/6Tk4iIiOicNnfuXGxtFoN395Vg39YC4Ig3tr/TFGHeYvPb/Wj5oW4ozHikqd4yrPglDynN/NV0dZnJKYOcXi2KEXksH4O66bbyX1aW7zpF37+OvAPGdtPe9+Dai9vB/+f3MGuDDDGej0uG3YzCZV+jyYAhyMQ2NBZjCBoQgcuc8/Duij3quAsGPYm+7VwVj7vzAbQ8tBHbVfur9FQqX/zl59vQzZymFfsVZjx4JW7JfxEtw+UdwoZicMwCeF+fifH9/4eXut2pppz9X3QUvrjoMax9sgt2jmiPO+T0dvHFYE3hU2j1/Yv401/ksTfj+lsWwvtvGbgp/Fssv1gc+38f4NNhS3BnRuVjxdFpTtzin42Vz3aA/YECdAw8gCK9Hb73Ttwgjplxy2Vov15vP+oFR6sB6j5m1wyNwtdeN+Plh8qQFDlSZ8JE4aNf5qC45D/uc69+2w8vd7kDC1X9JIzfFIfbNt2OS++UV2Vca4+7SzC+jXn94iqS9mH6NTvxdvupCFz/KRr5rseeXsb2tS0WYHyF/kYh2D1+UeT4DG9XHk+REQQ9f9vniImpnCJzbpg8eS9uuKEF+vTx1yVERA2L/LeD+R5fWFiIlStX4sAB48M9NDQUISEhCAgIUPfuNMgHD2VglAxAyuDeWGB6pWAk/bHSnksEJnrIXK2GfXYiUq+Kq5Chav17QfUHA51ERETUoMh/lN66fwiQXQQ4ClXZ40+0wct/cmLmqEMVMjpnPFox0JlxEPjlQB5227yxz2ZkeHZylaFbm6YIba0bSZZg51UXnodujYzt4vwSfLyrFD1DG6NfU9nAhX05pUA7HxzbUohV8MUtPbzwy+YipIc0xn0tjU6OHD6OedlAz87iOH/zuEIsO6DbbxHtVUtrG6GoFO//WgIEm325UFwm1sfFOI554+4gL/iJ0uIyF/xKy0RbF67v4Yv2ahaeC7+kizFVPrZQHHtUHNteHFvmRGahDR18Kh9rjtlHlTX5reL2L75ijL7ymBJjvOp44JaePmghjlXjEef7Lhe4VI/Rfc1oZIxbnLtyvRzvEctrJMdbIM+N8tdS/RnstOGWXt4oMF/Dnnrb7Fu1lP2Vopl7/KKoTcV6489A7TDQSUR0DjuZgJacVm3eH1JOI5cPIKJ6RAagPwit9HCkalTTloHO+omBTiIiImpQVKBzxUAg33JzymrMmFgx0Gk6VuREyi/GdPVmjXgnIGKgk04P+X5FdCoxKHNyGNAiT/j3on5ioJOIiIgaFPmP0r3tYnCefCiOkeRXLd+y8gcTEdWEgU46HeryftW5pXG32bqSXwflfeygM9Hlt0O5W77P+nOl/rdvFzIoc5IY0CJP+PeifmKgk4iIiBoU+Y/SX5vFYN7hMuQ28/CkVIvJHY9bvjUa3F8aTSeqpwaBgU46HeryfjX3yjIztlWnNTUc+1LmMyhzkhjQIk/496J+YqCTiIiIGhT5j9LvG8fg48wS5BbKaefy675nM/5PPpa77uocDGX9WV9//i9LGeikU64u71ebH7HVKrBZeS25y8SG+de9wpr150T9loXzGJQ5SQxokSf8e1E/8aZSRERE1OA08wN8zhMbjgJg5/Hql5NUIQgmVdpn/bldT3Qq1fb96niJC4XFrjqv3dtiOW7uy7V1n/XnRD0RUUPAjE4iIiJqUORv37c2j8G7e0uwb2sBcKRY11Q14xHPDyM6keDW3kYwTP4rS65kRo2Mhbn3dUYg68+Z+mPn8L3vmNH5x6nL+9Wql1qJ/+q/lHVYV1djqliei52zv0HTYTEIkJVC7Y9Px+bZueg0bCCs76wnPn4tPmn1KoJ+/g8i23uqr/3xl6XdiiG7xmLVE+WPvz7x8bWptyNlZAi+uTELz0UHnsTx5eufpzwPPDEBF//wPK6a3gkLPxiG1h7amSqX11RvX7mA2WcnSf4sDho0SO8RGVasWMGfqXqIgU4iIiJqUNQ0oyuv1HtEp8bc1atx/Pg1CAtrjP79m+nScwMDnX+cugQ6UxJaegx6OY6V4rMfinFbHz8ENPOpUl9x70Trgyhc8DWaD70FxbVqb11vRu6CXHQdeg2O1qq9uf4OqwNfxQVb5yC0ZW3aV16XH3/xutsxYNdYfPFQPw/tfs96PzLGXIAVg/di9P+19VBfy/X6F/B/N3hhkf0pnNfcG5GNgV9zS7GntsefYH3kf3wY0clioJM8YaCzfuLUdSIiIiKiU+Cee3ZhwIAt+PvfM3D4cKkuJTpVzsOWGW2xZYSx/eW0tjj8uJzTbigocuK4WMz1l1tLMWnZfkz66ThWn++t1nJfllvbHS9yla+3/AcbPnxVLK8gfY0Dx4udyFlh7G/4cC5yRBspY4Xcf1W0sVc57pctRn+H18zUx81ERo7sXx7pQqnlfPvmxuD/Av3E4ov/m5JmlK993tgX5ZPm5qjj5Fn3fHyrUT5qNvbJdrtnY5Ju93+jkkSZ0e+PU3R/ovzjtcZ55fGuMheM2dtf4WNrvbWfwH/hR9XPGtHG7OdW/He37CfNfdz/TVkj9q3jfxhLRN8yh0iN3xzP2n+5x7vvP3r85nmL7PjvKPO8vqJM7L//jBhfPIbIcXzxHGyDP0Ga2Y85Hv06qf5GxYixm8d7GPceeR5ZbqyJiBoCBjqJiIiIiE6B22+XE0yBd9/NxZtvOtQ20akkJ6d3790MiDwPf2kCiP+7ue/JqNe7j+Th58AW8Gp0Pi5u1ESt5b4st7Zz399RLPtzfkPve57CU089hTGDAlHoSMVvBb0xQuw/NcgLv607CCf2wOdi2eY6BNk342jJz9j9vReuk21EWYvv52F/birs9i7Gcfd0QemaVNHOmCZf6j6fHTlfLURUUo4KELr+NUCUr0XSzZOQkCb2s2YhYMyH2Fgir24+vK9boMqili5ETpZod8U9GCTbuXIw67x78Ml8O+zzb8NTu2chR/aXloBPb35eHw84nS6UygGkh+IZUb/mWeDTdWtxPOxOfCPby35iJsGxToxv3Tf4FAlYo8oX4MkwFzZOvRq/qbGKdruvRpI49ocxC42xup5A33mib9H+uHw6/nneCJbXaW5nzcEnj3hhVpYe10dzkFMShCcXy2NdyEmKEmPZgyfHJYhO5Hkn4hbLsYk3bzSOda1BwitXY7YYY3Bz8VX+vBh8ZrmWKuPuUvHPl4ioIeDUdSIiImpQOHWdTgc5dT0iYijatFmv9rt2bYw77mijtk+XM/XP+G3bCjF58gXo1q08e5DOjMpT1x9/4ny83M6F1FwbIsR65v0HcJ9u+8Fj8pYJxt+JHQdK8e8DZTh2tAXiwosR6CyD3csHiWm+aHb+EdzbxhthbXzd7U0Dmq7GF7M3IE/utB2IgK7bUVj4V1x2wfnY3L4xhvvaseyTbxB0+xBs3bcNPv/bj/a9XPglKxDX9rwQ38IX3dPfR2bz83HQRx/X+igCF3yFor/8Ccdk+79chUx1Nh/87chLaD8gXu3hbx/gtae88WXEQty0+VP4tG6E4QE27NnyLT6+aCo6qrINyAx8FW1W3IwVg3Q78b9Lf7wdf972KGbiLxjluxrf39JbjPdH7G35Cs5LfQyHI6Yi6MdP0fmnO3Fd5lhVX/rDnei/8zF8cFsw1o4Nxbv/NYYRn1KALn2OwO+B9rhjrlEWlZSBAcmheDzZ2JcGT3kDeOIrPYaDKP1nCJZen4khwR9j5LudsHxyFOz7XjW2R2bguhtsWGIfiwONGmNEMxfW/VKENcuG4dEnFhkdPrMKH1z1DUZGAp9tHosCT8ce9MUFyb54o30G/u79eNVreaxLpXEXYPAlxrbkv/lzTrM9SWd66rpj2QQsvuB53G/583PbOAMT9t6E568375RbSe5yTHjof/jLO8/juna6rAoHHLkBCGiXjhnjs3HTC9e577t78nSfOScYXwU1n9+R6xBjNGrS35uA7JvNa7Icd6LX4zTi1PX6iRmdRERERESnwOuv2/UW0K9fU9xzT5vTuowY0faMLFOmdGCQs5545esylEIGOcXO8SJ3kFMqLXOJRa6BMqcudAFOscgypwyM67imrLe2N5dvfAfifpWZOQK9i7YjP6ANsGMj1sv6n1dg2pzt6vijWUZ7yRUaiPN3b8EXqo+fsHl3CwR0txy3fSN2og2CzPaqnVxKsbT70ypgrzI1/5sN/z91Rh/Mx45doj79Y4TbhuKlfcZxRYWiLNcFmaDp6mhpV7YXi5LnI6prKLp1jQI27cL/ZP9Lv0Q8eqPrn4zjXeKa1csirnujqD+sX6Nf3gpF1l06U1PGK+TrldUG18w2si1ltmRJvje69pKBQ519KpZ5j/S2jCEDO3RwUWWNzstAtjjHwd0bVJmzYyiisAG/pMtxTYbN51nM//FFPLomRmWfyoxOqTSok2inXyP9Z1Xh2LLVWPYM0KfzBR6vpeq4Hfq1NhY6e/j5esPXT+9U5ucL72orAcePq9FtcDes/rH6mQWOZdOwdL/c6otH34xGiCr9fdx99nsUb9xS2x5rOP/GGZj2o77O3OVY1zkO0cHG9oSoSVju7QdVK843yr4U4keESGGgk4iIiOiEcmHP0ZsnZT0SH1yA8jBYLeQsQPRUIzvQzVPZ6bB+GqIX5uqdOqh0XNrU9kiUwz1T4/6DPfvsXrUOCPDFAw+0Q6dOjc6JJSSk+i/UdIalHMduHbA6suGYseFBl9Y+6O8sgS3oOP69wwcf5jZWa7kvy2W9ooNppqJlUzD1xRfx4osf4tewv+LaZgNxY1gGji57HQe/3YOekRfqlhYHLsL1g2zIk22WfQm/QbchoJH1uAx0GTyw8qmUnRO9YLPZYAu5A/OfjcBVB/rhkbQEvDi4Ce6PHIkOSW9j8kW6sVWBpV2vUEzynoXXogPgE/0mZtnuxrheovzOZ5CQ9jQuPKCPqcaI2xKw7M4gMY7RmCUGuXGPA3DMwmAfMS4xtv7PROGWvwTiwjtnwTlctpPl/8SkXy63jGEqtphJXX3+igRMFGVN8PkyXdZqGF5LAsZFynFNFuOahBHX/x8SFtyJINHfMBkk3Sxer1adcAnicXuvF7HTOLLisb3+iteeXYNH/lzNPYCrjPsCXUF/BJmVGRUVhaj3ZmDG+OVwqCzECZggymZsdGD5eFEn68UyYZkMSop6vT/lK6MPa1mU6sPK2scMHehLx9J3u2LAwwPQ9ZtN7vbusURNwPJc0eb9bfh8otxeh9ceTkbWxhlinDpUqLfLj5HjNarcZBalGrPJ0ud/X8OYeVlGP/p4Y3xyvPKc+oj3ZL/6/NbrVOcTbT9bjm3vjlLnTl+8Gh37tUJBsbiW/V0QlzIFQ4xugMJ8XDzAC3MqjIcaMgY6iYiIiIR9+3ORe+iQ3qvIvvAZzDysd06KP9Coqd6upSaivX+lp1x7KjsdmopzNLXe/a82cpH0/UWYPirU2F0/Df2niLW87LD7ML3XD0j6XcHi+u+JJ4Lw4oshWLmyO6666tx68jr9gSpECI/jne2yoAzJHxol1Qlq2hR/2ncYzsIj2FxcoNZyX5a7yYdxW1x7p8zmNJb7+7fGqgNF2Nv/QV32IHr5tsbl99+Gjqp1T9x4/7XiR7wE8zrc5j7uxg6FVY/zKkK6u325Ea8Y2YdqefJyrJJ9ddNZnmL57KY2WHbgCjzumoehQfIIc7tiO9ec27FvVynSd7XBNXN0mVhiu4mxuI8BWsfMg+vpK9S5ze1VF5v9zMcCcey8YRcAF92NNLNvcey1zUqx6rzb1f0wjbJJGFFhrMmYN1uMNyYQyL4csbrdf+eKc8wZhtbi9dh3k9jW5Wpcldt9dgeulIFeVSb67yP69nCs68m+mJft+Vo8jZtOn44dxd/+khL3Wr7u5dKxdHUkPklJQcrVvjr70A++v3bDKFH2aD8/DJgo6mT9p2PgbT8Ex7I58H3BKLu36xbVi7Us5V47plmDebmbsLrbFKMu5VH0lWUb1+HzwQPQM78nBnR9G0tVgFIGIbthijpXJFYv9kNMbA8MeeENRAeLMcmxdeqMHnscKjCa/sNyDLnar3z8KZ+g82dmIFWrkrXZt7zPAJ1x6ucr7/GgxvdJ7G6s2xiC6HvNTNN0rFsxBNeI10GdX742GKLHOAa7fziE6BFD0CP2E/FaiXFldEVI62J1ppDLeqHVsdIKb42FgSGwideQSGKgk4iIiBq8L9b+D7uOfoCU9bOw/+BBXWpaj5l/X4z4a+9TgTqZpWhrLxdjX2Urqn1LmczgNMvcmYy7MfNBo0xlOQpV+pIZkQ/eJ/anIc1oorjbTVigSywqZ1/K8ZjZo+a2aGOcRy5G3/aF8lxiX9RvWijPKevM8Qs7P9HXpcdygj7s65ORfOE1CDyYLxsjcbA/ZunpmMg/iMABXZA8/9zO6nzppQ548sn2uPhiTvOmU2fSrmLs21EIHBJf8p3AK1MOwDbqEO6T05WtSyWXXAA8cHlLPNjBD5cfKFVruS/LK7BEC1b9ehzvpxvLx7uMIFn6zkJdVohlop9lW2TwUCrBvC1FSJfHZ5ttjqsgnJS+S5dtksfJEt1e1RrU+TYZx73/q35qkKUvNQaXOE6dW1Zats128nh3v3J8uj+xqLFYjldj0udxb2eZ5yvEx+JYdc4DRfhY9+Eev7VMtFWvgRyDGr/lWDVGo93H4rV6f7MxNvfrIRbjNdLtxPGqnboG81gZCNVl4vW1Hltl/Ga93K40RjVuazSITpl33vFDXh5w992N1fqNN2woLbUElnMd2Nk1GC2PHcOxSwaUZx92D0EbUZZfGICy1Q8jMjISkXe+gS3wwiG7DSEBor2obxPSQzU/ZN+KxeNFG9lu/BJsswbzgodgpOsJoy7yESwQ/xRI/+FzYMlTuD7qejy1BPj8B/G3T45l8ABcJMfS4kZM+8clKBXvGa6yPJUhqbTtiwh8hU256Vi3dAj6B2Zh57Y3cZfq+y5M37YbDutEj8J85LkPlgrL+7T8nesR0lpdT7HTBi+/YhT00pmmKiDbHz3FW5tb92C0lmMscsJm80JBmejIWSxeq0PIQgja6dMVFxbCemalbQjCdu6tlPFKDRUDnURERNTgrdrwMzb86ELbgC+wa88elZlRLgKjkqKQkLYEw5sswMv+a3S2zNPIeG4B7E0GY7rOoMlJaoSMwzIA+D42JBn3clvj/74RPJz3E0LfFO2yZmHD9xFIKcYAAKFZSURBVOtVELJKX039MV9m8bgSEG6cvGK7Jy7DfF3sFpGAZDOLUgq7GL2XHECG2LT/lALcPhjo9rA+j7xv26/IkONp+quoE2NceDGW/D3ceEpv1nB3MHL+5q7qunKSfkWqKLLX2Md9wMGf0bvj+erYtKninGkTEGHeZE5q3RG9fzlQt+n7RASszwN2FQJypnpNSzVaN/FGzJ/91NqjSlmdVbC+Zmd7PZ2UUaPy0aSJEy+8sEutb73VXjHQGdwBXXdkIktuZ+6B+LR0U5+MG6djileckY35ghEGDeogmupfFORkGhmdQR1klqTMqtTLmEtVuVJcgIvH6PIXumH1//6DObvG6CxMuXyCMbvWIV2OZckqrFPHfIepYxZA/d7AqrgN+kTY8PXiddjZPRht24pjulv7moab5P0x60r8m6GCQplp+jWmffY5hvTvCWucU6rUWgtCB2TC/D2sR9mZ2B7W4ZTca5TOfgx0EhERUYN32Z/+hD//uRHSvm2kAnkVHYV6KkShA9h7APP/2V/fo+1KxC88gIz2hUi9ybgnWtDwBYA3kOHwQvQVTcQ3lRyEx83H8DDRTUw0IlqIf6bniS9C3v7AYQ99iWZRnduL49QTAgyiHboEqr7QtqN6UEUFR0VblUWp5fdBxLOTkLo+F6nLbIgOPx+BAduQqM4j79sm2uhZ6b1DxMZPu7Dh2WsQLvtvHoPkf0aouqih1yBQlsnvbU1Rcx+Og8gQgw8NNLI5U6cA8eG+CLp7AeL/qjNC80MQKr6oyGskotqbencrvDOxLd76Z82LUun9q8r72YnqiahWRo9uhqNHvdGz58Vq/fTTHeDtbfllQnEvREd8hdHynpOvfVU13tzvGlz49t1GNuYqF4bszILrphGwTTTuUfnpTiOjs50oc5kZnWJ5eO4eVa7kLsdjf9N144EhLTbCFnGZkUWqlpa4LGIn5ixsh9gXvDBJ3f9yEnzvjUavkDAsjiu/X6YYMNpcHgHbss9FH33RTo1/pc7olMtUfGdNo6xyj04gwOyzxlv9FKJn/67YZhuDqEsqhzkraR8CvC3v0dkOIWE7sNeaUVrZ/izYQtpVzfSkBskmPtz46UZEREQNxty5cxFz5ZV6zyD/OTTnm+fgLPPCRQE3488XX6xrDPaVsZgZMh1xF6xE9JwwJE808y1LkfZkNDIeXoThHYC052xIvWofRmXHIrZ4EpKvawf7wvvEseOAj7Iw6vVIBB5NQfRnIUgenl2lL3z9PKKzbkfytU0Ba7tZQUh+8CJgywzYVl8F1wP6McLV2fVv2P5bhITn/BBxdDAy7lyA0MX/RDjsSLr178Cz0xGxTl9T7+1IPD8VEfseFPXyoUmZGDX2IGL1OIxrn4TQV2voo5t4jb4U20Fiu8f5QJARBbXPjsbM0M8Q11EGbjcj8ZEc8Rpci0BVe26Zu3o1YmLMp5EQnRry/erXZjGYd7gMuc2qycjUJnc8rreIPDt/2+d8nzpJ8mdx0KBBek98YpeWIjS0Odau3Y4rruiK77/fiZYtW6Jx48a6RTr+/fR+3PbGEATaF+Ef/3Lh8cQbENzUCyV5BShGY/g38zUyz5xOOG0uUe6Ery6T/y5xleYhv9DSTpaXFSHP6YumXiXIK/VB00beOojqRFmZTbQrrjCl3K9JU/jJMnFMM1+jF2fJMeTDX+zbUFZUCpufHpNfE9WfKFR9yGMbeZshWidKjuWXZ2A29jfGYJ2+LspUn2UuMQ5RZ45T9+XrlNcDOL6IwxveT+Glgc2N10G9JuLazddGjsPXibwSLzUelxhv2YFUvP3tRRj5twDzZPo4+VqKV3vmhzhvzAMIqzCd/vRbsWIFf6bqIWZ0EhERUYMnsxSLioqw9ls7/Pz8xD/S9WONtcBOvRH/1/uQVHYbxjnNLEyx3PQeQof0xR0djf1UZwI27MlF4K1vInrZn9X9LIO+HI5RRpJkRQFV+/I4rVu2s0Ua98Z866eqGZ2V79EpXXo1Ep57DvEyUzM/FBG3b0J/dZ4HkXExkGE8HNyQ3wdxad7or+69ORgYf5+HQOQJ+hACO/bGhmw5jqNG9qnKBnUBhTo7NScbG3p2PCeDnESn05ESYN8hJ/b9UiYWufa8nKwqeS+V9ll/jtXTKeHj44OsrAJccMEFah0UFGQJckp9ETPwSyMj8q43EXbPYASgEPk6MCczG/PNzMv8fF1eXpaXZwQFK7ST5TKQZ94fs7gAee66fBQU5FUMPArFZpk4xuxD9av25T06LWPS/Zl9yGPNY2T/FfIvq9yjUzD7LNB1ljayLxXkXDYBo9/pihGD25S/Dua1W8chG+vxyM3CVjfiyr3TLBmolvYbZ2BOx2hcXHk81GAxo5OIiIgaFE8ZndLIxx9ASMeOGHbdregaGqq+xLid3xZo4gX85hDrIPENR5c7xT+qC0V5E10g78/lLADk84wCmhu/UpZtHKI8QLRxiAr/1qK92N9/FGjroS8feXy+53ZOp1jEv/hlmUmOzTzGTWdVlopy2bZ1AOCnBqMSR1EsrsNHlJWKtexKXZ8eSEGO+I+lT3msbCfb19hHGZJe+i8iHry+PJhpHivq7ctnIDViHIY3soz9HMKMTjod5PvV1uYxeHdvCfZtEz/7efJn0LMZo6uvI5KY0XnyKmd01oY1I1JlUYof4YbOeE1cFbNDa6mxf1N4lVgeoGTylF16hjCjs35ioJOIiIgalOoCnfR7+QO7XkP0piFIvrmdLtPk098X90Ly2C6ANR57DmGgk04Hvl/RqSTfp/5y881o5eMDXxufUlQXJxPopHMfA531E3/tR0RERESnQD5w6dMVnwBvCrsPyfG9z9kgJxHR2eKvW7fin9n60d5EROcgBjqJiIiI6NSo/AR4U/7BitPtiYjoD7H1+HH8a98+PJCRgRJO7iSicxADnUREREREREQNyNyDBzHNbseHBw7gw/37Kyx7iop0KyKisw/v0UlEREQNCu95R6cD79FJpwPfr+hUku9Tt3booLZbeHvj6QsuQFvrg/eE38rKkFFUhKkdO+oSkuTPIpEn/OyvfxjoJCIiogajuHgfFi36lg8UoFOODySg0+H0BDpzkfTgbIS++w+E65JaWz8N0VnDkNzvW0TP6YDkxy7TFdJ6JD6YiVHvDkWgLjktzDFUfujZiVQ+Tuzb/nclXLdneriWc5M10Dm0VSt8FhZW5aFEjpISvO1w4J/BwbqEiOjswqnrRERE1AC4kJ0djx9/vEDvExGdvfbtz0XuoUN6r66aAI389XYdNRXHNRXHN2kK+FfuQ+w3EuWnmzmGOslF0vcXYbr7YWnrkTj4ReMawu7D9F4/IClHV53jwho3xl1t2mB+16588joRnZMY6CQiIqJzXlFRFnJyXhFb3kYBEdFZ6ou1/8Ouox8gZf0s7D94UJdayEzF9u3VEr0wVxWlTTX2be2nIU2VAKm6zGxjX3ifbnOfO+jnqawyd5sHp2GDLnOTWZS6fyVnAaIfXAC7dVuu1TnKz2NfKI57UPZZsd7d185PdJm+nhP1sT4ZyRdeg0D9sLS0qYOBpFmIkjv5BxE4oAuS569Xdee6r7p3xwedO+u9qhj6JKKzHaeuExERnUZFRbuRm/suvLwa65Kz29n6z4b8/HU4cmQZmjTphW3b4jl1nU45Tl2n08HT1PWJb72Ftm1/w5+6fYvzSyejd8+e8PX11bVA2tuxyHhgPobLmcfFvwE/f4ro51tg+tzhCFz7HKJ/vBbRqf2R8agLcQPSkHjLFox6ugix/zof0+fdgcDsWYgecxTTJ6Jq2T8OIjbrdiT3TUP0ZyFIfiAfiaJ8lGyTKdo8Xobpr0eWT10/vy3gUwDoACP8tyPx/K8Rse9+hC7/O2Ibv47k3oD9TyHqGPvsKMxsNx2j9sUi1vstJN/eCmnPNELqjWKsV9iRdMtbCH3YF/2nd0LO3LsA2b7ZdMSFldbYh/2T2zGz84einRiHDASvHwLX3dsR/bG8hj8Z4xq1C6Ne/9vpnXb/B6vNvYQ5dZ2IznYMdBIREZ1Ge/dORuPG3dC06RW6hP4IR4+uREbG/WjUqDO2b3+BgU465RjopNPBU6BzYWoqWoVsxFcrv8XfLp+Ay3r1qhDoRFEqokPvxHy5/cQSuP62AdGOkUj+q48OPO5F0h2fIvSjexF+dBsSH8nCqId2I9Zs41+KpFEfIPQh4OXKZbE2vGwNdA7eg+jPOyP5/q46WLgbo6yBzirOR9r7/ki99CeEfjgZmPIhhrd2IOnOC3HHEqNFwlf7MCorFjM7ycBkBpIe+VyP1R8IaAL873lE7xuhxmVfKdqFTEdc77wa+shH2ruxyLhjOoY3lYHg9uj/nNFOSliyD3GXFYrzfILQ1++v+31LzyIMdBJRQ8Cp60RERKeZr28gGjXqxOUPXNq2HYmWLQejqGiX/lM5ldIxY/xyOPTeScl1GMdvnIEJy+rQk4f2jmUTMGOj3jmNTvY86e9NwHL3TFYHlo/X+3W9dqIGashf/4q9e48h7MI/o3GjRhWDnFKrGCS7XHC5cjAr4wekdQgF5n9hTBff9h6i478TG07gqCzQrG12fIFkhCLUU5nctgrrjN7pu3SbXVWnrldxFOERCYj/PhkZyb0R2jofaQnjgDfleF1Y86xuJpXJLFBxzp7xSE2VBaLt+CFI2i/rCmWBW819iF7CgIxMtYnwZ4x2rqxZiHp2DeIiZOlOZHi6vgaIU9eJ6GzHQCcRERGd82w2b4SGzkRYWJIuqcput+PAgQN6ry784OvtJ/57shxY/tpSqMeK9HsUb9wSokprxc8X3r4Vz+zn641KRafFSZ0ndznWdY5DtE4Uciybhhm/esvLUNc+yr4U6UYVEVXDZrOhqKgIa7+1w8/PD2VlZbrGkJbQSLWx2YKQPPQ+hAfchulRnyNI3r/yshRE/91DzmKFNp8j+pXbEOipTDd3y++DUUMXGW2eW6QLLSrfo1O69GokPPcc4p+9BuH5QPiQvrijoxyvDanOBGzYY22fj/Cn1wCDRf/iHP39n8bwIF1lUXMfQGDH3tiQrcv25wA5YskrBZyFRsA3JxsbenY8p6etExE1FJy6TkREdBplZ09G8+Z/EctfdQn90eRU0MpT17/5JgXnn/8/7N7dFFdeOQpt2rTRNVruckx4aAZ+kduDJmP+Az1VRuPo90XJhd3R3TsC4xIvxtrxixH8wv3oqbI8s3HTC9ch970oTFohD7wOk+eLuo0zEDV5uSwwyiZ5Y9Lkz0U/9+PtYdl4be9NeP56YPn40Zjxq2giy0U/MM8n6bKArR8iPnsIEiKzMSNqEmSvf/pTD1x4VwJGdDeaSjKLMvvm53FdO10gx/DdFeo6zO3JmKTHKahrbIfl772G/60Q57zvbTyK1/T5u+H+d57HFRvjsSizIxYvFWfV4ym/VsFDH8P3vY7c26ZgYLNi9Zo+/VojRHZNhfPmBAxsCTT+5UM8vvM6JF4foDs5e3DqOp0OnqauSyMffwAhHTti2HW3omtoKHx8fHSN0DYIMHflPTrl/TFbi58pP5nj4gR+yzOeWu6QqZHnAwGiseNgpTYOGWOsWuaj77lZ2BhoUgrsP1rexinaQJTJvkyV79GpiHMGifOXinJ5vGzTRA+4VAYfRTmaim1xPpV1qttL8phiv/I+5bllO5ygj/PLkPTSfxHx4PXlwUz/1u5rsC+fgdSIcRjeSJ3wnMWp60TUEDCjk4iIiBq87777ET/+6EJAwH+xe/dulIgvelbpi1cj8tMUpKSk4JPOczBjYzqWro7EJ2I/ZeJAPdXPD37evjqzU2d55i7HnD1jjHYv+GLOMgccnW5X/chlyuDdYj8GY7oPwZQ3oxGiMzRlpuPqyE+M80WuxjRxnMyg7BFrlE3pthqbLAlLjmVz4PuC0ee9Xbfo0nJ9H3vDnUWpdOqMHnuM6fLpPyzHkKtDEDLcOD4lZQqGqDox/j3e6rrfuOUQlr7fDVNk/aeRWL3YyLtcbLvGMh7HCfoQ15XRFSGti8WRMot1Na6NuxEXWH7lXhgYAptd5bYSUQ0+eOU9PPtIHLp37VoxyCmZGYtyMQOMB8VPuyoT63xRpoKc0tHywGSFNkZRlbKj4jjZZ744RgYprW0cYm0Nckpm+wrEcbK9ebxso84hy3R72ac75qjbm8dY+zTbnaiPo80xPHIvYq3ZpeY15CxAbGYEhrcyGxMR0dmMgU4iIiJq8Hr27Ik//7kRvv22sYcnyzvgyNiKN++MRGRkJO56ayt279iOnV2D0fLYMRxrGYww3bKK/XbYIi4z2vWKxbRbQhDSNhuvin5kX08sscHmLIUTLpTmFUCGAKVDdi8MvLwljonjWl4+EF46+Bd2gVFW6rLBy3JbvkN2G0ICxDlEXZuQHrq0XGF+HgrMzqW2fRGBr7ApNx3rlg5B/0vaod2eV9WYIiOfwCLYdMA2DMEtjiFv917sHDwAF8nraHEjpv2jr6odMqCnZTwhNfdRYEcWRBs5jtxNWL1NvKZ3DcL4z7dg+hR9j9O2IQjbudfYJiI6ZfKBS59G8igPd+EMuw/J8b3Lg7sNHO/RSURnOwY6iYiIqMGTU9nlwz26du2FRlUe7hGCDmE9MEZndMpl2t090XVHJrJkdXYmtqt2FrlZRllwB+DL74x2mfMw5rWVWDQ2Ddeofj7BGMv0cqsgedgadRSy1nwJdNA3pXNZo5XlZPvMbGM7J7NqRmcVxW3QJ8KGrxevw87uwWibuQiPrzWyM1M+HQNrqFSdUlxH1yWrsE4WFH+HqWMWQN7N1CXvb2c6cII+EIQOyESO3Awegmn6tZwyWLy2cdHiVRbkaxnWwdgmIjqVPGaXCtbsVALva0dEZzsGOomIiKjBMx/usWZNroeHexSjV0wEVuqMTrlMXdMT0RFfYXRUFKJe+0pnwASgb8R2TLCWtR2M8QO/Nto9tBqRwwdhQOROPKX6ScTuMCBzXwBCwhZjguXJ7e1uGo+B34xGlDhu9DcDMf4m8+aanrW7aQRsE8U5RPtPd1bN6Kz4pHOpGG0uj4Bt2eewRfRFu+ABiNz1lHF9CbsRhkzjKcqm4l6IfcELk+R1RE2C773RqDKigBP0IY4ICduBvXIcxQXIk9mhKhsUcIp9FQvdnwVbSDt3ZisRERERUV3wYURERESn0d69k9GsGR9GVJ94ehiR9Pe/34UOHTpg6NC70aVLl4r3vfNrgqaNvN1T+pwlx1Di1RSNvEWJ+KeUC04U5xUATWooEyVlRXko9SnfV8/uKMtDmXcz+NrKUFRqg59XCYzDGsFoJsp1P77OPOQXAo39m8KrJA8FXv5oqtp7wb+Zr/oNtvynnavUaGdyt7dGEPU1iUFVOp9TPnZEDKsEXk194czLh+qqsT+a+Rq/Izevv+J4ROd+NffROC8Vb397EUb+LUB2o1jHlj7zQ5w35gGEVRjo2YEPI6LTobqHERGdDD6MiIgaAmZ0EhEREQlvvfUJxo9PRLdu3ao+3MOSgSgXGdwrLsgz9vPykJdnZCTWWHbMCOZZ9/PzjUBhYb48RrQvzEeeCvIVoyBPttHluh8zeOm+56a7fSHyVZ/HxHkrBjmlKvfolPQ1VT1fPvJVYFKW6SCnJM5ljLv8+iuO58R9FLa6EVfunVYhu9Q9to0zMKdjNC6uMlCihsnp5E0jiYiI6ooZnURERKcRMzrrn+oyOunM8JhdKjU2s1PPzkAnMzrpVDp4MAk5Oa9h69Yn+H5Fp0xt3qeY0UlEZztmdBIRERHRGeMxu1RyZ6cSNWxFRbuxe/cYFBT8qEuIiIiotpjRSUREdBplZ09G8+bM6KxPmNFJp8PpzOjcv/9DvUUNQV5eGnJz30OTJpdg27Y4vl/RKcOMTiJqCJjRSURERERUTx05sgxHjy7Xe3Vns8mnQ1XkqUyqTVu5X11ZXdqaampjllv3G8JSWnpIXbfLVarWREREVHvM6CQiIjqNmNFZ/zCjk06H05XReeTIUhQUbEb79k/qEjrXFRbuwNat16C09DB27/7wFL9fpWPG+Gzc9MJ1CNAldZbrgKNdAAI2zsCEvTfh+etr2ZOH9o5lE7D4gudx/yW64DQ52fOkvzcB2Tc/j+vayT0Hlo9/DRgr9nPqeO31BDM6iaghYKCTiIjoNGKgs/6RgU6i0+H0BDqXoaDgZwY6GxCXqwy//ZYqPj/isWXLuFMc6PwFH8ZlY0jiQLTUJXXjwPKnl6LTv+5F97o+QGzrh4jPHoKEyPIzH06Jx6LgBIzorgtOk5M6T+5y/HvTVXj4+qbqvsKOZU9j9PteiJ2ZgIFB/tjx1hs4fu+96Kmbnw0Y6CSihoCBTiIiotOIgU4i+j0Y6Gy4nM4CJCcv9Rjo3L79V/j5NULHjh11iUXuckx4aAZ+kduDJmP+Az1VRuPo90XJhd3R3TsC4xIvxtrxixH8wv3oacnyzH0vCpNWyAOvw+T5om7jDERNNm+dIMomeWPS5M9FP/fj7WHZeE1lNQLLx4/GjF9FE1ku+oF5PkmXBbgDndmYETUJstc//akHLryrYgCyYhalIMfw3RXqOsztyZikxymoa2yH5e+9hv+tEOe87208itf0+bvh/neexxUb47EosyMWLxVn1eMpv1bBQx/D972O3NumYGCzYvWaPv1aI0R2TYXz5gQMbAk0/uVDPL7zOiSeRVmdDHQSUUPAe3QSERGdRraKt54jIqoj5iQ0VF5eTfRWRR988BYCA9/Dli3vIjMzU5eWS1+8GpGfpiAlJQWfdJ6DGRvTsXR1JD4R+ykTB8L4WPKDn7ev+K+x7est9nOXY86eMUa7F3wxZ5kDjk63q37kMmXwbrEfgzHdh2DKm9EI8fOFt68fHMumYXXkJ8b5IldjmjjOz9cbPWKNsindVmNTrjqR4lg2B74vGH3e23WLLi3X97E3EG2NsXXqjB57xFjEZvoPyzHk6hCEDDeOT0mZgiGqTox/j7e67jduOYSl73fDFFn/aSRWL05X3Sy2XWMZj+MEfYjryuiKkNYyW9WB5a+txrVxN+ICy49jYWAIbHbjfqrnEv6zhYjOdgx0EhERERHVWww7UEVZWQewfXsr+PisRE5ODkpKSnSN5IAjYyvevDMSkZGRuOutrdi9Yzt2dg1Gy2PHcKxlMMJ0yyr222GLuMxo1ysW024JQUjbbLwq+pF9PbHEBpuzFE64UJpXAHPC+iG7FwZe3hLHxHEtLx8ILx38C7vAKCt12eDlq4qUQ3YbQgLEOURdm5AeurRcYX6emiru1rYvIvAVNuWmY93SIeh/STu02/OqGlNk5BNYJH5GjIBtGIJbHEPe7r3YOXgALpLX0eJGTPtHX1U7ZEBPy3hCau6jwI4siDZyHLmbsHqbeE3vGoTxn2/B9CnLVdAVbUMQtnOvsU1ERPUGA51ERERERPUWMzqponHjxsFuP4Zvv70cfn5+8PKyfqULQYewHhijMzrlMu3unui6IxNZsjo7E9tVO4vcLKMsuAPw5XdGu8x5GPPaSiwam4ZrVD+fYEw197cMkoetUUcha82XQIcgtQ2XNVpZTrbPzDa2czKrZnRWUdwGfSJs+HrxOuzsHoy2mYvw+FojOzPl0zGwhkrVKcV1dF2yCutkQfF3mDpmAQ7IOmehLDEcOEEfCEIHZCJHbgYPwTT9Wk4ZLF7buGjxKgvytQzrYGyfQ/iOQ0RnOwY6iYiIiIiIzhJNmjRBcXERfv7ZjqZNm8LpdOoaqRi9YiKwUmd0ymXqmp6IjvgKo6OiEPXaVzpHOAB9I7ZjgrWs7WCMH/i10e6h1YgcPggDInfiKdVPInaHAZn7AhASthgTxuusRqHdTeMx8JvRiBLHjf5mIMbfZN5c07N2N42AbaI4h2j/6c6qGZ3yHp3LLVPd5TW1uTwCtmWfwxbRF+2CByBy11PG9SXsRhgyYdctleJeiH3BC5PkdURNgu+90agyooAT9CGOCAnbgb1yHMUFyJPZoSobFHCKfRUL3Z8FW0g7d2YrERHVD3wYERER0WnEhxER0e/BhxE1bHPnzvX4MKJx4+7BBRcE47rr7kLXrl3h7e2tawS/JmjayNt90wNnyTGUeDVFI29RIr76ueBEcV4B0KSGMlFSVpSHUp/yfRVPLctDmXcz+NrKUFRqg5966ro8rBGMZqJc9+PrzEN+IdDYvym8SvJQ4GU+pd0L/s18VcaN/CrqKjXamdztrRFEfU1iUJXO5xQjl8MqgVdTXzjz8qG6auyPZr5GTo95/RXHIzr3q7mPxnmpePvbizDyb+UPG7KOLX3mhzhvzAMIq+1T5+uB2jyMKLekBG/xYUREdBZjoJOIiOg0YqCTiH6PI0eWoqBgMwOdDVR1gU46A/yaYPs7j2LHjf8qfwK8aeMMxO2/Ha9c28wIrJ4lGOgkooaAU9eJiIiIiOotmXJGRGdccQF6jnm94hPgTf0exbSbWp9VQc7aYhYUEZ3tGOgkIiIiIiIiqqTKE+BNhfnIO4umrBMRNSQMdBIREZ1GNiZjEdHvwvwqIjpz+M8WIjrbMdBJRERERFRvMexAREREVFsMdBIRERER1VvM6CSiM4fvOER0tuNT14mIiE6jvXsno1kzPnWdiE4On7resMmnrhOdSid66rqjpARv86nrRHQWY6CTiIjoNMrOnozmzRnoJKKTc+TIMhQU/MxAJxGdEQx0EtHZjlPXiYiIiIjqLeYkEBEREdUWA51ERERERPUWH0ZEREREVFsMdBIREREREREREdFZj4FOIiIiIqJ6i1PXiYiIiGqLgU4iIqLTyMZZp0T0u/BNhIiIiKi2GOgkIiIiIiIiIiKisx4DnURERERE9RanrhMRERHVFgOdRERERET1FqeuExEREdUWA51ERESnkYvJWERERERERGcEA51ERERERERERER01mOgk4iIiIiIiIiIiM56DHQSEREREdVbvP8FERERUW0x0ElEREREVG/xYUREREREtcVAJxEREREREREREZ31GOgkIiIiIqq3OHWdiIiIqLYY6CQiIiIiqrc4dZ2IiIiothjoJCIiIiIiIiIiorMeA51ERERERPUWp64TERER1RYDnURERERERERERHTWY6CTiIiIiIiIiIiIznoMdBIREREREREREdFZj4FOIiIiIiIiIiIiOusx0ElERERERERERERnPQY6iYiIiIiIiIiI6KzHQCcRERERERERERGd9RjoJCIiIiIiIiIiorMeA51ERERERERERER01mOgk4iIiIiIiIiIiM56Npegt4mIiOgUy86ejObN/yKWv+qSiubOnau3iGoWExOjt6ghOXJkKQoKNqN9+yd1CVHN+LlCteXpc8VRUoK3HQ78MzhYlxARnV0Y6CQiIjqNahPo3NsuBue1AZw2XViNzi1L9FbdyI96m010Lj/x5Uqs5W75Puvre/2xbxcx0NlAMdBJdVWXzxVJfbbU8P5T3fuTS/zvj35vZP3J1/+2eiEDnUR0TmKgk4iI6DSqTaDz12YxmHe4DLnNvHWpZ7P7l8rvJm76u4pbdfteXtZSOhvtS5nPQGcDxUAn1VVdPlekOf3LxH/NT4zar/nZcnar7nOFgU4iOtsx0ElERHQa1SbQ+X3jGHycWYLcQnnr7Oq/OG55VNZV/KJZm7XT6SrfExtmVkeFNevrdf2WhfMY6GygGOikuqrL54q05R8111dHfLT84e+NrD/5+s0LPH+uMNBJRGc7BjqJiIhOo9oEOrc2j8G7e0uwb1shkFf9cwLXv3ye3qob9Ukvv+2YuH/W7e9alsxAZwPFQCfVVV0+V6QNr5ifLfKNR74BmWredzrFf07w3sV9Y1OpZ/u7lnr+XGGgk4jOdgx0EhERnUZ1CnRuLQCOFOuaqr59uZXeqpsya0anZW2qXM76+ldvX7mAgc4GioFOqqu6fK5I306xfrZU9w5lKt8vE18jre9Z1bVkff2sz6nmc4WBTiI629X86z0iIiKqN44XOVFY7Kqy/j6jCOvEUl292hbfcyuvj1dT/vvr07Ep6UscrLbeWHs6/uCq95H+c/X11rWqT3sef2n1L6yvrt5Ducf6PbPx789yxP5a/LtVDJbuqePxp7meiOh0KSwRnxPuxdjPOVqKKV8cF+syj/VqqcV71xmp/3kufliVexLHO/Br0lzsrbbe81rW7/vsVvzlhbRq6z2Vn8rjT0U9EdG5ioFOIiKis4T6gim+oJjrL7c68eF3RzEloxgvieWj73/Dl1vkl9KK7Y4XycXpeV1cTfnvqvfC+d42tK223rKuVN/WDzi/UfX1VdbnyX/KeKNjdfW1Or8d//3n3TjUxEts98frrgV4vKO1/kTHn/56IqLTxXifEYv4vFi/u0x8rhzByz/l43vfUrWW+7JcBchUO92+Fu9dZ6S+kQ2N/WzV13taq3ovtBWfVQHV1nso1+uAJjZAfWZU0+40H38q6omIzlUMdBIREdUTjz/UHK5pLfC43BnRCq4ZrfC+qjGoLyjqy4ux/mrnQSz0boLfjrRQi9xO3XWwSrvjOvvG41p+cfVUbq491O9PnYqts+Xyb+x1iPLcVGxX+1OxfV2uaufCQWxeLMqSpiLjV3lcLrLlvmy3OBW/qf5ysXdRedlRUaae/euqeP6c+bdhSMdGYrkNK7Nk+VrMVvuNkPjGBvXalJXYsfKhRpi9TtYb20liu7B4LZJ02yEPzYFd9Llxqt6XxyfbcXzdh3hlEbD4nmAkzl+M+21D8ewW3c+DZlvj3IXrnhf93IZE6/GiT7t7jGKZurbG16/Cupb1REQnpxG+nNYWhx837sP5/nNt4Xqumdo2FcpsP/2LsZ/2HcMi3yb4ubC5+lyRa7kvy2W90c5oX5v3rt9fb/nsmD0P+0XZ0XX/Vp8t6jMoV7STb5GHv9afQ0abwuKfkaH2xZL6s+73Z+w2y778WfUvD3Wq85jn058ZHcrf962fOfJzJEe0K5UHulLd5cZnjwubzM8Xcbz6DJL9ys8N83jx+SDbGcfL19HyGeU+nxy/OZ5q1qegnojoXMVAJxERUb0hMzx88VCk+DLa29vYt5BfUOSXE7nOPlwKR/PGCChthGcGlKhFbjuaNUb2kVJ3O/Vlp8iJAhn0PCXrdNiO98aIp57CU089iJtDnDi0dSOCBsn9EbgodxUOFYkvUEePov1QUXZPb/g50vHb+s/h6jZCtHkKI7rtxqH1DhwTZU5L2WFRJoasnnDhPl/mbHz2WB+scYkvpGl98MaLs/HrgtcwJ2YWckTZvGjjtSkrsuFP/kDY+fI4Y7ur2N407Wp89uwauFw5mOV/D3763onbXxB9qf4S8P3/voF94H2YFQNEJeVg1f1t0VX88+hP/k6kT+uIN66Qx7qQk+Slzp1zvg+wvA+mqLIo4/iiHOT+b6E6XvX7Qv8aXr+TWxMRnTQ/oEXX8/A4miE6UOyL90cr8xdjjt9K8WuZF5xH/DA8zKY+V+Ra7styWS/buX+RJpbavoed9NqxGa4216nPiaeeGoa/iM+g4zta4Dq5f08XOLeKffEWefRIG9wmP0su+w22X504+E0KWqvPpadwXaMU7BVlh0RZK0vZvl9dkO+uTuv5vv8GnyHB+MxxzceEMPlZcDXmWD5HNorPEfVZ9XNnTBbt1jwLzNmQBvuC2zAxy/hskp8vn93yPDaJz7Apt2zCrCzZ3xokvHY1/mMeL9p5Ol+Nr8cpXBMRnasY6CQiIqonXnmnGEfEutM1LRB9HlCaW4D7jCpFBS1lAFMsyzaX4rB/IzX9rWVRqVrktixbLurMdnJdWib6OmXLn/GXsJ348MUX8eKLL2H2+v1ok9cRnTscx/vprdDrgdsRIdrh/C7o6CXKDrhg8/JGm1KgS1gr0eY4dod1gV/pQY9lZo6J+3z52fgK8ehvs8EWHg8syYbf0QXAxR2xRxy3r31v1d4l2qpjxX/kcca2Ay33AVEdQ8Q5WuOaOS78axDwzbx/wmb25+2FrlnitRQHOItK8PEuYwQupz62kzz2OPZcFoUocW5/WR3TCd6yLFCcWx5fdgHuHZeA+cODjH5v+hQHzfGfooWI6OQUYeB34o3L2xsPPd4ILUTJjuXHjCrN/MXY5z+XYa/8epjvg45NytTnilzLfVku662/cPP0XnXKl9BIhLuWi88b+ZnzDpZlHkRpp+5oJN6D33cNxP23/hniowTnh/XEXlH2cwng10J8LhV1RJj6XDqORhd2RCPnrx7KDqnrl58f7vMNkr/40p85Ni/8faXnzxEVJuzVCYdFX86OUYCPD/yPLhJlxmfT+93+igSko2VmNtajN5p5y/P2xeXPAiX5DuN4oer5LGM5zQsR0bmKgU4iIqJ64ziSj4vvS+181ZfR3V+LnWpEXOiNlnlFsBe4kOvjrRa5Lctk3elTgoP9HzSya+7pjcaHDyKg5R5sSZN1pVjw4TtYcVRuu+A4INeG9q2BnZty1PaPm3YCrQM8llURGoood7aLXOIwtKv4UrlpF1aL6tU7janrpo17HOK/u5E1T+5dgAt7AfO3Z4jtvZh0vQ0DX34Pb9/pqzNEE2QjIRAdeupNN+ux4jxfJmN+TCi6yx0XIC8xXX67VkqxrPvTxviyZiHqi2ycr2uIiP5wHxapX6KF/ckGlJXhnRSjuLLIbl5o73IC/qXYlWd8rsi13Jflsv6MO1AE/ygjC/OpQS3h42yCFru3YKWq24A3301RgU4ZuUuXayXI8rkErNy2By3aXuyhrI2xY5XdBtfMNj5vZKZm2XHvqp8jM+TnjFDmUuc8qqOW3S2fTVj2JeLRGxf2l59hG/DrZlm4GsueAfp0uUDuGKqcT/dNREQnjYFOIiKiP5qRRKjct0Hv1PBlVGrdxBttjhaKL6JFeD7NTy1yu81vhapOsfR76mzGt2++ZGTXfLQTna/qiYCh18Ev/XUcXPY68pr0R0wX3dTCdeXN6LJvtmpzdF8X3HhlW49lVbQahn88a2a72HDZS3twOPpNzLLdjXG9muDzZbodAjHg5igsuT8U9/eaii0xsqwUFz61BgkJfxFloXi/+SwsnHQr/mFmz7ywAVHzMrBPtGvVKQoLR3bA28sPqt4qHtsE4/5uw6wpw+CjayvbOdHLyOYMuQPzn43AVbqciOgPUeH9/5j6JZpUevA4XjE2q2jWyAudXGXwalGMz3a51OeKXMt9WS7rz7ijX2PxazKbUywr/r+9OwGsojj8B/59uUBA5U6CSTAQRFBQEYoBtTY0ilaMJAQ1noi2pRGrFH8Fg1I1WH9/PEBFWgPV/pSIYgBBjhqNWmKiRVBI5VAwQAJ5CQIKSQwvx/vPzM6+t+/IxaE5vp92fbuzs7Oz++bNsJPZXSD2l6Nx3VgbykW7cWjtB+h9xTW4REd1q/FslwKuxXUDHH7C/Ny+XboE44KM9mbUo4mYcGWYbzuSaumotAiytE333vYo0vMfxnldbsG8TGB6vAgb+ivMezwP91/s+iuZn/35T5uIiJrO5pR/PiIiIqLTorj4MZx11pVi+pUO8bRs2TJMPJggIh4XFzxVIuRMbFvcEeE7ytFtrueIzowHuug5w5b9QEl5OfICgtXyqLpqhHfpgou8r5NkS+/5uE9PzVofjAlDgtSIU7niQEkV1h4UYUN12PEaLPoamDA4ADu3HUdBzw64o3sd/u9rJ64bHIw+sg+2tg6fyXUI8glDv44Y6KjC28UyMcMV552BgR2MeUeFvL0cru0ctU6EiM+dBVX4Xmw7srPMqFOE21B59EeRjiW/ah+1iHTtU8QTn4Vbxbb9jW0dFXWoFJ+V8ri+83OsHTvinrOcRv4j9PxXx9F1oDuPxjmo1gvCKTj/Z+98F8nJqveW2pnvv1+Dysqv0KfP/+gQoob5tivCpO5wXh6AnDe/w5j3jCCTtW0pPCTq0+/KsccWiAM2Y4Sn7OQc2LMLonvoSKZTULc1ur6XaEPCA+RjRlWArOs3yLq3m7Hh90dEPY+OuCOkRrQNNRjiakMs9berTvYK2ynapQuCcGybSFOGSbLNsuxP1fvWtsDSVo0MqlXpyn0a85Z2Tvj+sMibaKfVetU2CTovrm0OB/jZn1po2vk5ifVn7/DfrpRWV2NhaSn+EhGhQ4iIWhd2dLZz8h9C1L60lgtllk06XX7q30CTOjrXjwEqavVDv+qX8YhnR6dp9yFjdEj/HvWNN6TWrr4LUmr72NFJzdWcdkXy17YcO16H7J3G7eo/y0hOOu3Y0UlEbRU7Ots5+Q+h/b2TcUZP8e+ghv4iqPXrZhmh0gyymMlbMsy/LMpSJxfdy1z/U6w/mruyVXV0NrVsslxyfVPXH/vkp/8NNKWjs6llPbi2/md2UtvGjs72ix2d1FzN/fc925b2iR2dRNRWsaOznZP/EPr6zGS8faQWZWfq+ywa8NbltbK/wOw3aNYn/fwOZC9vVR2dTS2bLJfUVD/Hb6ApHZ1NLeuPRVWKwitLr8HVmWty9fYafNZTq8WOzvaLHZ3UXM399/1jfdnR2R6xo5OI2ip2dLZz8h9C/+mYjP/bV42yKnlbSsMXxP+939Zox1Gjn2LGvBb3+OT6077+q5Vvt6qOzqaWTZZLrm/q+m0/w2+gKR2dTS3rGVcf13PN0+wOUa5vceu77lzDjs52ih2d1FzN/fe9R9vSjPrpp6j7uP70rWdHJxG1VXzgCuHMECDoDDFTWgns/rHBqcrhxI/VzhP/FNOPYl4ty0/rMtef9vWtTVPLpuv4T/RTTA2dN65vO+tbqibXwyfI40JH8lrm+la2noioEc35972HZtRPP3ndx/V6xnCy64mI2iqO6Gzn5F98t5+VjL/vr8aB7eIfQt879Br/Nvy/buK/spGUxabpn07xP39rTf63cmvq+vK8RdjT/R5ccH5zty/AV2+U4dxbxkA+jr2+9P1tfzhrIhK+nYYND11mWf8pXuv+LML/+xbi+zS8vaSWP/8r/omZuHN4Pev9fJqaur7k/RWtakRnU8vmT1Muy7D7jY/R5ZZkhMqVgvd29W/vWb5M9W9vR/akSHx0fRHmJIX5WW+of3uDU6Tz/twPMeyhW2CzlFNTY9sfEtvcKLb5t9jGf/oNb9+k9aLcX7HgXLzzyi0wv0Xz+A+kVnv8Hvxub34eeAP/zP8V7hTny+S9nfy0/wy/gaaM6GxqWc+43//LiBoT0SPQuODRJ8M1qMO1rEd9cH2LXX/sk3c4orOd4ohOaq7m/vuebUv7XF/fs/s5opOIWjt2dLZzzf2H0Hvp3WS7aLaP6rP0WA3e/NyBm4aHIPTMIJ/1xqdvyOn4PPvLRfim+z3oHdW0+O7Pr1C2ogwDxl+FH5oU3/3Z+b2bMfrbaXjv9yMt4QEYFRqA48eqsamy4e2Nz3xkhl2JqI8cuPz8psQ/sc/v/902Ozr9lUv5WSLK5luibE4UZTNclE3fs+IbUv/nIVSt+AhnjZ8AR5PiWz+bW75KUTg1AuvHFWPK1bJbtbH4/j+PrJiImz5IwicvTkTPbsE4L6AO2Yfk61ebtn3n927SZfsXftefks8d/w9XLzgXn7xwEypc4TZc2jsQHaqqkXe0ke3VZwlypkRh+/hipDZyvr7/d8t8GVHy5ZfrJSL/luXmsqOznWJHJzUX2xVqivraFXZ0ElFrx1vXyaIDPpjfC0f+JO9zARY90QvOJ85U86Yfj9ehUkzy84PtNZi99iBmf/kjcs8OVJ9yWYZb4xmfTjXv99PRxPUl76Pg1Wex+dVnsHl9gVpfsl4vv7oMJWK5RvZnfPOWWBbhy97HEbndNr0s4u3cptPdtkxv96wIk+nLo3OixrrfPZmYHRaCq8OCxfRXfHG8BP+aHIL/+1Sut4v5YDHvRLXcZ8EzIq6MZ67Pxe9t4/Gk3N+nT6pwmY6Mr9L/9K863RDMXlaCA289h1dFMo9fZWz/xVxzv8Z6v+fF/Gzq+RPLrdcZ2JbRC9vuMuat5VSSx2YtbzmiDD4qyuJfdNmUn3JZhtdbLi3lpCCvVJ03z/Ilv2igcL1Rbgry7D7bmeXrSN5ivd1iFJbI9OWWXuXLT7k48NZE/b1PxWqxO/lnqANvJePqufnu9XPzxLxR/oztnxRlU2zvXV4defhkygrg7dswevIbWP/38bDNyFXpWMuXtTzPnmzuX25fZ5RtfIj/88in8Tvw3D5fxDHzk4x/7RHx9nr/fqz5d+LAMn1cqt81y/X7mf2WLO8H8OQ4G37/ntxfnmv/5nnw2N/kTBz49FU8JQ71nTsi1Pbu8yjW6/2Z552IiIiIiIjaLnZ0kqcQoOuAM/AnnAl1B2hnI9hkff7dnu/L8d+wrgjocDYu7NBJfcplGW6NJ5+R53pOnr9PHaex9UeL9yB87J/x5z+L6ZaLUFWWg6OVw3CXXB4bgKMby1Aj8lgccIGKc22vPagt+y/2/CcA18o4f74WXf/zNg5W/xeFPmHG2L4ay37tW1ciP3kJSpxinfMRJFfb0P8MIPpMud6GGD2vOldtE/CmiFeSmYjX/7kUJdWBiBY/r/6dPsUbN27BkiKRRtESHL3xr9ha/Skyb5yN9HwjLHTqq7Dd8xDSRTIybEHcpyh9xpiXA64/nhzueT68P5t4/uRya9ZdTIOGnQnEn4ErOwHi/y7W8iY/Gyqb1njW83Sw5CiG3WmUr6ljw1BV6l2+DqEOexF0oVFuwu1f4QdRlnzKlyiXdnt/Y7s7+6MmL0fE8y5f/svFxvtX6u/9IYx4W2wgvv+Is0Q13SVQbWfOlyz/I545wyibeY/PRs5yO6pibsPHqqyWYEnybJT9ZzTuE+URsgyvug1X6m3ty2/Cn/focp2fjtfFvrfo8hyaslBsnyfKotxel+2CaDyq9gO8vvFTkY9wPLRK7keXdxH248aP8brYKk/tfwUeihG/ny3evx93/uX5jjhTH5fcx9uXqn3I/OTf/6orP/L3tfW5X+JoZolxXHt+iTc2OrFFhL3+eJ4Rdsad2HjmPeKYgUQR7+N7bDjw0Uo1L/PofHK0x/fc0mzf7n+UJ5E/srzs2HGtXiIiIjo5v9q+HXd/+61eIiJqG3jrejvnc3vwjWfBOdqGXTuciDlffL51EAOydWThlQeNZ/js+q4G//iuFsd+6Iq0WAfC6mphDwjCnPxgnHn297i7ZyBiegaLmKeueF3Q92vsfHE99suFTkPR4+LvUVP1K1x6ztn4qk9HpATXIPffi1HW+x5UnVGNc7b8ExVR0SgpDsOvh5yHTxCMQQWLsK9bNL474hUWORLHtx5EnyuvwD61N7m/L/Bel9GYpZYS8LucFzD0pSiU/K4S/ft8h8rZxvzo4ttw7b5p+M+EYUDps/hFnBOLv7oKhRc8h/D1N2L92DuwWqUhJeKZN2/ERzetxA1fvY6gHh2QEmrD3m2f4P8uuALIlmkHY9SWmzAwZbmxydQP8Yq6Lf7kdf7K/9sVWyLvsvmnh87G072dyCmzIU58Lr73O9yj4xrl0rg12X/ZDBRlM8RSNoNc8U2ju+TivTc2o1wu9BqD0AHfoMqjfNmx9rWPEX5zArYf2IGgf4vyMtSJnUVeZemss3EoSG/X4weErfgQx688H8dkfLN8lb6N5XENlAscQs1fIrHmun34HR7AtYUP4pWbLkXYf0RZE/OL667A5OBcVea69j8DfWuqkbl3Pz6dFo2//8tIcZYoS6psrknEuscSAT/bftXnC+zv9gzOyJmHjqJsf/cHB6JCS9W+9/7Ws2zXfH4bRu028vHD2lvwwEPvGDt6dIM4//0R8ts+uHWZEZSYWYkZN3j/ft7AjXuNPFiP5ZUrPsakl89F3l8SsRPLsfqC5Rit81Pyu0J0+1s0/pSlElHGLfoPrlr3C3xyQxHGDQ/FNQOD0elYEZbcG4Xs3+xDwi/CcM33/w99Rht7xjWvYN6zN+FsY+mU/QaOHFmFysov9FL9ZBNbWbkFDkcxAgN9n4F29OhH2LfvLd5iSI2StxhGRU2EzRaMc85J06HtS3v9J6usP84++9fo0eNmHULUMN66Tk0h25WJUVHoHRyMP4SGuurYqro6nBUYiIfPOUctExG1NuzobOd8Ojq/74AjGR3RVa6srcX03x/GMyqmwXxY+e5DNfjn4Voc+74rZsY60LumFmVBgfir7Ezq+j3u7B6I/j1kZ9KpFIwJQ4JU3rYu/Ru29uuP8k11wOVXIuiHj3BkZy8M6/M5SrreiSqRzaj//hOVv4hF5dvbcOS6G9EBXyFg7S7ETBmE4oVeYXcMxL53DiJ89BUoNHYmmPuzI3NiOLbesQ+R/4zCv64pxA0ji7Br6JUIfq8Ssftvw28mXYwZW6ej52e3Yfp7ich9pC/WD30OYdun4dCgZxFTlIUU9ZgbJw4czcOisy9H5epKxHR8EwvjV2JY9osY+XIk9t5bib5hwJB+HTGysw34dA5sT0fh6dkTXB01J+PsHa23oxMjuqB6YiBUqfqxCrb7j6l4kvUh+idcNnt2wB3hAQhBKbIX5uDrMT0R+IG1fHXGgOoD6DQ6AfuwAx0/EeUlIRSl/+dVlm7qgW3rzO3+jeP/DcCI0T3xtYxvlq+em3GgTwPlou/nqnztfGUf7sUD+M27Nxpl4K1OuDdgA3L7P4fLVxlh3/29E57Ch5iBX2FrbAnW3ApVXreLsnR90LO47KVzsebRRGCTKKeFD3pse/bWp3HvbQFYdeAO7Ls/CvbfyvL3HY4/bsyrsi22yZhwKfro7TPOex/3Zg1AyXKxozeSEL5Drh+J6wYHo08gkP+EDX8Nl7+RCK/fTyWu/E6k4XUsGZd/jHuv3oTHspegT9UzuHeczZIfB34hvrdXB5Qg6xbjJUOOilr865kg3FD9b2RMjMRn06Oxecw+/KUqCv+I2offXNoTiOiIe7qJ309xJpIiv8W1W/+ktpVO1W9g//7H0bPnbWIuwAhoRG3t93rOU0HBJezopCYxOzoDAjph6NCvdCi1Fx06nKvniBrHjk5qCrOj87yOHfGv88/XoQbZ+dkpoGn/xiEiamlYe5GXY8j60ZirOfSjRyenlewoGlVXDVv4j/jHriC8WtZRfcplGe7qSDqF3eg12zLw9//9X/yvmNY5YxF3/hhcH1OIH9Y+j0Of7MWQ+It1TIsfL8B1Y20ol3HWfoCQsTchdK+fsO90fKut6ehms8FmC8ety9IxZnQYRt+YiNX3RuPeoc9hm7WvJPlLbB7aCdPvXY70B24xOuOkypG4ORO4NVKmI6b7PsbavSNxf346/ndcJ9wbPwlRmQvx2AWhCL0QSL+6E9ZsLcWixAAjfuwsJI4fA/5TVcj+EXtqjdnvN7s7Ob01uWx6Ob52Lp5T5etVfB3zK/z6TO/ydZ6OafGdn7LUwbpdIfqPG+P7M/iukXJhKV89RiUiMesOTBfla9n2RBUWlPQiltiMsKcWpCPvmctx103pWHtbuEhvCpaIHW7ZW4qC3uci8e3b8Jvpb+KI2tJz23tvexTp+Q/jPH/lvz7XXY30FbchXOT7FjmC8ytxrKVLMC7IOJZRjyZiwpXn+Pn9+D8WJdmGz+JFfsY9gsTMuy35qcF5ty1BXYo8LpnWXzD7WwfO+3Me0tOvFOcpGovOWoKVqWHofm4iVk6KwsJ1pdj9iP79RN6K5Y/H4Qqd2qkmOx6aOnXqdLHfaeTI0/C3xpIVSHpuk144QSVlsIsP+8p7MKfJSZUh83fzka+XTPnP3YPMEr1w2vjfd6O8z5Vc/t0KcewnmN5pJsvLiBEVfssYp7Y9EbUEzWsTrMw6le1ES+McORI7L7oI53bo4DGxk5OIWjOO6Gzn1Ki5M5Px9wPmiE4HcFd3OEcHIOet7zDGctu6ZB05t2U/8Nn+I/jurI440qUDupUfR8+jVRh5TjdcdBrudHCNcpSO12DR19WWMCcOlFShSORloKMKbxcDV5zXEWcersLajnp0l/D9kR/VOteIL1dYMCYMDsDObcdRoEIFSxyZ/s6CKnxv2Z+j1obKoz9iZ4gI6wg4Am3yEac6vU3YK0d0bnodwwf65tuatqOiGv/3bY3I7xkY2EFuX43Ks4zRcdb1p0KrG9HpVTb/9KeeePr8Oiy+97DrtnXJWi6lEymb5vmXzHPuWb7Ed9A7CMe2VWGDHO1rlhefsmQtq0a5XPudb/nyV57d5cIoX6gS+TgaqEeainzVOhFSUyviOl0jKM2yuaGhbWvrsK/Khqgg723NPAepsE6iPFvnVdlW2+jfmpqHa2S1yo/Y32dlwCU6j65jtvzuXHl0jZq1HEtlIO45Syzr349x7u2uUaV9L3Rv40rHMrob4tg+E+cV+nzK7QuDgl3fpevcaqdyROc558jb40/+QsDfyBv7oYOorq5FWI8eCA6WjwFphh+ykfRmJLJ+6zk6o+k2Yc4fSjH5pevE/kOBmlKRpl7VoHJk3r8U0c/fg1gdIuW/nIrCmxYg5VQMS6+X/303Jn9BBvCX6Yg9KA9QXLT+4WLcGvRPlDx/I8Kq38GcNUORdmNvI/LPrL634xIReatvROdJtS2C/f1ULI5cgLSBOqDJzDr6ZhSynWgx2K4QUVvFjs52Tv5DaOLBBKD4OFBapUPrl/GAZ4eSdKiyFjlf1yLuvED06KR7T7zJUmb2efjTptZ/hjVDf4WVSMeqA9NQKkentZD8tbaOzqaWTX/lUmq0bLaQ76Ve7XJ9qbodfdF7icgoeN2IU58TSL81dHQW7NqBwK4vYW/xQGz5DEi99U6c2cWzjMtRNeF/WKvm01cfQNqlckRMH4yaKwJuvBGJF9+PrN9WYM7v9mHy38cjTI5AWRqFrAeBOX3GGc9OfWg1nA9GIvN34qJNPzA28aUvsQCzRdrvqPUl0QvFRe0ipGE+bOP+V8Ux9idHsnhul3VjJ/dFpNzfpalYjuuQOKEDkp6wXMC68iIyrcm851zpPo6cK79E9Mte6Ue+gaSXC7B89RDkHbgcOR7HMVDtuzD6UcwS58DID3zzaE1jUxSeXj1UnKf+ar195e+RevZNGLaiBpOfj0dY5xpk3p2B6BemNOui+HThBSkRNZW/js5G2xZXvS2oevVSS1tzHZZsWoS4r1Kx+JvzMOsJ0R6MW4AS2b7IP4551MeiIt/k3Wb46eg8He3EjUWi3VuIzavXYthqsWLcCbQT1jReWYDNe1tPO9FcbFeIqK3imHQS/xgpB76tknetNz75ITuQki8Oqb+TU2qoM0JqU+svxytO+aZpyy3BLSp/rUhTy2Y9Gi2bLf17aZfrz8Fja+Xv521c10MH1edk999C7dxTjFqcj7raLcjJex/FJSWordXPbVA2YfEHKfqN9iWIfmU+8sVF4dOd5ZvoRdhDlxoXqugMdNAXsZ3EZ+fO4iJtETbrN9LndV6EzJJOiHtRpiOmoiVA6UGETX4I6fKN+U/GAV06iElcxI7rrN+qnycuHOWtep1E2olYUmSEDfvgc3Wruyl/eTaS1LoMJOkwl5h7kCXTtogemojNh8rE3CbkzE1HXJxvvtClM5YPf1iEpSPa5zhkKo8CCdb8NJxG7BFRQffXQ7zF+Uv9YCIWTFAPzTVUnC3y9V8UnvbbKYmITr/G2hb7l9kYlq/rTFVHi7bmD7FG3V+Ugqzlxu3bswKvN+re4dnIEfVj/nPjxH+M7fI6j8OcTf7aDF+npZ2Q7d7qWEwXYZMPnWA7YUkjrT/bCSKi1ogdnYTn7uiOvz3SCy/9pfFJ/EtAb2WQ/zDw0Nj6dqEabxf8iEXqFls6GU0tmy7NLJ/UEtVg7Tbj97PW9azO9iU6PBy5uXbYbGfg3NAo33Jc8h02ZxnPSVXPQF3+NQq/kRdjYWKduNrq1ReWJ6B6KCwNQNJlnVS82LTlSIkJBd7/jUhHP9PUFggccojfSg2gbtMTDor9Pf4rxMq0Sy5C3ONif+qi7hJEnyXDqgCb9RbIMhTuvFSv64LoITrYVHHInbYWNlrkeLW46Nz0OWY9/kvE/uAnX0Jivz4izYN+jkOuFRe+l1jz03Aa9uIvMayv0ZsuL/CXy3Pa4ZeY9fadSF0pL6YrEN1PnDPzAbdERK1YY21L2G3TgVjZrogp8VXYZVvz+FVG3X9WMrL+YnQ8pv96mKp74bQBnUR9Xyjq3qGy7hX18a/Tsfmb3fW0GVanr51Acl9Ei30XFp54O2GmYf+W7QQRUWvEjk5CxY/A37bWIv1b0fw3Mol/CRgbafIfBh4aW0/UDE0tmy7NLJ9ELdGwwYOxatVu9D33PJRX16BTp04IDNQXX1JMPwyTIy7FRaq8UJWjX1NGRgO7dhvr9xXqEZ0W+/eosGhxoZf1oXr3P+wZ4zAn40mkBmcY6eSnq3AfYWJ/j76vR+TkIOfRYSodcZUrr/H8iBYXrZtRuEvOF6LQ9eDjBvS4Ekm2d7H4P1uRGH0OsKmefMkOWMHnOP4t5+o8nyXaSBph/YZh87dGGmG3ZelzmadGsy6YLM6nII8hOkrNEhG1ao22LYcuQZqqB/VozU6Wur/iPcxJfBWyaw/V1opW1vezkJNjLOX/axaGjby0njbD6nS2E0YH7sm1E0YabCeIiFondnQSvq8GDhyuw4GdtWKSn/VPJ0r+w8CD1zLX/8TrW4mmls0T1eK+F67XM4bTvb6lkh30hw4dQm5uIUZdPFzdgV9XZynnFcMx+cZlekSnnB5GfvebMN0WD1ufPrC99KUe0TkScUPuRLglLGzii0hae7GKF/5BCib/8XoMu+McI521dUj/717Yca64BBXbmW+ZrR2OtPxAjJLp9JG3KM5ArN8OTlMFYu9IQtalMv6jyNKhLvLZa95vha84G3HjbZj1BJA0ugcQ5y9fbj7H4XmHo6GRNBDWV1yhytsUhUOlatSPGuUjO0IPyQMsQ+FX4gI91IhCRNSaNda22FcmG/WlmEY5pyOlj1fdP+Me+L5yR9T3D8vb02WcPhgVmIe0i4c1oc1gO0FERKePTVwIto4rPzot5MPKt5+VjL/vr8aBHaLhLm+47ztjCvvGW7NW99b1JpZNlktqqtby1vX1H32IF5c8j5Tf3IHRw0cgQlyoBQZY9iXfhh5iLosLrhJxIdYrHAgSi/LCtU78ZuRtfz5hIm7oWUa26xxAqVgO7yQTEcmI+QART778S8apqxRTR+Ot6+gFdJIJCZXiQu+HziKO2E49z+xsMS/Wqe10WGdxEXqWfFe+3K/4KBdpmBe6cl0nsS+v2xKNYxKfR2VckaZ3vqpEpoNEntTFpdy/9Tgs+3blx8+xWdMQ+ch/7kngt7+zvETC3PaQOKdrMWfHNUj7lWXE08+IL40goqby165IDbYt1nalRtSTso4+26vuDxJxZJsgq+9eYr7Su76uZztXmyHWn852Qtb7Zh1+ou2ENY1W1k40F9sVImqr2NHZztX3DyFqm1rTP2hYNul0kL+BG2+8AoGBXREQ0FGHNt/p7uikn8jx95H0UjePN/saypD5h3cQ/eYDiFUdqz8/XpASUVOxXTmFWlE70VxsV4iorTr5KzQiIqJWZNu2X2Hv3j+KOf6dr93rfpPPm30N0UjJerjVXrwSEdEpwnaCiKjVYUcnUTtz9KOjcFazg4far6qqHSgrexk7d16LOnk7N7Vfft7saxAXrur2RiIiatfYThARtTq8db2d460t7Yu8RSVqYhTOffFcBHZp+HlCzakaet7SE7YOp/aN5iybdDrI30DfvreI8l2rls85ZzY6djTenGrVWPk/cmQVzjvvbTHHW9fpp8FbDImoqdiuUFOwXSGitoojOonopPzw/g+orTA6jYjai27dbhD/PbWd+0RERERERHRyOKKznTt9f/HdhDm/24fJfx+PMB3iP6wBJWWwh/dG2Kb5SCq6BVk39tYrhJIVSFoa5efB4KeWfeU9WBy5CGnN3E3+c/eg8OZFSAk3l/sg58oDSIOfY/kJyb/cXtPrGpw5+kzYgk9NJ439eTt63tYTQd312zVPkVNfNptZ/vxpqEw2xE/8Ey1bzXVqynAZMn/3MPAXsXzg5y3DJ0uNao6aqOY7dboIF1zw6Um9lOhUkGV97NixeonIv/Xr13PkDRE1CdsVagq2K0TUVnFEJ/llP3QQRXY7qqurdUhzdQY6dNHzpjikrbyniZ1MmzDnic+N2S4irS6djHlTJ5F2ZxF+unXpICY931QlK5AzNAMpMXp503yMmis+ZTpx6ZhemoV8teLncdZVZ52yTs6fw4GDZSg7fFgvNYe/MtkcZch8IguFclZ8j1mTfW93rpe/MnwiZetEnIIybF/5KG5dLdKRh9ACyvDJ6tDhXHTvnoQhQzb/7J2cREREREREdOqwo5N8FOzagcPOJ/Bfexae+cfLOFZertdocjRlnz6wyem5TSJAjvaarzs+5Ki5FbCr+RVI1fHmyGjIwZwbF4l1Io65vSuuJUykaV+5CLNW3oNwlb6bHBmp4sxcoUPc5Ai0zBK9IG2ar/NnmZef5n76yDyLvIvt5PEkrSxTo9+MdZa0cvQ2Zl4bSSN/eTaiR3dRzyhXxzWuM5ZkJsoF4IeDiI0PxtMiHjXfe5/+G9/+8AqyNy3BwUOHdKiFT9k0RjQa3998bFYh/surq2yp71Su8vqeN2Xh1pVPYJSMnzMLSYtll6dMS8fR6bjLkDvMzV3OU9/RQRZNKcPufIpJrWt+GW4sDY8yLM5p6gcTseRxmZDQBsrwoEEfIiZmqZhjE0hERERERNSW8CqPfOzcU4xanI+62i3IyXsfxSUlqK11P4PR/mU2huU71cs6nE/GiZBOQAdzdKVl1Nzbl2K6jOPMA16RHSzGurKViwBz+xnfIVV1zizC5swSFZbXeRFyxj6E9OQlKFHpayUr8HTnPGO7hy7Fch1sin1ytXsUpTTwAiQWfmd07Pznf5GeEAf7wPuM7eV+Hv8ahSUi74UdkFTkRNbkg1j8h1jkyfVFKchabnQwzQq83og/PBs5JeL4G0yjEwp3XoroHqqXE/nPjRP/mYm4GssTInqfy7c0nqANm/+LzV840Sv0PXy7d6/PiGPZQSe/B/ndlAxdhDmbNmHxBykokd/Xi+atOX7KqyxbhaK8yXj5nVUnns/3PPC3WJKcjryV9yBMj9CUIx2zbjbKbcnN2aosyxGUiWZZ1mXGJMu5WfanD/XtrG+8DF+A6D8Y28vfVbpa19wyXNZIGtYyXIbMJ8Q5fTYZ0XUqKUMrL8NyRKfNdmoftUBEREREREQ/P3Z0ko/o8HDk5tphs52Bc0OjVIeIVdht04FYm1gvpsRXVSeMX8l9EV1SApSEITrgO+OWX2Ff6TuYZW4/ejaWlx5EYWkAki7rJOKWIDZtOVJ6OABnDXDwB72VcOQ7oH+YioNefaHHSLodLNWjKLXQq5CEd5BTsgk5T6Qj7pIfEBa6A3PkfsU06lERR+wSGIbos0Sa/y3G5sevQqxM/6xkZP3F6GRN//UwY59Om4rfYBqH9orjFMetR3PmzIU41mCE37ECs36lRwqG9sWwr4rrP29Ur0vPPx8XX9wB+Z908CmXslOucOdK3BppfDfht7+Dzd/sxuahkQiT31/XSPEt1UOWrfFXGPGGzlS3pft8z7U/ijJQB5S6R5IWlgYiKdYot2GxE1ydf8MijDCzzJhkOY/uIcLFuuh+PiW4CWW4B8J2zzB+O7ZRmOWqwptThsWxNZSGtQyXfI6sleKc9u2AUX9ZgVtn6hGqLMNERERERETUArGjk3wMGzwYq1btRt9zz0N5dQ06deqEwMBAvVY4dAnS1Ggw3xFrKNmrbw8WlhXqzs3d4jNa/M8QFZOIdHNEp5xmjUJ0DJD1oRHbnjEOc/6tZj1FiRR27Tbm9xX6jOj0UXE24sbbkLX8c2xOjkL0D2XIvC0XcWq/JVjieva20+hciumHYY++b3RGVryHOYmvQt2cW23pbJUj3BpKA/3FcZrHHec6TyWZ8pjTESuDd32LzUP6nfgLcdqxhF/9Cvv3H0PMeRejY4cOCA4O1mskUcaGJGKJHtEpp6z7L8Wwgm+NDjl53lU8C7O8yrK1/D0j3o6XkTTrnXq+Z08e5fbDt0UZ6q/mUWvtrXST8Qv3GfOFuxotwb5leMfrSPrYGJ3pLFpi6exvRhm2N5KGtQzH3I4sfS7zHhfndr5+xi7LcMtWtg4zXy7QCyeorBSl4qN07UxkbDGCGleAjMREj/gFL8/EulbxlINSrJuRIY6gmVznWm6fiERx/ImJ5jEb58MIk2mf4D6IiFqI5rUJVmb9157bCYPnOfRuJ7zC5Hanok0nImpn2NFJPuRIr0OHDiE3txCjLh4O+dqaujr3fav2lcl6NJgNo5zTkRITirjxX2CUfN7fE5YHDyZ/iafVcwDjgQdvcnWK9J44zT0iVExJGd8gbOKLSFp7sXpmYPgHKZgcdy6icafnMzpDb8J0W7zxXMGXvvQZ0enzfENUICw2CZjzGHDjVWL/0Yi7eStGqf3+DoUXAoX7dVSpYjjS8gON4+gzDphxD3zfK91IGuiB6CFfolDl4wdjFJ2c5K3rVfpW3yP7gH6Rxjw1iywvx48fx6ef2BESEuLxSAX5fcfekYgsPaJTTnPWDcPk8e8g3KNs+imvomwtSHzXiHdpNpL+cJOf7zlUfLePGs/oNLbyLLdrJ2DBxB56jX9hE/8E/FqWrz54+ivfEZ2NluGYcUjafoVxfFN3YRj26E51rSllOLKRNKxluOKQuwzXiTJcqUezsgyfNrJT2eFwoLS01DV5lvMmCA5BYFCIXjgR4iJr3lbIFCInvIAHRhqhjQuB/NPDujfXictBQ0hQIEKsf49osUIQEhisjrk5ClbZMfnBEWLuMOwD5yI7O1tMLyApQgSVlSI49TUd9gBGIBJJj/TDxrXm2SEi+mmckrZFCAkOlE3MCTDr2PbcToj5lxMxZdFO9zn0aSdkR+hS7FFhr2Hq3qVYF5yEtH4bW0lnMBFRy2ATDZ+4eqX2atmyZUi+/HK95Lb+ow/x4pLnkfKbOzB6+AhE9OmDwADdL94jVLT1er6m0ri93AxTHaI1opUWU2hHwNymsgT4YQfm3F+Eyc9PQFi45X5ex1FA9p+EnmV0vdc5xPZVxnKdSN8h/jUQJD4PVQC9wsW8jCP2UyfiWG9t7yXyUOl162/nHsBZYnu1D7HClXexvcgiHOVAR5EX83mDZ/cCOuln98k8B4n4NSJNuRsz/Y6NpHE8B3NyLkTatZYuJrlfnU7+wkXArD8iVubnJ7YsNxfJyfUMTzxB9uft6HlbTwR1P7XPPKyvbE76028R2bcvbrl2IgZERyMoyLJf8/s2md+hR9kUhc2nvFrC5Pd61N/3LMJCRPkLEOWzSoSrMinCPcqtTse7zASJcqXii7yaZV/uu0rHMzVahsWya38yU0KpSDe0OWVYlNcujaThrwxb8vZzluGTdTp+AydLlvWxY8eqedkkf/nll+jRw91pbrfbcckll3iMYJYjQuTFknTt7OW49yLjAmr2ehFw/iAMjrkD6Xc7kDGjGDc8dS1C5YiQlRH462+BjMTZWCc3HPsYlv+2N9bNmIKMr2UAMPCehXgAz4u0t6v1CyMyseqcv+JeZCDxMbWV3p8c2eK53V+v+x6vph3AFXHvY/Hx+/HkdaHY+Y9ZKB6fjjH73NuLFPDY8htQPGMVivutwzqR52tnPwY8JvM1EPf+7a8ihsjv7zOgjlDlc4jaUnEdiztMHvunI93n4dORCxHxhnf+ysT5yMS3X+9EP9f+BJV+BD5Iewd7+67CuyI/RnxxMe5zjJY0/ngv9uyOwTN3D0BV2ftI+/1LEGcNOO9eLJTn/KtXkPjIarWt6xhCjuKD6W+j95N3w3JETbJ+/foWV3aJqGWytitSk9oWWbd61bvutsaomy/bMgvv7OuLVWtE7WnWdWoEorU+FbXbFu8244iqYyPmxCK/vbYT4jzt3DkKEcV/xLI+6bhrkNjATzuxXZyPkuT/h7gzxT9HP/gfZIWl43dRH+ChN3tjzj3NbTkaxnaFiNoqealL5GPsVb/CuxkrkHLjePSNiHB3ckqHSt2jvMyORjOsVHyqZxiKcDlvxvtBvm06DpvH/wphcp0ZLifVWSKmUr2sttfLMv0fDuo4wkEzjkjb2skpeT/fUDJHpJnbu/IutxfTD3I/unNHkvtS68Ukk5fxzd2Y6TeWRvdkxO171HNknpnOpvl4+rxJrbKDqKV45ZmX8fj9aRg0YIBnJ6dkHYFo/Q7lvKtsNhImv1e/37MIk+VPxneVSfndyzg6XDK/a8ksM674YoVKU8a3xDOZ8a08yrB1fyJNVe5kmKX8NVqGm5CGvzJs5o1l+LQqKytTF6Lvvfeemvr374/i4mJUVlbqGFIB1uTG4zU1AuQ19HszAwXiom5pkB5ReNcAbFPxQhAcKMfPCHqUp3ukSDbmBi3FurIQjH5EpiOm16ci0H4YkRMmIWHQVLz24Ag9ekdcxD4WjLlqf3MR/JjYnxrZMhhTXzfCBuZu1aNz6tBj3Ez8OneNiONWeu7Nxj7kfsftQanYb0jgOgT/0tjvnsc24iqx7rXUQOR+UYqCVbmIV2mLsH5LPW+VjEjCC3p0jCmy32Dskb8psdeN6xNw1Ujf41Ln4+uBmCzCbi71Pg8ylVUIkPlxHU/DaTwQaoctqpe4eBUOFmH7OOP8vxafi/lrS1G6fxcGu/Yx2zgGR09EDtgtjl9uRET002hK21L6RS4GPqXrPFXHirZm0UCj7n89HrmrjFp9le0qo14bmIutoi4reHk2gvV2Rl3nr82waqftBEbgoouOwSH/xq75ayfkFZezxiH+60CtiGsTAY4ekRhQKNoVtRURETWGHZ30EzGeV5k14Wy93IZVHELsrBWeb882xaUja+JZeoGohWIZ/tkNHz5cTbIzX47EqanRo2+lslLs3vEibo+PR3z87ViwQ1wQfiMvpnrg2LFjOBYaicE6qrfDdhvG/KKbinfB1PlIighFbe59Ih2R1m0vYJv4Z4GjshZOcSHqqDAuzXCkFHvGjcYFMu1jF2C0ugCVK2JwTlcZJvImrsTMsdTOyu64/q4AzLY8UyyyVzGeVfmNx0OrbbCpAUQJGC0u+o4dr4Nt3BUYItLvdk6MSOooSgu348XbjPi3v7RdX5xqjkqUm3nTeo+Mg+0jcdG5ZSPeHTcKQ6p8j0sZFImeYj/Fxd7nQa7U+XEdT8NpfLtvF2Ii9KjnS+9D9n0XqPS6nTMAAcEhiLxxPuaNM/bRI2qwvlXRgd6RNhRZ/q5ARPRTaahtiRw/CZhh1LvxU1eIel60NWbd3/V6zP+j0XGYMHqIqtdqnDZR15WidK+oO4fKulPUp6MTsGfXN/W0GW7tsp1AFao8s1RPO+GHozciUQTZjUpERI1jRyf9RPRItvYyCszfyDzJOjqVqCVjGf5ZmRejHi+CM0VEYYAccSlHkKhpPm4YGgXs00Nwi/eJiy0vB4ywcBHtg7wiFbR32VTMf3MB5gakGek8laDCfXQX+1u9ARvVwkZsWD0AUeqCT1ysykEnPhyoHJqqRqfMfFcul+KdaflqJI565pi8XU9xqieQGLN1asSLQz1MpzeiYszRosY0/8aGnwnr6DEccbaPsObz3Rgc2QtVW+o/LrkLn/OgDs6SH6mRNCKjBuCbfUYapcvvx33L9qr5on3fICYyFJvmXY3n8o0TVLJPxO+jZtW8ef6IiH5KDbUtjsoLkarrXDVaM9hS9zs+w3NTV+A7Mev0qCgjRX39DjZ8ZixtzH0HAy4cUm+b4db+2gl//LUToWK/Of+Rnbal+PxDs+0owT5EIVzOEhFRo9jRSURE1MKYtxcWFBSga9eu6uVRLo6hSIp7X4/olNNz+KzHONyFNOMtrUt26RGdF2F0zAJMtoT1vmEGxnw8RcWbkhuPm2+7CuctvMNIZ4MTCbuLxKVVqLh0FduZI22cQ5H6VABmq7fAzkbAU6kY6reD06KqAhdMnKrzEYnR8bvxZ5XXOdgTA+w7oFbUow5Dk+Pwvh6pIyfzQlCRz17zfgOtoyeGx9nw7hob4kb2Bkb6Oy43n/Pg74VLjaThCI+ErdgYXxM5IQ3xuTq94klIvdiBEQ/KWzaNN+e+HjUD43rJmKXYvzsG4hqbiOgn11DbUrr2QVyj69yHnJOQEOpZ9wffneTnJZ0ODL1vLgJ0XTfbNhepFw1pWpvRztoJf/y1E71vuAsD/i73OwUfjdFtR9l+7IqJ9HP+iYjIH76MqJ2r74Uv1Da1hZcREZ2Mlv4yoqqqKuTl5eHIkSNquY98o394OHr37o1OnfSLrISQTl3QIdC8QK1D9bEKoPOZCJZ/vhTNutNZo27b6+gTVodOXTpAbeqsxfHyOgSfGWz81bOuDnU2J6rLaxAk4zircdwZhOC6clSgM85UCYlo1cdQURUi0glGXXkFxF7QuUuA2E6kpT4rxaWvENIJXToEoO54OWqCzPw6jXeA1TrgDNLby3jBdcZthh07o0tANcprgsS2gXAdodqnXrDGtzDOiUha7K/SIfLkc1zW/Mn8W8+DPGY/x9NQGiIfu/72In68W75YyJJeXTWOqby58+CsPY7ySnFWyrLxSsFlmDLmTDUyqTn40ggiairvlxE1pW3xaFfMekzUyda6vzqgi9EmqFVdEFDtXd/6387dZtQisN22EwaZB/Mc+m0n/ISV/usVfDV6CuK6eB7PyWK7QkRtFTs62zl2JrUvraWjs66qDlmrs1g26ZRr6R2d1Lp0LP8Af8rsjTnWt/3WqxTrHl6LmHm/wwB1Mds8vCAloqZiu9JyNK+d8KNsHR5+Nwbzfj8AJ9B0NIjtChG1VezobOf4D6H25XT8g+ZUd3Qe/fgoitOK8dUfv2LZpFOuJf6jnvVwK1bPqCH/rKNgm48XpETUVGxXWpBmtRN+nOz2DWC7QkRtlXFPARFRCyBHcu6+dTeOfXJMhxARtWB+3uxbPwcqT7CTk4iIWqlmtRN+nOz2RETtEDs6ieikHXrjEA6+evCkp+LZxXDsd6BDvw46ZSIiIiIiIiKipmFHJxGdlLPjz0Zgl0D15s6TnWoP16o0nTV8ogYRERERERERNQ87Ouk0KUDGjHUo1UsGf2ENKCtVcUvXzkSidbuydZj5coFeaOG2ZGDm2iYfsUvByzOxrkwfe2KimjK2GOusYWba3mHm9j+FMwadgZ539jwlU9TTUTjj/DNQU1qjUz8N/Hwn8vyZ57cpSkXZlPyd5+amdWJKsW5GhvhFNZfXdvK3pH9bP2WZISIiIiIiIjod+DKidu70Pax8J15NK0bCnDHopkOAjujcJQDV5ZVo/KWBBch42I4JT8YD2bMweeE2XD97Oe6+SKw68gFmrYhA+t0Djagt2fZXMas4Aenx7rPQqLJ1+MfWK3DfdYV4cfpB3PRCAsLwJV6Y+jWuffJaHP7Hqwj541RcLKI6a4+jvNKB7V5hNbZtWDj/R0y6x/MNj63hoePln5Zj35/34av7TtPLiPx8JyGduiC4rhxNegTSlgw8bJ+AJ6/php3/mIXi8ekYY/l6j4jy+k5EOu4apANOiyP4IO0dRMy5C836FWz5B145YyqmnCefEyjfAD0FGbZULBa/0/DOu/yWmbampb6MiC8DoMawnBBRU7G+oKZgOSGitoojOsmD7Pd2OBzYtWuXa6qp8RpdJ0eB6dGDiWpkpXWUmHXUZg7m6njGCLeNmHdfFopkHHN7V1xLmEizdO1SrNuxEJP1yM2Ep+Yi4DGvEWzWfCTq0WhytN7LYtJpF5gjHXU6BS97xbfwGdFmGe3mmhfpG9vLSeZHHLvYTu5PjhJ0j6y0pFW0QudT57+RNApW5aLvyO6odIzA1OevR7djx3DsmPgObCEIEXH3716Fh+LjER9/H5btkV3GvmFVFRfi8gBxDlvhCL0ul3XB+f86Xy/5+uabr7F371695MVybo1Rm5byKL9DcyTwh3Mt5198RW9PxbzPxIxP2fYMm7n2K6x7cx12/H2y16hNd/md+6EOcvEaRSnIcmhub867y6a5b5l3o1x4rnen9YkOM0eoNpyGyMebAbh8qPEylNK185E7ZioS1JZo1WWGiIiIiIiISGJHJ/nIycnBJZdc4prWrVuH48eP67VA6Re5GPhUNrKzxfTgCBESgpDAYPFfKQTBgbJDTtg+AHfLONlzEfym7Gwy1h1duxTB5vZ32zFfdRAuxZ7U11TY3KCl2HrFJCQMmorXVPpylOIFSH0qGEt1h44SPBppKv1svJYaCPtBERYSjJ17+6nwuQMzsDQ4Te0/Yf1GFJStw9KgucZ+syfDPs/sZDWMePAFJEXoBSmiPwZ+bcdhMSuPOTB+NELOvVlvL9IftwelZeJY9wYi/vVsvDDhMNYsGoi5cv3r8chdZXRHbdvdV+XntdQ92LhFpNVgGiEoLRyAyB6yA7MKFXr0q+yExZ3jECpyU7Q9wb0PdQz+wqrQK8pmnJNWKKCj/6rplVdeQljYy9i27e/Yt2+fDnUr+HwPporzKM/tCxMiRYilPAaHIDDIKKXbBtxtfAe6TIUEB8rVqpNZfg9y3Wv9lhodjKsydHl/DfG5/0H/uxIwWJTVB0aqpBRZfs0yffeAbTrUFImkFx+AUZINkf0GY0+p0RG7cX0CrhpZisgUY3tVXvfKxzaIvH89EJNF2APnirK7V/weXHn+Tmy7CgG/NOIPzN0q4jeSxsjDsNsi0Uv2corfwvzcX2PmuHPgHtLfussMERERERERETs6yUNZWRkGDx6M7du3q6m2thbV1dWoqKjQMYDI8ZOAGXL0oJimroC1s9DDoEj0VKMReyDSZnQYSofs27HK3H7GauywH8Zhuw1jftFNxD2GC6bOR0KPWjhRB4frXuIqVAxNwpjc+Vh3QAeF1iI/1Ujn9gXbYNOleXDcCHQX6dQ4B2PMZd3V/iMGBSDkoB3b333I2G/8/2D1DneepKqKclRa76l3DMXocauRv6UUWz+2Ie4XPRHaqxjPqu3j8dBqG2zBMmIMIroeQ/me/dg9bjQukMfc9XrM/6PRtWXmx1FnQ0CIOH8NpVFpRxEi0duVDzkaMBEbf5mN1KGy0/MS3Jf9B72PCAxQozz9hQG9I2Kwa3+9306rVFT0Hb75pjuCgt5HSUmJKptWI24ag/dvM87t1fM26VBfgyN7qrJ2LDQSNlH+DKUoLdyOF/X2t7+0HXtKvxJhCRg9VJbjbrj++fswtNYJ1Dk8bnOX5TcyVMY5hp6Rg3WoyYHKcmMUpan3yDjYPtqK0i0b8e64URhSJb7zvc+q/cbHP4R3YDM6Z/VvqKLYDlvcpcbo3qGpmD+ht1gp8nWR3Kcc7SvKtyw3DaWxbz92xYg4Ikh23O/Y8SLuGDsDq7YvwFz9B4S2WGaIiIiIiIio/WBHJ/ll7eiUt7NbH+XqqLwQqWrUmBw1mYutHrd7F+EbPYvt+1CiZkqwD1EIV/NAr6jBSDBHdMpp6iUIjwI+yCtS6/cum4r5G9Wsp6oeuD7t18h9ZAHkmLmCF+ci4BGdj3FGFKWu1vUMUGeNnNN5j4jC4HHmiE453YdLjDX1qMKQUQl49/M1KN4Rg4geRXhnWj6uUtu+hqmWZzA65W5E+gNWb4DKuuMzPGd2AlvyIzvTGkxDnKUocbaM8yaO8eX5CBHHOPWiY0bHWtkK3J/6NtSN28X78E1MJEL9hYnZon3fYECUHNXYdkyfPh12+zF88skvEBISgoAAzyqsqvv1mG+e270bPW4Xx4F9qtxI2/bpMyzOF6LMkhmJqJjBrhGhcpp/43AR9g42yNvaxbf42bP3Y8URFdmDLL/7io35kn3eIzp9OXoMR5ztI6z5fDcGR/ZCVdk7+NOnVxn7fX0qrF2lqvSKsoUPPoP6hex7G1PnfaXW1Fl7T5uQxoBd+1QakePn62Ocq0ZOP6xGv7bNMtMuFWci6Yl8vXCCiu2wiw/7G0mY86kR1Lh8zLHZYHNNScjUv4sTckJ5ON3EMU7MVPlqlk/nIOkN91b5T1jOjVhnnjN1nKfi+yMiOg1OvD62I3PiHFGDaqresyxbtdQ60KsebyqP+t67DbHU/zZ9zPIcW9tQz+2JiKgp2NFJfu3YsUNNsqPTW+naB3GNGjUWj4eck5AQEYoRcd8YzzGc9yFsOh4G7cLr6nmBabDdOU6NJJN63nAXnOaITjHdt2wvet8wA2M+nqKeLTglNx43jwxFJBa4ntFpcKCy2/WYpDs1R/zyPCy43UjjY2cCvilqZCRar3G4y2mO6BST2Tmo+XvrdNVFo5Cw5l2sHjcaQx2RGB2/G39W28/Bnhhgnzm6VHIMRepTAZitjnk2gu9OEsfgrZE0xFmKjNmF/TIf8lb79TvUMV5znUwzAwURSUiLz8UUuY/fF2HSfUPh8BcmNj9cbENkuLuLtS3o1KkTHI7j+O9/7ejSpQvq6ur0GkPBi2NxtTq3t+P9uGSMwEUYHSPKkTw3S3a5Ov8G737deI7lIzbcdYNZMh0YmhznGhEqp+fyf8TQ++TzYeX5T8TsoMlIGiK+1YWez+jsLcq07REjzuu7vUd0lvq+Id3RE8PjbHh3jQ1xI8X+I0Yj/ts/G/tN34MY7PPsSBFld8aYj/R3nIv4lAv1CovG0nCIsoUiNYrZUVlujGg9VqNGTlfrocxtsczQiRAXYtNy1FzYLVlIu0zNNk3yEpToP445i5KQFVnPhWyjTiIPLY64wM+OxoJbwoz5iTaMetRYo5af3YwlRfJ8LcHmZ8UFcEQKFsTk8MKWiNqs/OzNSH98M3JazB+xTpPiTOSIf4emyEdjyQ5c2yjMMtYo9kIY9b9sMx+JFSH5WJwyDHlyOX8Ybn0lH7GPTEeh+CQiomYQFSu1Y2+99Zbz6NGjrslutzvXrFnjzMrKUtOqVaucW7ZscZaUlLjiVNXU6a2FWodnWF2d+H+Ns+qow1kr541QEU1uu9H5/NQVzr1ynQ6X6mqqxLoqpytZtb1eFunLtI3tjckhN5b7VTOG2tpaIx0RZqQn49U5a6rkNjKtWqfD3Nak9mNN14xvnXRevY9THFmtiF/rcKet4lvzJPNsyY95HI2l4Tiw0jl/2TfOo1U1rvNnMOK4t3dv4xv2iXPevM0+xyO/79bCu2ya029/O9752GNTnf/5z3+cR44c8Vhn/X7d5cAMEOVRl5s6MW8wztferPudz38m0vA650a5s5RXub2OI9e5y4w7jkzbWl6t5c8dZn5n1jJqbC8yKX47Mr78DbnLqLXc1FRZ0zTjNZaGWP/58855G4z0jMm63n+ZaWtTS/wNWPMky8/x48ed27Ztc00Oh0OvdSvJTJQDddWUnm+E5T1uLCM50Zn4uLhMcuY505OXOEvkyqIl7jC9HdRyiXNJsl4WU2JmiTttsV7Oq/Tz011xjP35buexP83c3pWOkPd4onNJkdhefCbqbV15l5Per3Xe2LbxvHsQefYMk/Hlvi3z/xHnxUwTxrqSTLGdTFceizxvHunLY0wXkxGm8mWJ4zcNaz6K8px5Yr1xDmSA9ZzJPKWLEMH1fbm1pvqbiH5e3vVFk9oWa12m6x9XXeyq20R9/LhuD1x1l3fdLPhtMyz1m1m/Wuo5nzZM1p1iHpDbWfZh7teyD+/6313HauY+rfOW7Y19eNbdW7yOXeVHHLtxjvSxNJLGaks+SvJFeyaPw8yHYG37XO2J65y44/oczynCdoWI2iqO6CQPcsTcFVdc4RrRdtVVVyE6OhqdO3fWMayjwcSkH1ToCisvR7l6gY58kY6Y1/EqquRbqWfim7gRCJXrzO3FVK5Gk8nnGOowtb1eFunLtK3PQ6yqMMLFjCsN+QxRlY4IM9KTs+YzN93PSFTb6m2M/bj5PKNT0Xn1Ps5jIk8ifkWV1/MXrXkydujKj3kcjaUhb7++fP98rCuudJ0/YzLiuLd3b+MdVvDyUvSdeKGf42n9nn76n3jwwTk4//zzERgYqEMN1u/XXQ50mCyPutyUi3nzfO1dOxOTF8ZgtHyOgcPznBtfu6W8Gl+gimMkZZYZdxyZtrGdyauMaMZ3Zi2jeh8iboWKL39D7jJqLTeVDmuaZrzG0hDrhyah75vW0aXu9W25zLQ2a9aswaBBg1zTypUrPV4Ip0Z8rEjSIydLEP3sHOQXZ+Jp5BmjQqYNw3Id05v9jaexObNExcsTW8hRg3HP6tEkRUuAXYUIu2U6xMUVStToEikfc8SsuPQS8fKAWHOUZqIeiZKHYStyPEcQN4UoiEli+6xbgOhJOg8irfSCQsAnDyIXT4wS/zHi5WGUvn2ygTxclibSlqMoTWGIHrIchXKkZHEOspCEuPA4LFD7daIkE8Y6bAbGi3P0VgoKX7kVw9Q+S5C0YrFx3Ms2i3MuwuQIzGwZ0nAaKNyMYdE6HxGxiLW+9K4+EdEYJs5Ds88pEVE9Gmtb7BuydH0nJu/RhXKEvh5VOEvUeaoeHpKFHFHf+dbN9bUZBrkfjI9DWEQckgqMdkiOdvTXhi0fMl2EpSFatF3mPpzTCpH6hl2NCjXqf9mOWOt6sctHsoxRlCZZpy4rhGhdXPtHxGQjPTHlPb7Zq+6Oxmo/x768IFrV9yWZxmhUe4NpxOFowTBE63yEXRYrWiErOwoL3G2Y93myio4x2xYiImoKdnTST2QEHpDPPBzXU3e6UL0clRgy9XnPN8A304gH52Ncd++uNfIncsILyM5OxZD2cLqqemDc855vgDexzLQM8iVb5513nsdzkuWFqOxAdykuxOZltyJcPcMrHLcuExdXm8XlW0y0sV5c0CUacz4KdwFJVxiXWsaFoJjfoJ8HFnmr/w7SMrG/x+NgdDnGIs51Mee+gKuP3F/9ccztwxBWbD6nzPO2Pjd5QZiOOH0Le2x8OjYXymd8NJ4HK7ndrOx8y4U2kDNR7teG8BT30Rsdk9Z9hiHlrTTjHCQnIc66zwbTaOwc1Cda/M+4KCciOllNaVvkH7kQa9RlNvkcSdnWmHV/RAqy9B+e0uONT4OfunnTF/W0GZIdOSuWY3lKuNiPbL+WI2uDXbVr/tqwRB1WuGs5Zpl5i52F5bsKETtJPh5FhzX6TE+Zj1nI+VTu32gHwyIKXc+Vdj9ORNfd9Rx7omw31JyhwTRUHS7r8vrIdsXskBXxklWgX2HRw0Sbxz99ERE1FTs66SdijHgzR9lRw/yPLm26k92+PTFGSvqOuGyb/I8ulVhmWhbrxagkR4u4yJEp1mdhOsWF0jBxKSUu/BRxgebTYanD5KgQdVEpqJdKLJqDVCww0slPV+E+eov9PZqjR5rkI+fRpnYu+osrL4r1rEk+tyzbGCEkR0n676SVozHlRaqxlJ89S1xIms/XbYbL4pAujmWxuGiWF6L5T6QCekRr3uM6jovXPut5IUTDaRjnvP6ROPIi2BgVZYwyNS+KG7tAJiJqvgbbFsQiTdbDsi6TozVFDWSt++VLdLweZS/4qZsvvaT+NuPTxbh1iB65qSY9Gl+0aw21YdExiUg3R3TKSXY8yg5ItVyCJQXm/upn/KFrMQqXyfzI5yXnIM7c3ruTUbazXsfu283YSBqqDm/oD1YiXdcLmXSdb93vpzmYNSRadazarXcGEBFRo9jRSURE1MI09EI4eTE6eXyWHtEpJ3GhJC74pmOUsfzsZt1ZGIu4IXrkpw4Lu2UBklbIkTQ2hK9IwuR74jBMjawRcbKhbhu3q4szsZ1rhIy4+BWzo9S+5C2KemSjP66RpnJ6GtFFRtywK5KwWY3GSUWWEdNN3b6o8z6tEMPMCz6PPIhcPCJv7TPSHoW8xl9Q5PcNucaonlmPGiOQYuOH4VY9IigHcpSoZ3zPfU73vBVSayyNhkfihCFlmt4+MgtJz6aoi1o1mkhf4BIRnSoNtS3ut32b9Z1X3T8txfViUSvfurn+NuO/2bO8RoQa7dTiYn9tmJvHaFMxybo9/wlzORxZ4yd7tEt+/zCl/tAl6n81UjMMceM36zymonCI9x+kfI/dtz5uLA3ZCWwdzerNug/RXqr6X7TvmTpNcUB5eiTpid0ZQETUftmc8s9i1G4tW7YMY8eO1UvU1q1fvx7JyQ3cG9OCsGzS6dASfwOyrJt5ks8bzs3NVZ9Sly5d0L9/f4SGhqp5ao3syHwiB3GP+LtQ9s/+xhzkXJHm0bFqLSdERA3xri/YtvxMijMxZ0Mc0ryeIdo8+ZjzBJCmOz1PJbYrRNRWcUQnERFRCyFf/HbNNdcgMTFRTVdffbW6GOWFaGsWhpR44+UZTSIujFN3xfkdPUpEdCLYtvxMIlIQtyvV72NPmir/iacRPenUd3ISEbVlHNHZzvEvee1La/q+ZV6JToeW9htgPUxNwXJCRE3F+oKaguWEiNoqdnS2c2zg2hd+30QtD3+X1BQsJ0TUVKwvqClYToioreKt60RERERERERERNTqsaOTiIiIiIiIiIiIWj12dBIREREREREREVGrx2d0tnOn79ks+ZgzsRCT30pBmA7xH9aAYjvsESLmG0kIT1muA4XH8+B85FS8fdCOzImLEf1WGvymZtn/4ugspF2mw0+KSLM4DGFNfZuuzkOTzlcT8Fk8RC2P/F2OHTtWLxH5t379etbfRNQkbFeoKdiuEFFbxRGd5EH2ezscDhw4cMA11dbW6rUnKxZpTe3klJ2i03L0PJCe71R5k1MeRiHpDbteczLCkFJfJ6fsBJ22GIViLuyWU9XJKVJ9IxWLi/VCo9x5ICIiIiIiIiKihrGjk3x8+eWXOHLkiGvKz89HdXW1XisUZyLJZoNNTk/kiwA5MnIO5JwxajNThEhZSNXx5nxqXSc+ze1dcS1hIk37G09j1rJbEa7S9xT7SB6Grcjxn45P3kTKT+hlm5FH+xtzkDRRbvMSXlL5NvI/R8dTnaifLsaty2ZhlEh36xtJ7vx7pW0X64y0ZXrmsWgyLx75z8filOWYFZuEzGJrvtzLRgeuzI84Z4vcefBIl4iIiIiIiIiIfLCjkzyUlJSgc+fOeO+999TUv39/7N27FxUVFToGYN+QhWHmCMuGbiFfNgzT1SjMPOBZd2dd2RtPA+b20wqR+oZddWxuzizRIzafRs4V05GevAQlDaTvNx3vvBVn4ukCkY5czgeeVh2Jm4HxYl9vJaKrkZQwC4iX25UgacVi5F82GUuS05H3Vgp66xj5T4xy7U+OKjU6P4FEM99DspBjHa0ZkYIsj/zHYnJmItLzs5ACkS+RisqnczoKp2Ui+hG571TMeSIVWSJ/afe483Cqbl0nIiIiIiIiImqr2NFJfg0fPlxNQUFBqjOupqZGr5G3ck8HYusZxWiVHI1oNSM/C123YO/bJUc16u1jZ2H5LrFuF5B0hdGdF/tIFlIaeoZlcSE2D4lGhZ90fPIm4mJ8nNFReFkasm4x9jEs2rvrMB1x6vb0MEQP2YxCn9vL7SgsMOOIXcSnY3OhceS+aTWByNfyR0cZ+bSNwqxl8vyEIeXZJGwuSMICnU8iIiIiIiIiImoadnSSX2ZHZ2BgoA6xikWaGonoZxSj7ITUs1Cdd5L8NDs9gagYOarR2F5Nj8QiOgbI2mB0HMrbwc3Rkv7IUZuIEen5Sccnb4Fir+o2d8HnVnIrs3NTdmgOQ7RPR6vsAJ2FHJ2v/OxZJ9bBaYqIRqJ8qZKZd6d8Vqh8JmchksZnqdGpREQnpGwdZr5coBdOUFkpSsVH6dqZyNhiBDWuABmJiUh0TTOxrkyvOmki7RnrVJ78KRX5bSxOs+lz0FRGHoiI2q7mtQlWpVg3I0PU0uZnA7ZkiPajkTgn1EY14gTSbDiuSM9sA73aZfd2TTgfRETUbOzoJL/MW9cLCgrQo0cPNfLQZH0u5ShMR0pEGOLGb8YoGTYtS8cSkjfjaT1iEdPct1/3to66FJN8LmXYLQuQtCJcLYevSMLky2THqPsZna6Rm3L9rulqZKbH6E2djk/eRqRgwfgshMuwyCwkTar/VvisaXK7cGSNn4xY3bEpn49p/htFPhvU3N8o5DX+giI/Hath0cOMZ3QiReTOHNEpJvW80HAUTktDij4Xcz5154HdnkTtg/zDh3whXGmpuEDSU7NfCBccgsCgEL1wIgqQMW8rZAqRE17AAyON0MaFIHjQVLyWnY1sOb0ej9zfn6oLuBF44MUkROolD+KieP4XMrcNxGk29zloElceiIjarpDgQNnEnIAQhAQGy//qz/oVfL4HCeP2YGO9HYgn2kY15MTSbChu6dr5WHPQmC9YZcfkB0cY8y8nYsqinfo8RiLpkX7YuJZ/KCMiOpVs4qLKqeepHVq2bBmSk5P1ElBVVYX3338f3333nVqOjo5GZGQkQkND1bM7T458GVEhJre4Z07Kl/8sRnS9b2BvO7y/byL6+cnf5dixY9W8bJLlC+HkH5hMdrsdl1xyCYKDg3WIMRpEXihJ185ejnsvMi6eZq8XAecPwuCYO5B+twMZM4pxw1PXIlSOJlkZgb/+FshInI11csOxj2H5b3tj3YwpyPhaBgAD71mIB/C8SHu7Wr8wIhOrzvkr7kUGEh9TW+n9yVEontv99brv8WpaMRLmjEE3GRjSCeXrHsRbPefg7nCx/99nQOVY7XeIO78YiHv/9ldcK3JlxjHSKxP5z8S3X+9Ev9mPAW+IY7mlGPM+ExHWrxPxrsVjy29A8cMiHztkvnQccbxwnR+ddm9xEWset2CeM1PByzNRfKOMZyyXrk1znYPlNxZ75l0tFyNl+b0YIkcevXE2bg5YiqUqD57pnkrr169n/U1ETWJtV6z++MeOePbZCkyb1ll9ety5JdsJr3ra3dYYdellW2bhnX19sWqNqE3PuxcLZfsiOwk92pUhxqhMjzbjCD5IewcRcxJQrD7vwkBLHKPOD1V5SJvfATNmAk+92QtzJou0vNJfGLHUq416ABFvzAOmyTpctk1yPgXFv9fbuPLp1lCd707Tq407ZxUSP7vMOD55rp4Fbrvy38gTbeQN+91tsrG/CKwReX5Xnrc5VyI3PwbP3D0AVeJYdu4chYjiP2JZn3TcNUjEDzmKD6a/jd5P3g15tD8ltitE1FZxRCd56NixI66//nrcddddavrlL3+Jfv36nZpOTtsobDafl0lERD7KyspUJ6f1hXDFxcWorKzUMaQCrMmN1yMnX0O/NzNQIC66lgbNNUZS3jUA21S8EAQHyvEzgh7lWbp2KfakvqbizQ1ainVlIRj9iDkCcyoC7YcROWESEuTIzAdH6NE74iLzsWDMVfubi+DH5ChNOSpnMKa+boQNzN2qbvnz4KhEdZ0NASIDBatyEa/iZuO1fkuRsaUAG/eaoz9fQFKEjJOBgU/J5dcQn7tG7SP464GYLOI8MFIfS0gwdu7thzS53VPBWLo2BEl3JWCwOCZXHHEu5pvnR44qnSdvZxfrkGAcgzjOPZ97jjMd8aCRB5P1HPjk/WASXhD7nv1yhnFeXpyESa486ASIiFqYigobli8PRFFRhfosLa3wuGOg9ItcXQeLSY0+FG3NooG63hR16Sqj3lxlu0rFmTswF1vLZKfhbATr7eYGzVb1u2+b4UuO3DTakGy8MMEYiy/zYIsbjh7dh2PMt7KNkp2Qnu3W1iu826hI9B+4E3Y5erJsK3ID43HeF0tdecq+2475XiMmG6rzjTT9tHEjb8bUvRvVsch8BsaPRoQe4Sq3kW2A+7yMQHLqYCQ8JfZjs8MW1QtVak8jcNFFx+CoUwsGR09EDtjtvs2diIhOGjs66SdiPDvTfBlQyxKGlHYwmpOIWo+GXggnnyO2e8eLuD0+HvHxt2PBjj0o/UZeSPXAsWPHcCw0EoN1VG+H7TaM+UU3Fe+CqfPFhV4oanPvE+mItG57AdvEPwsclbVwog6OCuOyDEdKsWfcaFwg0z52AUaPE/tTF2QxOKerDBN5swUYHape7EXiArJPKUoLt+PF22R+43H7S9uxpzQSyXHv62O4GvM3yjgJGD1UptcN1z8/VVwOCoMi0VPs18yKNDhuBLrr47TZ7aisdQJ1Dnecg3YEjBmObjJOV3GxLC4yD8vwQRHoIcOO18Fm88xtVUU5Kh16QXCfg72+ed9fiPKhqeKCe524kE7FBeUVqPDOAxFRC5OdbUOVqKMWLgxSn++9B1RXV+u1oq4ePwmYYdR18VNXqOcO7zbr/q7XY/4fjVuvE0YPUW1IjdOGgGBRd+81627RroxOwJ5d39TTZngacdMYvK/r1qvnbRIhpdj68XZsW3AXrr/+Lry4fTtyvyj1abcSeni1UXBg6KgErP60AKVffKQ6Smv3b8cq81hmrMYOu2oFXOqv862VuFcbV9UDl8btxsYtMp82xP2ip9jCLeYcI4/GealCjVjprC1H4b5diInQQ0dRpc69Jwd6R9pQpG9zJyKik8eOTiIiohamwRfCRURhgPVZmNnzccPQKGBfibG+eJ8e0WlxwAgLF9E+yCtSQXuXTcX8NxdgbkCakc5TCSrcR3exv9UbsFEtbMSG1QMQpUfCOC0Xir4KkP9uDCJ7RSIqxhwZY0zzb+yNHuPmG8tqhOVhEecdbJC3pYuLvs+evR8r9IWx9/N1tu3dL2II4jgRFa7CPIjzgw8+gzrK4s/wAaJgxmr+s3r85T0S+Gwe/hE1FZgxT58XIqKW7frrHejY0Yn77jukPq++ulz9Ic3kqLwQqbqeU6MSgy11v+MzPDd1BeSDrZx11p46WUeadbdoIXLfwYALh9TbZlhVdb8e89X+XjNGSm5Zg4UD9J0JapqLAR9vhciGZ7vlp9KtumgUEtZsxJr92xFzTk/0jpKjKc10xDT1Eh2zeTzbOAd6/mIMdr85Hx/Z4jC8h1cDWE+DGBk1AN/sM/JfnxLZnPk5R0REdGLY0UlERNTCWF8I17VrV/XSMhfHUCS5RkPK6Tl81mMc7kKa8bbzJbv0iM6LMDpmASZbwnrfMANjPp6i4k3JjcfNt12F8xbeYaSzwYmE3UUoRai4dBXbmW+IdQ5F6lMBmK3epD4bAU+lYmh9HZzb9f7UtBR9X5dxHRiaHOcauSOn5/I3YcHYq43l297HmJsuwdD75iLgMWPb2UGTPW4rtBq8+3Uj/UdsuOuG3kCfSGDhZPebb3uNw4wxH2GKjPP7jzDm4XEwx9LURz6vzfMN8eY52OSb9yULkPhmP8y84TfivARjtnzTu3ceiIhamH/8oyMqKwPwP//TR32+8UY3BAS4LwVL1z6Ia3Q995BzEhJCPev+4LuT/NSlon631t22uUi9aEiT2oyCF8fiarW/2/F+XDJCPn8XCaMuUKMijekCjB6wEBsivNqtkV5tlFQ1BKPGvYt3303A6Isdoq27C05zRKeY7lu2V0c01F/n+7vJ3s3RQ94lsAMD7rwePetrB7XQyBisSpuJd4IjYSv2HFHqqRT7d8s/CupFIiI6aXwZUTvHl9O0L/y+iVoe60sj5Avh8vLycOTIEbXcp08fhIeHo3fv3ujUqZMKk0I6dUGHQLPzsw7VxyqAzmciWF6zimbd6axBeUUVOvqE1aFTlw5Qmzprcby8DsFnBht/9ayrQ53NieryGgTJOM5qHHcGIbiuHBXojDNVQiJatbyVPESkE4y68gqIvaBzlwCxnSUtxYna4/r2wJBO6NIhEK4cy9slg824ZjyRjisv1VCHpNKtFJfSeh8bX8L/HJiA+TfKMZrGcVfptJ0yzSAjvsicPj+WtM20ZPzgOnV+TB07d0FAtfVWRnl8xjk4Vh3gmXdxngLEeTou0+oozkuQmBfbhag8eN5mfyrxpRFE1FT+XkYkn8d57rln4rPPdmHkyBhs3PgtunXrhg4dOqj1Hu2KqoNFZSbrOEvdXx3QxWgT1Cqz3vSuu323c7cZ1QjQbYerzRKctcdRYxN1bq1nHSrbsECxzhlkbbf8tFFqlzI93S7INsPSHsn0yy33qjdU5xtpOsQ+vds42RZtxyuJ/8Hla+/EALFPec7k/v2elwB5DmyoranD1gUv4se73S8bMrdTx1qWjVcKLsOUMWfq53j+dNiuEFFbxY7Odo4dX+0Lv2+ilsffBSnVY/urmFWcgPR49V73doUXpETUVGxXTgfj7e97Uv+JZ5rZKdmx/AP8KbM35sg3tnsoxbqH1yJm3u8wwPrQ0J8I2xUiaqvY0dnO8R9C7Qv/QUPU8rAeboaOndEloNpjZE57wfqbiJqK7crpYIwStXmNDm0SP3cSGKx3R/z02K4QUVtljugnIiIiatmqKtplJycREf3cqlBx7NiJtUGOSj+dnJIDlT9TJycRUVvGjk4iIiIiIiIiIiJq9djRSURERERERERERK0eOzrpNClAxox1KNVLBn9hDSgrNeJuycDMtQ1sVbYOMxNnYl2ZXvZLpKXWNzMPDdJpNpY/Dw3vv1Qcs6ngZesxWbZr1v6IiIiIiIiIiNoHvoyonTt9DyvfiVfTipEwZwzc78btiM5dAlBdXonGn25TgIyH7ZjwZDy6NfKW3dJ/pWHdgQH4ps+1mHNNqA71VLr2Yazp+yTuvqA5eWiYK81Lm/NyjAb2vyUDD9sn4MlrxHGWrcM/tl6B+67rgsridZj5+wzsHJSKxfJ8duyMXS+9gB/vvhve725sDB86TtTyyHqYv0tqDMsJETUV6wtqCpYTImqrOKKTmk+NoExEopxeLhABpVg3IwNyznPEYg7m6ngZW+TyRsy7LwtFMo65vSuuJUykWbp2KdbtWIjJKn2T3I+Ok+je35q/D8Do+0ZjwMdbdVqyE3KmjidHRYo4i3bg3UfkvM7Dlgydd0HPu7cx82vhM4rSkua/5mHq20VGOnp7I38yv+5RmQUvy3T9nAO1PxH3zXXY8ffJat8Fq3LRd2R3yL7T0oP9kZY9FwlGMuplHBeODsBSjuokIiIiIiIiInJhRyf51bdvF1RXV7s+rQN/S7/IxcCnspGdLaYHR4iQEIQEBov/SiEIDhTLcnb7ANwt42TPRfCbskPTWHd07VIEm9vfbcf8taWqY3NP6msqbG7QUmy9YhISBk3Fayp9rWwrcgfONbbLfgBqzZaNeHfcaAypGILRAxZijeqglJ2QAzFXxns9HrmrQpCcOhgJT72ApAidv3P7YfBe49b4gs/XIeGXIViTG4/XVNqvod+bZkeqNvIBvDAhUi9II9xphgYjMFgccUgwMM7I32upe7BxSySS7h6I3C/UXrBxfQKuGmmeH/GJBJ3Hqdjz+WEk3ZWAweIcPDBS5KtwACJ7GGM+Iy8diu7HamAdel0VFgmb/bBeIiIiIiIiIiIidnSSj7/9LQTl5cAdd3RUny+8YENNTY1eC0SOnwTMiEd8vJimrnCNovQxKBI9jx3DsWM9EGmzw+yWO2TfjlXm9jNWY4f9MA7bbRjzi24i7jFcMHU+EnrUwok6OCqq9FZCRAImOR8ytou/HyvKZCflu8DqP+O6xOvw59XAu58XqGd77h43GhfIfXe9HvP/eBFq6gBnbbkaIan0GoE4fIitZQXYuCYBo8KKsHvHi7hdpX07FuzYo5/pqVVVeN2aXuVO09IDOTiyhzoGR50NASEOVA7VI01Vh+woDLEcDgZFoIfM4/E62GwBqKwVCdU5UFF1GEWIRG+9O0dVle9t7r0iEbN7f/3nnoiIiIiIiIionWFHJ/mYPLkCnTrV4amnvlWfEyfaPTo6HZUXIlWNfMzG3IG52GrtECwrwjd6Ftv3oUTNlGAfohCu5oFeUXIkpLG9mqZegvAo4IO8IrV+77KpmL9RzXpyVOLCqXqbpwYi999vYem3U/UoTDm9hqnfbkRBRBQGrN4AlYTjMzw3dQW+UwlYOHpieJwNH63aiN2DItCrl9hGjiB1pTUfN0TouM3h/cjbKjnS9CPMf/NdJIwaAms/p+QVWwsXZ8s8d/Uo3odvYqJgHWNKRKQUZyLpiXy9cIKK7bCLD/sbSZjzqRHUODsyJ85BQ3vOf8IGW2N5O6F9N+IE0mwwrk5P8Trf7u0aPx9ERK3JidfL1vowH3Nsoi3Q00nV89a62IPcn3sfje9HpFOsZ39iJ3pO859IQqYrz+KcTsx0nQuZpnHcRhzPuEREbR87OsnHlCln4ocfAjFkyIXq8+GHoxAYGKjXyudfPohr1MjHeDzknISEiFCMiPvGeG7nvA9h0/EwaBdeV8+gTIPtznHorYN73nAXnOaITjHdt2wvet8wA2M+nqKeVzklNx43jwxFJBZ4PqOzbB0evEZvNwNI6LoFtrhL0U2NGpVTN1watxtLV/ZG6lMBmK32PRvBdydhaGQMVqVZ32LuQM9fxMG29l2Rxgj0dgxFUtz7ekSnnJ7DZ9ZhlD7P6ARCzTSP6AC/qjBk1ADssE1F4kXe3Zxe+kQCC+UzOnsjMmYX9ls7kL0dLIItsvdJv1CJiMiXuGCalqPmwm7JQtplavYUyEdOQTrSC3L0xa4/p2PfJ5Zm/XHFBfS0xSjUS/mvFGL6I7HG/BM2hKcsV/MiBaQ8G42cN/xfhhMRtT+yA3KUqCyd6rFYTmceEHuifxBy1+3+pSNP7cPcT/2dffY3UrG4NXUEFmciJ2YBUuSgDPnHNtsozDLWCPlYnDLMOPb8Ybj1lXzEPjIdheKTiKjdkG9dp/brrbfech49etRjOnz4sPPss2uc27dvV587d+50lpWVudZX1dTprYVah2dYXZ34f42z6qjDWSvnjVARTW670fn81BXOvXKdDpfqaqrEuiqnK1m1vV6W6TtqjThVNa70xApnjYhgbOvOu8yHChPbmNS+1XKds6ZK5kumL8J0emYaHscl0ndY0nXlwStMpVmj11niyLSMYz7q/Obtqc77VxQb+1TnxTw/lnzI49T5kds5Dqx0zl/2jXtf1vhi+uS5552bvfPThEl+30TUspzI77IkM1EOCFdTer4Rlve4sYzkRGfi4+ISx5nnTE9e4iyRK4uWuMP0dlDLJc4lyXpZTImZJe60xXo5r9LPT3fFMfbnu50Rli724BnfWGfk2UzfzLN3fnz3LdNMdC4pknHNecs25vG5WPKg+U9Tby8mlT+ZX3U+BHmuRLpbdD5d25v7M49NzrvOq5TnzNPx3cfnm58TxfqbiJrKu76oE/8mP378uHPbtm2uyeFw6LWarM/Muk7Xa+76z6iHVf32uKUOVLG82xXBb5sh6kKPOtMk2gWVdrqoe410Zf3rub3Yi9nGyUmk4cqbTM8n737qXpEnVd9b46rjMvNvHKN7P2bb45b3uFeYte0w5y3HDsg8iLyI7eQ+zTbQmr7fc9pIGtZ8lOTLteIYzG292iUz3CfvAtsVImqrOKKTfAQFBaGoqBLnnHOO+gwPD0fHjh31WnkHebkeQSkm/QxNV1h5OcrLK+FAFSrkvI5XUSXfMj4T38SNQKhcZ24vJuPZlw5Uluswtb1elumbz8d0VLrSO3asApVin57PzTTyocLENmb6KotqWT6jU+ZLpq8iq/TMNDyOS6TvMf7S5xmdgplmpV5niSPTkvuVb3Kf8rcBuGtcT2Of6ryY58eSDxlZ50cdcvfrcfn++ZYRqJb4WzKwtG8SLvTODxG1GT16QL0IzvwU7bVeI+Vj8YokiAsXEV6C6GfnIL84E08jzxi5Mm0YzDGF3uxvPI3NmSUqXp7YQo5uiXtWj3gpWgLsKkTYLdMhLoxQokcpqlEzYlZcNol41tE3iRAXTSps2Ioc1y1zUn72Zr3OiaxbwkSIHTkrgKQrwhB2RRI2P2vcYuedn5wrvPcdhughy1EoR9oU5yALou7b8LTYgc7ztEKkeoyYDEPKW2kwt5Z8j0fyyvtlk7FEjzS1b8gCxse57kKQxIWlkcchWciJEHGT05H3VgrCiguBmGgdKxaxPiNAZf43G/knIvoZrVmzBoMGDXJNK1euxPHjx/Vao+4bZtatqr60jAwsSkKWHhE4C3Hu+lDUbflPuEdo5mEU5nxaX5tRH9EuqMdFbRZ1r6hr34rGau82TrQY0ZOMfcg00wtE3Wup2/NfEa2DbnNKYp5u5FbwOCxQ6Yi4mRD1cywmZyYiPT8LKbC0pc7pKJzmvh1cin1ExLE+2ioiGokiLzJOfvYspMfHwi7aCGN7cT4e1/V/gWj/RP6ybils0jltOA2R54JhiNb5CLssVpzBxkXHyGPVC0REbRw7OuknMgIPZGdjvqvDr32InPACsrNTm98p6ajEkKnPI8nfc0JHPoD5N/Tw7Iglojbj+eehXgSXnOxUn888U+3xnGQUF2LzslsRrp6/FY5bl4mLoM2WDjd54WXM+SjcZXQ2SsYFm5jfoJ/lFXmr/w7SMrG/x+N052Es4syLLrgvtLzFThIXcJH62Wjy+ZWyk3LZctwqw+R+lhkXc775UbMeYuPTMStbXObqDsiKXcsxK1anHTsLy3eZN5E3h3fewxA3fjNyPnV3yFoNi/Z/GWkv3FzvOhMvLono51ZSUoLzzjsP27dvV1Ntba3q5CyXjYwm/ygEs26Vz3uUbY1Z90ekIEv/sUh25rnZUViQjjj9Rx5ZX2/e9EU9bUY9Ps13dYSq+tRfG1cchrDiOUbePG7TlmQedPsi1svHh2wu9H3+k6u+FnV/jn5+p/tRI5rY9/JHR7n3s6zQ9ZgSvyLiIFo70Z7lI+dR4zyERRS6nkE66lEdz2xzmnROG0lD5KgQ0eJ/zRMWPUycF2u3LRFR28WOTvqJGKM4fUZFtnHGKFGv0aFNVFVheUu8lb/RpUTUZkyZUq1eBPfcc/vVZ0rKd2pUp0tENIbJUSx6tIfTmYWUYeKSx+zwkxdqxpybDpOdblkbjAsd9QKERXOQigVGOvnpKtxHb7G/R83nasqLufo7OF3kBZzKW4kaKZnxyq3ukUJqX8NUPnzy428UzmVxSBf7X7xrubpIjY6RI28saXmM1DxxxkjTVDVqNK6x49OacuEoO3MbPV9ERD8Ba0enJOtQt1ik6XpVjSyEZ90vX3bj230oR63PQo6uu+WoxmGXXlJ/myE7BgvkqE+9LNONHeXaXvHXxiETSdnGqEd594HnH/NkHsxR+saUdYt1TL5k/BFL5iP/iVRA38mQ97hebZJ/KHzcHNEpJ887BHzJP5KJduyVHGxOlp2P8hmkOYhT24r2L1lHM8lja/ScNpKG6uRsoAPWuo9PczBrSLQa8dmUP8wREbUV7OgkIiJqQSZNCsb33wegX79o9fmnP4WqR4q4xWLy+Cw92kVOc5AfkYLp0KNQnt2sLwJjETdEj4rRYWG3LEDSinAVL3xFEibfE4dhKcayLRvqdkC7uogS27neJC4ufsXsKLUveYtiYxd+8kJSxpVTOLLGX4QyPdLF5TK538Uo9M7PZd77luSIoFmYZY6WsY46ElOSx63r8gLR+zZJf2n6oUbmLMewaSnqorB+xoX9KDniSVxQujqY/ZIjjZrQMUxE9BPYsWOHmsyOTiv3m7ptojWZjpQIr7pf1I3e3YdS7CPy9nRzuzykXdZQmyEfL+KOb6x3er34zV8bZ3SQquVphRjmGtVo1O0edxGIyehIFfW0K41wFE4z7hqIjR/mGv2Zg3T1xyr5R6tZ8mVFsLSlcrK8yVzy9/Zy+UcyPDpL3XEQJv4n7w4w9puKwiHeI/qbck4bS6OxR6LIW/H19uLE5+k/BvKPbkTUntic8s9V1G4tW7YMY8eO1UvU1q1fvx7JyT5/Giain5Gsh62/S3mbeq9eASgoOIAhQ/rgq6/s6N69u8ezkul0yMccmxxF03hHrlX+E3OAR+rZpjgTczbEIU09p/TkeJcTIqL6eNcXFRUVyM3NVZ9Sly5d0L9/f4SGhqp5amWa3baI9u0JIM3rDgi2K0TUVnFEJxERUQsiR28eORKAiIgI9dmnTx92cp52spNzFDZnTm5WJ6cUOykaT/sdLWpH5rRCxJ2CTk4iopPRuXNnXHPNNUhMTFTT1VdfrTo62cnZSkWkIG5Xqs/o0vrkP/E0oic1t3UjImq9OKKznZN/yaP2hX+5JWpZOKKCmoLlhIiaivUFNQXLCRG1VezoJCIi+hnxQoOaguWEiJqK9QU1BcsJEbVVvHWdiIiIiIiIiIiIWj12dBIREREREREREVGrx45OIiIiIiIiIiIiavX4jE4iIqKfkXxGFlFT8FlqRNQUsl0ZO3asXiLyb/369WxXiKhNYkcnERERERFRG8GOTmoKdnQSUVvFW9eJiIiIiIiIiIio1WNHJxEREREREREREbV67OgkIiIiIiIiIiKiVo8dnURERERERNSg0rUzkbFFLzRLKdbNyECB+F9GYiISXdNMrCvTUU6aSHvGOrEn/0rL5BozH6eISLO+/flj5IGIiE43dnQSERERERG1UfLdsw6HA6Wlpa6ptrZWr226kOBABIfohWYJQUhgsPwvggdNxWvZ2ciW0+vxyP39qep4HIEHXkxCpF7ysCUD87+QGY9E0osPiJinQgEy5m0VR9RErjwQEdHpxo5OIiIiIiKiNuyrr77C8ePHXdOmTZtQXV2t1wpl6zDTHGn5stH1KEdw+oy8zMswwlyjJy2jNPV2slPP2C7RzwjQOjiOHcMxOXW9HjNT92CjjONn/wUv62XX/r33JUdxzlTbZWzZiHn3ZaFI7Hvmy2JS8WQnainWvbkOO/4+WcQpQtZ987BRbOl7bJa0VXoyzK3gZc/Rp6Vrl2LdjoWYLPPhk3c5ctRMQ6Y7Hc+8buZBhhER0enEjk4iIiIiIqI2qqysDD169MB7772npv79+6O4uBiVlZU6BlD6RS4GPqVHWj4oxzwWYM2igZhrjrxcZXQ+rrJdpeLMHZiLrWWyA3A2gvV2c4NmI2NLATIeCza2y56L4McaGLHpqER1nQ0BISKdVbmIf91I57V+S1U6G/eaoz9fQFKE0bm4J/U1va+lWFcWguCvB2KyWH5gpJgPDEFISDB27u2HNLndU8FYujYESXclYLDYTsZRI0vL1mF+bryRtjy2ebLTVmyPBH28U7Hnc89cj3jQyIMpcsIkJMjRqeJc+eZdjhw1jj1DnZ+/Yfa9Zh50AkREdNqwo5OIiIiIiKiNGz58uJqCgoLU7ew1NTV6DRA5fhIwIx7x8WKaukI9T3L3uNG4QI+8nP9H44bvhNFD1GjMGqcNAcGlKN2bgNFDjRGaF4xOwJ5d32CPud2xCzB63B6RltrUL3uR2HcfkU7hdrx4m7H/21/ajj2lkUiOex+3y/zEX435G4HDdhvG/KKbsa+p842Ox0GR6CmWK6qM9KTBcSPQXe4/NBI2ux2VtU6gzuGOc9COgDHD0U3G6TocY2x2HJbhgyLQQ4Ydr4PN5nmbeVVFOSodekFwVNbCKUenVuz1k/ciVJZfgNSngrEuaC5Sh5aj3DsPRER02rCjk4iIiIiIqI0zOzoDAwN1iJuj8kKkytGMYlKjNYOjMGD1BnWbNxyf4bmpK/CdmHXWWXvqIhEV8w42fGYsbcx9BwMuHOLeTvx3w+oBiLKMhPRUgPx3YxDZS6YzGFP1qEg5zb+xN3qMm28s6xGW4VHAB3lFasu9y6aqzk/JaXy4bNu7H6pPsngfEBWuwjxEyIQ+g0qp+DN8gCiYsbzTapy/vMsnhW7EvFcjMRUPYZ4+P0RE9NNgRycREREREVEbZ966XlBQgK5du8Jms+k18rbwB3GNGj0Zj4eck5AQOhSpTwVgtnr25GwE352E3jqumwND75uLgMeM51POts1F6kVDPLYLeCoVQy0jIbF9ASabz7NMXIq+r8v1Ip3kOLyvR0XK6bn8TVgw9mpj+bb3MeamEeh9wwyM+XiK2nZKbjxuruc28MG7XzfSf8SGu24Que4TCSy0PB+z1zjMGPMRpsg4v/8IYx4e5+fYPHk/oxMIRSTEsby8yW/eM8Sx9Usbh99Mlbewi21DvPJARESnjc0p71sgIiIiIiKiVm/ZsmUYO3asXgKqqqqQl5eHI0eOqOU+ffogPDwcvXv3RqdOnVRYSKcu6BCoOz7rqnFM3mPdsTPODDbGxdRVH0N1QBcE15Wr2687du6CgGp5O3dHdD4z2Bg9U892FVUh6NQlGHXltQg04ypO1B7Xt4SHdEKXDoEwu17r5IuSgs24ZjyZTgeobDprcby8DsFdAlBdXgkHRD7k/MaX8D8HJmD+jXKMZh2qj1WgSqftrD4OZ5DMRwXqXMdrpq23l2nJ+MF1KLfcZ+4+Xh0AnRenOObqAD95D4LTTPdMMV9Th4AgmQfP2+x/TuvXr0dycrJeIiJqO9jRSURERERE1EZ4d3S2K9tfxaziBKTHd9MBVB92dBJRW+X+gxoRERERERFRa3VJKuYlhOoFIiJqj9jRSURERERERK1fVQXKra9HJyKidocdnURERERERERERNTqsaOTiIiIiIiIiIiIWj12dBIREREREREREVGrx7euExERERERtRHyretETcG3rhNRW8SOTiIiIiIiIiIiImr1eOs6ERERERERERERtXrs6CQiIiIiIiIiIqJWjx2dRERERERERERE1Oqxo5OIiIiIiIiIiIhaPXZ0EhERERERERERUavHjk4iIiIiIiIiIiJq9djRSURERERERERERK0eOzqJiIiIiIiIiIio1WNHJxEREREREREREbV67OgkIiIiIiIiIiKiVo8dnURERERERERERNTqsaOTiIiIiIiIiIiIWj12dBIREREREREREVGrx45OIiIiIiIiIiIiavXY0UlEREREREREREStHjs6iYiIiIiIiIiIqNVjRycRERERERERERG1euzoJCIiIiIiIiIiolaPHZ1ERERERERERETU6rGjk4iIiIiIiIiIiFo9dnQSERERERERERFRq8eOTiIiIiIiIiIiImr12NFJRERERERERERErR47OomIiIiIiIiIiKjVY0cnERERERERERERtXrs6CQiIiIiIiIiIqJWjx2dRERERERERERE1Oqxo5OIiIiIiIiIiIhaPXZ0EhERERERERERUavHjk4iIiIiIiIiIiJq9djRSURERERERERERK0eOzqJiIiIiIiIiIio1WNHJxEREREREREREbV67OgkIiIiIiIiIiKiVo8dnURERERERERERNTqsaOTiIiIiIiIiIiIWj12dBIREREREREREVGrx45OIiIiIiIiIiIiavXY0UlEREREREREREStHjs6iYiIiIiIiIiIqNVjRycRERERERERERG1csD/B1ixtWLYYvYMAAAAAElFTkSuQmCC;" vertex="1" parent="1">
          <mxGeometry x="900" width="1200" height="602" as="geometry" />
        </mxCell>
      </root>
    </mxGraphModel>
  </diagram>
</mxfile>
